<?xml version="1.0" standalone="no"?>
<!DOCTYPE svg PUBLIC "-//W3C//DTD SVG 20010904//EN"
 "http://www.w3.org/TR/2001/REC-SVG-20010904/DTD/svg10.dtd">
<svg version="1.0" xmlns="http://www.w3.org/2000/svg"
 width="524.000000pt" height="524.000000pt" viewBox="0 0 524.000000 524.000000"
 preserveAspectRatio="xMidYMid meet">

<g transform="translate(0.000000,524.000000) scale(0.100000,-0.100000)"
fill="#000000" stroke="none">
<path d="M2420 5234 c-462 -55 -761 -147 -1093 -336 -712 -407 -1187 -1107
-1303 -1923 -26 -181 -26 -529 0 -710 152 -1066 916 -1919 1956 -2186 221 -56
368 -73 640 -73 203 0 269 4 385 22 330 52 631 156 908 314 713 408 1187 1107
1303 1923 26 181 26 529 0 710 -47 333 -157 655 -318 938 -403 704 -1090 1176
-1893 1299 -124 19 -494 33 -585 22z m-1450 -1064 c0 -5 10 -10 23 -10 52 0
105 -75 108 -150 l1 -35 10 28 c12 32 47 37 55 7 5 -20 6 -19 29 5 42 46 126
26 139 -33 7 -36 -10 -182 -29 -248 -9 -28 -27 -68 -41 -88 l-25 -37 46 -29
c43 -27 90 -44 110 -39 5 1 17 -1 27 -6 21 -9 87 2 87 15 0 6 7 10 16 10 8 0
13 4 9 9 -3 6 3 15 14 20 10 6 23 24 29 40 10 27 8 30 -19 41 -49 21 -96 82
-108 142 -9 43 -8 64 4 113 9 33 23 70 31 82 33 51 107 37 142 -26 25 -43 43
-159 40 -240 -3 -52 -2 -54 29 -67 l32 -14 12 43 c6 23 23 67 38 97 26 51 27
58 13 78 -10 16 -12 26 -5 33 8 8 13 7 18 -2 5 -8 4 -10 -3 -5 -14 8 -15 4 -6
-18 3 -9 11 -16 17 -16 6 0 8 3 5 6 -9 8 62 70 92 80 39 14 53 11 84 -16 38
-33 56 -78 56 -140 0 -125 -75 -199 -203 -200 -56 0 -58 -1 -52 -22 13 -43 50
-101 75 -119 14 -10 41 -20 60 -23 32 -6 33 -5 10 5 l-25 12 25 6 c34 9 77 95
59 117 -11 13 -9 14 14 3 22 -10 25 -15 14 -27 -9 -13 -9 -14 1 -8 19 12 14
-15 -13 -62 l-24 -43 27 17 c16 9 38 30 50 47 30 45 55 149 47 200 -4 30 -3
38 4 27 8 -11 10 -4 8 27 -1 48 6 61 26 45 8 -7 16 -10 19 -7 2 3 5 -17 7 -43
2 -54 -21 -183 -42 -234 -21 -51 -73 -105 -114 -120 l-37 -13 45 -6 c25 -4 9
-5 -36 -3 -112 6 -180 40 -217 109 -15 28 -30 64 -34 82 -5 25 -14 35 -45 47
-53 21 -56 21 -75 -16 -9 -18 -26 -44 -38 -57 -11 -13 -15 -21 -8 -17 6 4 12
2 12 -3 0 -6 -6 -11 -14 -11 -7 0 -35 -9 -61 -21 -73 -32 -175 -13 -271 52
l-41 28 -59 -31 c-53 -27 -66 -29 -130 -25 -122 7 -198 69 -241 198 -38 113
-13 303 49 375 31 34 117 86 130 78 7 -4 8 -2 4 4 -4 7 -2 12 3 12 6 0 11 -4
11 -10z m2284 -107 c14 -14 30 -46 37 -69 7 -24 17 -40 21 -38 5 3 7 -5 4 -18
-3 -12 -7 -49 -10 -80 -8 -77 -27 -130 -81 -226 -25 -44 -45 -90 -45 -103 0
-19 7 -13 30 28 17 29 41 60 55 69 50 33 114 -7 134 -85 6 -20 14 -92 19 -161
12 -143 34 -208 58 -168 5 7 3 8 -7 3 -8 -5 -2 3 14 18 15 14 27 33 27 42 0
25 34 14 38 -12 4 -28 -41 -99 -68 -108 -71 -23 -106 54 -116 259 -6 104 -22
162 -49 172 -24 10 -43 -13 -86 -103 -29 -61 -39 -94 -37 -121 2 -30 7 -37 23
-35 23 2 51 -32 35 -42 -6 -4 -9 -1 -8 7 2 7 -7 14 -19 16 -22 3 -23 1 -23
-91 0 -70 -4 -98 -15 -107 -20 -16 -47 -9 -60 16 -11 21 -11 21 -34 3 -15 -13
-31 -17 -45 -13 -84 26 -115 143 -117 440 0 125 -4 164 -13 164 -7 0 -24 9
-37 21 -15 13 -32 19 -49 16 -32 -7 -60 9 -60 32 0 37 127 33 148 -5 7 -13 13
-13 53 1 76 27 147 -2 105 -43 -10 -10 -32 -17 -57 -17 l-41 0 3 -60 c2 -33 0
-65 -4 -71 -8 -14 9 -287 22 -330 13 -47 39 -91 56 -97 21 -9 20 22 -2 39 -15
10 -18 28 -18 91 0 74 3 83 48 171 l48 92 -10 133 c-6 74 -15 133 -20 135 -6
2 -11 8 -11 13 0 6 5 7 10 4 6 -4 10 18 10 58 0 75 24 162 48 176 31 19 70 12
96 -16z m-234 -3 c8 -16 7 -44 -6 -113 -14 -73 -24 -98 -45 -119 -30 -31 -72
-41 -48 -12 10 13 10 17 -2 25 -12 7 -11 9 3 9 11 0 21 13 27 38 19 72 30 150
24 171 -4 16 -1 21 15 21 12 0 26 -9 32 -20z m39 -125 c6 -3 11 -11 11 -17 0
-6 -9 1 -20 15 -11 14 -20 31 -19 39 0 7 4 3 9 -8 5 -12 13 -25 19 -29z m-839
-67 c8 -11 27 -34 42 -51 25 -31 27 -31 46 -14 24 22 60 19 76 -5 8 -13 6 -22
-10 -40 -19 -22 -20 -31 -12 -168 4 -80 8 -158 9 -175 0 -23 2 -26 8 -12 6 15
10 12 24 -18 10 -20 15 -40 12 -45 -3 -5 0 -12 6 -16 8 -4 9 -3 5 4 -4 7 -3
12 3 12 5 0 11 -6 14 -12 3 -9 11 -7 26 8 18 17 20 25 12 47 -17 44 -25 266
-12 315 20 73 90 92 106 29 4 -13 -1 -101 -9 -197 -14 -163 -14 -175 2 -193
42 -46 116 -61 145 -29 15 16 14 30 -9 182 -13 91 -22 177 -18 193 3 15 17 35
30 43 22 15 26 15 48 0 19 -12 26 -27 31 -68 11 -95 13 -232 4 -282 -5 -27 -6
-52 -3 -55 6 -6 51 42 70 74 13 24 44 13 44 -16 0 -11 -10 -35 -22 -52 -13
-17 -22 -41 -22 -52 1 -15 0 -16 -3 -2 -3 9 -9 17 -15 17 -5 0 -8 -6 -5 -14 3
-8 -1 -13 -11 -12 -15 1 -17 -14 -17 -134 0 -112 -3 -137 -16 -147 -11 -8 -14
-22 -11 -45 4 -28 6 -30 13 -13 7 19 8 19 8 -2 1 -13 -5 -23 -11 -24 -7 0 -4
-5 7 -10 l20 -9 -20 3 c-14 1 -21 11 -23 34 -3 29 -4 30 -31 20 -34 -13 -75
-3 -102 24 -15 15 -24 18 -28 10 -4 -6 -8 3 -8 21 0 18 -4 52 -8 74 -10 59 7
104 57 142 l42 32 -43 0 c-46 0 -86 17 -114 48 -19 21 -19 21 -56 1 -43 -22
-91 -20 -116 4 -9 9 -21 17 -26 17 -6 0 -7 5 -4 10 3 6 2 10 -4 10 -11 0 -26
39 -22 59 1 7 -2 10 -7 7 -5 -3 -14 7 -21 22 -11 25 -10 26 4 8 14 -18 15 -16
15 35 0 35 -6 63 -17 78 -15 22 -15 25 0 36 12 9 17 27 17 63 0 65 -14 95 -50
109 -16 6 -41 29 -57 51 -15 23 -33 41 -39 42 -8 0 -12 37 -5 58 3 10 48 -12
61 -30z m1354 -90 c24 -35 20 -65 -9 -70 -22 -5 -25 -2 -25 23 0 15 -4 30 -10
34 -13 8 -1 35 16 35 7 0 20 -10 28 -22z m-67 -80 c-2 -13 -4 -5 -4 17 -1 22
1 32 4 23 2 -10 2 -28 0 -40z m-1417 12 c0 -5 -2 -10 -4 -10 -3 0 -8 5 -11 10
-3 6 -1 10 4 10 6 0 11 -4 11 -10z m124 -36 c3 -8 2 -12 -4 -9 -6 3 -10 10
-10 16 0 14 7 11 14 -7z m1351 -5 c-4 -5 0 -9 8 -9 20 0 27 -31 27 -132 0 -64
3 -88 13 -88 9 0 9 -2 -1 -8 -16 -11 -5 -165 12 -155 6 4 5 0 -2 -9 -10 -13
-10 -26 -1 -62 17 -68 34 -71 26 -5 -13 107 -20 257 -13 282 8 34 39 51 66 37
11 -6 20 -17 20 -25 0 -27 27 -15 46 20 6 11 23 27 37 35 24 13 28 13 53 -6
38 -28 63 -77 70 -139 12 -97 26 -170 34 -173 5 -2 6 -10 3 -18 -7 -18 23 -64
42 -64 17 0 30 41 22 70 -5 18 16 35 33 25 4 -3 8 41 9 98 1 56 6 106 11 111
6 6 10 18 10 27 0 27 49 79 74 79 46 0 87 -56 56 -75 -19 -12 -10 -22 15 -17
35 6 71 -29 73 -72 0 -5 6 -13 14 -17 10 -7 10 -9 1 -9 -7 0 -13 -5 -13 -11 0
-5 3 -8 8 -6 13 9 5 -78 -11 -117 -21 -47 -22 -62 -3 -47 36 30 86 221 57 221
-8 0 -7 6 1 20 16 26 34 25 48 0 15 -28 -1 -141 -30 -207 -12 -28 -36 -65 -54
-82 l-33 -32 4 -139 4 -140 -26 -26 c-21 -21 -32 -25 -58 -20 -72 14 -110 102
-89 203 10 50 18 64 62 104 40 37 50 52 50 78 0 17 7 47 14 66 14 34 14 35 -7
36 -15 0 -17 2 -7 6 26 10 31 26 24 78 -14 115 -36 92 -59 -64 -9 -63 -15
-126 -15 -140 3 -41 1 -48 -16 -55 -18 -7 -52 9 -74 36 -15 18 -16 18 -49 -7
-43 -31 -65 -32 -96 -1 -13 13 -27 21 -31 17 -4 -3 -4 0 0 6 4 7 1 23 -5 35
-7 13 -14 37 -16 53 -7 59 -34 206 -42 228 -5 13 -16 29 -26 37 -14 12 -18 12
-25 0 -5 -8 -6 -18 -3 -23 3 -4 -2 -14 -11 -20 -20 -15 -36 -107 -36 -210 0
-57 3 -76 12 -71 7 5 8 3 3 -6 -4 -7 -9 -29 -11 -49 -3 -36 -33 -71 -59 -71
-8 0 -22 11 -32 24 -10 13 -29 27 -41 30 -28 9 -51 43 -63 93 -14 55 -22 496
-9 488 6 -4 8 -11 5 -16z m-1499 -21 c5 -7 3 -8 -6 -3 -9 5 -10 1 -6 -16 6
-20 5 -21 -4 -6 -6 9 -8 22 -5 27 8 13 12 13 21 -2z m1464 -190 c-1 -40 -3
-92 -7 -115 -5 -42 -6 -43 -44 -43 -39 0 -39 0 -39 39 0 22 3 46 6 55 10 27
24 18 25 -16 1 -28 3 -27 9 12 4 25 5 52 3 60 -2 8 2 4 11 -10 l15 -25 1 40
c1 64 3 75 12 75 4 0 8 -33 8 -72z m-1576 -113 c-7 -18 -38 -20 -52 -2 -9 10
-4 13 23 15 28 2 33 -1 29 -13z m317 -98 c-10 -9 -11 -8 -5 6 3 10 9 15 12 12
3 -3 0 -11 -7 -18z m1189 19 c0 -3 -4 -8 -10 -11 -5 -3 -10 -1 -10 4 0 6 5 11
10 11 6 0 10 -2 10 -4z m-603 -78 c-3 -8 -6 -5 -6 6 -1 11 2 17 5 13 3 -3 4
-12 1 -19z m-30 -20 c-3 -7 -5 -2 -5 12 0 14 2 19 5 13 2 -7 2 -19 0 -25z
m487 -27 c7 -11 -22 -36 -31 -27 -3 3 -1 6 6 6 8 0 11 7 7 15 -6 16 9 21 18 6z
m-66 -58 c-6 -7 -13 -11 -16 -8 -3 3 -11 -4 -19 -15 -17 -25 -53 -45 -53 -30
0 5 5 10 11 10 6 0 21 13 34 28 13 16 31 29 39 29 12 0 13 -3 4 -14z m623 -16
c-10 -9 -11 -8 -5 6 3 10 9 15 12 12 3 -3 0 -11 -7 -18z m-91 0 c0 -2 -15 -16
-32 -33 l-33 -29 29 33 c28 30 36 37 36 29z m80 -20 c0 -2 -17 -19 -37 -38
l-38 -34 34 38 c33 34 41 42 41 34z m178 -24 c-10 -2 -18 -9 -18 -15 0 -6 -3
-9 -6 -5 -10 10 6 27 24 26 15 -1 15 -2 0 -6z m32 -23 c0 -5 -10 -10 -22 -9
-22 0 -22 1 -3 9 11 5 21 9 23 9 1 1 2 -3 2 -9z m-1213 -102 c-2 -13 -4 -3 -4
22 0 25 2 35 4 23 2 -13 2 -33 0 -45z m-176 -165 c5 -13 9 -35 9 -48 0 -19 -4
-23 -22 -20 -12 3 -26 -1 -30 -8 -6 -8 -8 -6 -7 8 7 96 -19 34 -42 -98 -10
-62 -18 -154 -18 -207 l1 -95 25 170 c18 123 30 175 43 186 15 15 17 15 27 -1
8 -12 4 -68 -18 -215 -20 -135 -26 -201 -19 -205 7 -4 6 -11 -5 -20 -16 -14
-20 -47 -6 -69 12 -19 64 93 56 122 -5 18 -4 19 5 7 10 -12 11 -11 7 8 -3 12
-1 22 3 22 9 0 24 87 41 235 11 104 25 139 62 156 52 23 95 -20 112 -113 4
-20 14 -39 22 -42 8 -3 12 -10 9 -14 -3 -5 13 -44 34 -88 22 -43 40 -86 40
-96 0 -9 5 -20 10 -23 12 -7 5 -43 -23 -108 -14 -35 -17 -51 -9 -59 14 -14 69
26 108 77 24 32 25 36 10 50 -22 22 -20 32 2 13 29 -26 45 -32 40 -17 -7 19
11 51 23 43 6 -3 9 0 7 7 -3 15 63 169 73 169 3 0 6 -7 6 -15 0 -8 -4 -12 -9
-9 -4 3 -8 -3 -8 -13 0 -10 -12 -36 -25 -58 -14 -22 -25 -51 -24 -65 0 -14 3
-19 6 -12 7 17 42 15 50 -3 7 -19 -36 -139 -75 -210 -15 -27 -41 -59 -59 -70
-22 -14 -42 -44 -68 -100 -21 -44 -39 -74 -42 -67 -3 6 -9 10 -14 6 -5 -3 -12
2 -15 10 -3 9 -11 13 -16 10 -13 -8 -3 25 27 92 l22 50 -26 31 c-14 16 -31 38
-37 49 -11 18 -11 18 -22 -3 -10 -19 -9 -20 10 -16 39 11 13 -21 -27 -33 -21
-6 -41 -16 -43 -22 -6 -18 -74 -14 -108 7 -16 10 -37 32 -45 50 l-15 31 -29
-30 c-55 -57 -105 -27 -105 64 l0 49 -30 -41 c-33 -46 -37 -48 -64 -27 -19 15
-19 15 1 37 45 50 56 87 50 173 -4 44 -2 107 2 140 22 147 42 241 57 262 30
46 88 49 105 6z m643 10 c-10 -40 -15 -42 -12 -5 1 18 6 32 10 32 5 0 5 -12 2
-27z m-808 -86 c1 -1 -5 -42 -13 -92 -8 -49 -17 -106 -20 -125 l-6 -35 -9 30
c-4 17 -5 59 -2 94 4 42 3 66 -5 70 -6 4 -14 22 -17 40 l-7 34 39 -7 c21 -5
40 -9 40 -9z m783 -61 c-9 -8 -10 -7 -5 7 3 10 7 28 7 40 2 16 3 14 6 -7 3
-16 -1 -34 -8 -40z m-862 -18 c-3 -8 -6 -5 -6 6 -1 11 2 17 5 13 3 -3 4 -12 1
-19z m846 -48 c-3 -11 -10 -23 -16 -27 -7 -4 -8 0 -4 11 4 10 7 22 7 27 0 5 4
9 9 9 5 0 7 -9 4 -20z m-816 -152 c-3 -8 -6 -5 -6 6 -1 11 2 17 5 13 3 -3 4
-12 1 -19z m-10 -40 c-3 -8 -6 -5 -6 6 -1 11 2 17 5 13 3 -3 4 -12 1 -19z
m620 -70 c-3 -8 -6 -5 -6 6 -1 11 2 17 5 13 3 -3 4 -12 1 -19z m-640 -30 c-3
-7 -5 -2 -5 12 0 14 2 19 5 13 2 -7 2 -19 0 -25z m23 -38 c-12 -8 -12 -10 4
-16 14 -5 15 -9 4 -15 -20 -13 -28 -11 -21 8 5 11 3 14 -6 9 -7 -5 -11 -17 -8
-27 3 -11 1 -17 -4 -13 -23 14 1 63 31 63 13 1 13 0 0 -9z m1841 -6 c14 -17
30 -204 18 -204 -3 0 -9 -30 -13 -67 -4 -38 -17 -122 -28 -188 -29 -159 -28
-189 13 -271 37 -74 63 -99 79 -74 5 8 10 10 10 5 0 -6 -5 -16 -12 -23 -9 -9
-7 -13 6 -18 27 -10 38 10 52 93 16 95 17 136 5 128 -5 -3 -13 0 -17 6 -4 7
-3 9 3 6 6 -4 13 3 16 15 6 20 7 20 29 6 21 -15 23 -23 21 -89 -5 -156 -39
-226 -105 -217 -15 3 -25 1 -22 -4 3 -4 1 -8 -5 -8 -5 0 -13 -9 -16 -20 -3
-11 -11 -20 -16 -20 -5 0 -3 10 5 23 20 30 20 31 -15 68 -17 18 -42 53 -55 78
-23 43 -24 44 -18 14 7 -42 -10 -94 -41 -123 -13 -13 -23 -26 -21 -29 3 -4
-22 -8 -55 -9 -54 -3 -62 -1 -89 27 -17 16 -30 37 -30 45 0 25 -13 19 -32 -14
-21 -37 -60 -53 -109 -45 -42 7 -76 44 -108 117 l-19 43 5 -36 c3 -25 -1 -48
-16 -76 -11 -22 -17 -44 -13 -48 4 -3 2 -5 -3 -4 -6 2 -21 -3 -33 -10 -13 -7
-35 -10 -48 -7 -28 7 -64 60 -64 94 0 29 -11 28 -40 -3 -42 -44 -127 -56 -168
-22 -21 17 -58 97 -71 154 -13 54 -12 214 2 206 4 -2 7 3 7 12 0 39 58 125 91
134 47 13 58 11 87 -14 54 -45 54 -171 -1 -163 -14 2 -23 11 -25 27 -2 15 0
21 7 17 12 -8 13 24 2 63 -6 24 -51 42 -51 20 0 -5 4 -7 10 -4 5 3 7 0 4 -8
-3 -9 -13 -13 -25 -10 -15 4 -24 -5 -41 -43 -18 -40 -23 -67 -23 -144 0 -86 3
-101 30 -155 17 -33 36 -59 43 -58 6 2 12 -1 12 -6 0 -6 12 -6 30 0 41 15 78
61 74 94 -2 22 1 26 16 22 22 -6 28 32 35 228 3 72 9 144 14 160 l8 30 -71 -2
c-57 -2 -66 -1 -46 8 20 8 22 12 10 19 -28 17 0 22 135 21 129 -1 136 0 124
17 -7 9 12 -7 42 -36 30 -29 59 -49 64 -45 4 5 5 2 1 -4 -4 -7 -3 -13 2 -13 5
0 12 10 16 22 4 17 -3 32 -27 58 -22 24 -18 22 13 -7 l45 -43 -28 -27 -27 -27
-34 33 c-20 19 -33 38 -30 42 2 4 0 10 -5 13 -5 3 -11 -3 -14 -14 -4 -17 -14
-20 -61 -20 l-55 0 -11 -41 c-9 -33 -9 -44 2 -50 11 -7 10 -11 -1 -18 -11 -7
-15 -53 -19 -218 -4 -196 -3 -209 15 -232 l20 -25 19 29 c13 20 18 44 17 77
-2 40 1 50 21 63 20 13 24 26 29 90 6 81 38 167 76 202 17 16 29 19 60 13 49
-9 58 -15 77 -52 40 -77 -6 -185 -101 -239 -50 -28 -54 -33 -49 -57 10 -39 36
-82 51 -82 7 0 13 -4 13 -10 0 -5 11 -10 24 -10 26 0 66 45 66 74 0 8 7 19 15
24 9 4 17 24 19 43 9 104 126 280 173 262 13 -5 14 1 8 35 -4 23 -7 75 -7 117
0 58 -4 75 -14 75 -11 0 -13 7 -8 27 8 30 8 35 -2 77 -5 21 -4 27 5 22 6 -4 8
-12 5 -18 -4 -7 -2 -8 4 -4 9 5 9 13 1 27 -5 11 -8 28 -6 37 4 13 5 12 6 -4 0
-12 8 -24 15 -27 10 -4 13 -1 9 10 -3 8 0 19 8 23 10 7 8 11 -11 19 l-25 10
26 0 c14 1 36 12 49 26 27 29 61 32 81 9z m-661 -43 c5 -11 10 -36 10 -56 0
-28 8 -45 35 -73 36 -38 43 -52 24 -52 -5 0 -8 4 -5 8 3 5 -8 22 -24 37 l-29
28 -10 -26 c-12 -32 -48 -54 -64 -38 -7 7 -5 18 7 36 10 15 17 43 16 63 -4 72
0 92 15 92 8 0 19 -9 25 -19z m-2293 -93 c-3 -8 -6 -5 -6 6 -1 11 2 17 5 13 3
-3 4 -12 1 -19z m2197 -93 c-4 -8 -13 -15 -22 -15 -13 0 -12 3 4 15 24 18 25
18 18 0z m-2219 -25 c3 -5 1 -10 -4 -10 -6 0 -11 5 -11 10 0 6 2 10 4 10 3 0
8 -4 11 -10z m73 -60 c43 -26 74 -95 70 -153 -3 -38 -6 -42 -32 -45 -25 -3
-28 -1 -23 18 9 34 -21 118 -48 136 -22 14 -27 14 -67 -4 -58 -25 -112 -81
-97 -99 10 -12 6 -17 -12 -15 -20 3 -34 -72 -34 -183 0 -126 9 -159 58 -212
39 -43 122 -39 191 8 32 22 32 23 24 76 -10 67 5 164 34 211 26 43 100 93 147
99 32 4 41 1 60 -22 13 -17 19 -36 16 -47 -10 -29 -132 -248 -159 -283 l-25
-32 34 -40 c43 -50 93 -75 136 -68 43 8 57 17 101 62 l38 38 -39 25 c-22 13
-45 35 -51 48 -6 14 -14 86 -17 161 l-6 136 -49 54 c-26 30 -48 60 -48 66 0
14 21 35 34 35 5 0 1 -7 -10 -15 -17 -13 -17 -14 -2 -15 9 0 19 4 23 10 3 5
12 7 21 3 8 -3 12 -8 9 -11 -3 -3 4 -16 16 -28 l22 -23 21 32 c12 17 38 38 58
45 36 14 38 13 68 -14 50 -47 73 -122 75 -244 1 -58 -1 -109 -5 -115 -4 -5 -9
-22 -12 -37 -4 -21 -1 -26 13 -23 10 2 22 -1 25 -7 4 -6 3 -8 -3 -5 -7 4 -10
-3 -9 -17 1 -19 4 -21 18 -13 9 6 16 16 15 21 -1 6 9 12 23 14 22 3 28 14 53
90 26 80 36 179 21 195 -4 3 -8 25 -9 49 -3 39 -2 40 8 18 l11 -25 4 29 c5 38
-6 96 -19 96 -6 0 -6 7 1 20 14 26 35 25 54 -2 11 -16 16 -48 17 -108 l0 -85
27 55 c48 99 102 137 153 109 37 -19 40 -51 24 -234 -16 -183 -14 -217 14
-254 17 -22 19 -23 49 -7 41 21 63 55 62 97 0 19 6 114 13 211 12 164 15 180
37 203 32 34 76 34 92 0 9 -19 8 -45 -1 -106 -15 -97 -9 -115 9 -27 20 102 47
138 102 138 28 0 72 -42 87 -83 6 -16 11 -59 11 -97 0 -45 4 -70 13 -74 10 -5
10 -7 0 -12 -21 -9 -18 -233 3 -263 l16 -22 25 23 c30 28 53 70 53 97 0 26 17
36 35 21 21 -17 19 -54 -5 -99 -21 -41 -73 -91 -95 -91 -28 0 -62 23 -81 53
-17 29 -19 50 -17 225 3 202 -5 254 -43 269 -32 12 -40 -18 -89 -301 -20 -114
-34 -211 -31 -213 3 -3 12 0 20 6 11 9 16 9 22 0 5 -8 3 -9 -6 -4 -10 6 -12 4
-7 -8 3 -9 3 -16 -1 -16 -24 4 -40 -4 -45 -21 -3 -11 0 -23 5 -27 7 -4 4 -11
-7 -20 -27 -19 1 -16 30 3 14 9 25 14 25 11 0 -2 -18 -16 -40 -31 -22 -14 -39
-23 -38 -19 3 9 -5 13 -23 13 -8 0 -9 -4 0 -13 11 -14 5 -27 -13 -27 -6 0 -4
5 4 10 10 7 11 10 3 11 -23 3 -28 4 -40 12 -7 5 -13 16 -12 25 0 12 3 11 9 -5
5 -13 12 -23 14 -23 7 0 -4 29 -20 55 -7 11 -15 35 -19 52 -6 32 -7 33 -35 18
-58 -30 -110 -7 -136 60 -17 47 -17 78 2 332 4 45 4 89 0 99 -6 16 -8 16 -26
-1 -12 -11 -18 -26 -15 -35 3 -10 -1 -20 -9 -23 -8 -3 -36 -45 -62 -93 l-47
-87 -6 -133 c-7 -144 -19 -174 -67 -174 -25 0 -54 34 -54 63 0 15 -4 17 -17
11 -10 -4 -43 -10 -75 -13 -52 -6 -60 -10 -97 -53 -42 -48 -110 -87 -158 -93
-16 -2 -49 5 -75 15 -26 10 -49 16 -52 14 -4 -2 -4 -1 -1 3 8 10 -16 33 -28
26 -5 -3 -7 -1 -4 4 4 6 -3 24 -15 39 -12 16 -23 31 -24 33 -2 2 -15 -5 -31
-16 -48 -33 -82 -43 -141 -43 -82 0 -128 29 -166 103 -26 51 -30 71 -34 166
-3 83 0 121 13 167 9 32 18 64 19 69 1 10 44 61 81 98 28 27 94 57 130 57 17
0 45 -9 63 -20z m2739 -42 c-3 -8 -6 -5 -6 6 -1 11 2 17 5 13 3 -3 4 -12 1
-19z m-966 -29 c15 -7 24 -7 34 1 16 13 30 -3 21 -26 -3 -8 1 -28 9 -44 23
-45 19 -127 -9 -180 -29 -55 -92 -102 -146 -109 l-40 -6 20 -40 c24 -48 70
-79 103 -69 34 10 55 33 50 53 -3 11 0 22 7 26 12 7 50 -21 50 -38 0 -20 -45
-76 -65 -82 -16 -5 -5 -14 55 -45 41 -21 72 -39 68 -40 -12 0 -143 64 -146 73
-6 12 -32 8 -33 -5 0 -10 -2 -10 -6 0 -2 6 -13 12 -23 12 -11 0 -35 13 -53 30
-19 16 -37 26 -41 22 -4 -4 -7 -2 -6 3 4 19 0 36 -8 31 -4 -2 -8 3 -9 12 0 9
-6 52 -13 94 -14 90 -4 172 32 255 33 73 93 103 149 72z m-2123 -19 c-7 -10
-14 -17 -17 -15 -4 4 18 35 25 35 2 0 -1 -9 -8 -20z m342 -15 c0 -5 -5 -3 -10
5 -5 8 -10 20 -10 25 0 6 5 3 10 -5 5 -8 10 -19 10 -25z m2737 13 c-3 -8 -6
-5 -6 6 -1 11 2 17 5 13 3 -3 4 -12 1 -19z m-1187 2 c0 -5 -5 -10 -11 -10 -5
0 -7 5 -4 10 3 6 8 10 11 10 2 0 4 -4 4 -10z m-1869 -19 c-6 -10 -7 -21 -4
-25 3 -3 1 -6 -5 -6 -16 0 -15 23 0 38 17 17 20 15 9 -7z m977 -17 c-3 -14 -5
-12 -10 9 -3 19 -2 25 4 19 6 -6 8 -18 6 -28z m865 23 c3 -8 1 -20 -4 -28 -6
-10 -9 -7 -9 14 0 29 5 35 13 14z m786 -34 c-7 -7 -14 -11 -18 -8 -3 3 1 10 9
15 14 9 7 14 -13 11 -5 -1 -6 3 -2 9 5 8 11 7 21 -1 11 -9 12 -15 3 -26z
m-2665 1 c3 -8 2 -12 -4 -9 -6 3 -10 10 -10 16 0 14 7 11 14 -7z m1001 -14 c3
-5 1 -10 -4 -10 -6 0 -11 5 -11 10 0 6 2 10 4 10 3 0 8 -4 11 -10z m-1011 -16
c3 -8 2 -12 -4 -9 -6 3 -10 10 -10 16 0 14 7 11 14 -7z m1041 -26 c6 -4 2 -8
-7 -8 -10 0 -18 7 -18 17 0 9 3 12 8 7 4 -5 12 -12 17 -16z m-35 2 c0 -5 -2
-10 -4 -10 -3 0 -8 5 -11 10 -3 6 -1 10 4 10 6 0 11 -4 11 -10z m-10 -46 c0
-8 -4 -12 -10 -9 -5 3 -10 13 -10 21 0 8 5 12 10 9 6 -3 10 -13 10 -21z m707
-20 c-9 -9 -66 -11 -61 -2 3 4 19 8 36 8 17 0 29 -3 25 -6z m-731 -108 c-12
-46 -24 -82 -29 -79 -4 2 -5 9 -1 14 3 5 0 8 -8 7 -7 -2 -11 4 -9 12 13 55 34
126 37 132 3 4 11 5 18 2 10 -4 9 -22 -8 -88z m2415 13 c-5 -13 -10 -19 -10
-12 -1 15 10 45 15 40 3 -2 0 -15 -5 -28z m-1993 -52 c6 3 12 -2 12 -11 0 -18
-16 -21 -26 -5 -5 8 -10 6 -16 -5 -10 -17 -28 -13 -28 7 0 7 4 6 11 -3 9 -12
10 -11 6 7 -4 19 -2 21 11 14 10 -4 23 -6 30 -4z m1979 -9 c-3 -8 -6 -5 -6 6
-1 11 2 17 5 13 3 -3 4 -12 1 -19z m-950 -4 c-3 -3 -12 -4 -19 -1 -8 3 -5 6 6
6 11 1 17 -2 13 -5z m-537 -12 c0 -5 -10 -17 -22 -28 l-23 -19 20 24 c18 22
18 24 2 18 -11 -4 -16 -3 -12 3 8 12 35 13 35 2z m475 -1 c9 -16 -9 -20 -23
-5 -10 12 -10 14 2 14 8 0 17 -4 21 -9z m-525 -45 c0 -2 -8 -10 -17 -17 -16
-13 -17 -12 -4 4 13 16 21 21 21 13z m-180 -76 c0 -5 -2 -10 -4 -10 -3 0 -8 5
-11 10 -3 6 -1 10 4 10 6 0 11 -4 11 -10z m41 -8 c-7 -2 -18 1 -23 6 -8 8 -4
9 13 5 13 -4 18 -8 10 -11z m1123 -55 c16 -12 16 -14 2 -26 -9 -8 -16 -10 -16
-6 0 4 -9 -4 -20 -18 -11 -14 -20 -30 -20 -35 0 -5 -7 -16 -17 -23 -15 -13
-15 -12 -4 9 6 12 10 26 7 31 -3 5 5 16 19 25 27 18 33 41 13 49 -9 4 -8 6 3
6 8 1 23 -5 33 -12z m-92 -89 c-7 -7 -10 -5 -7 8 5 29 6 30 12 16 3 -8 1 -18
-5 -24z m-2239 7 c-3 -9 -8 -14 -10 -11 -3 3 -2 9 2 15 9 16 15 13 8 -4z
m2213 -31 c-1 -9 -11 -21 -22 -26 -18 -9 -18 -9 0 6 11 9 16 16 12 16 -4 0 -4
5 -1 10 9 15 14 12 11 -6z"/>
<path d="M910 4079 c-15 -10 -37 -32 -48 -51 -39 -63 -67 -217 -43 -232 5 -4
38 0 72 8 44 11 72 24 93 46 26 26 29 32 16 41 -13 9 -12 10 2 5 39 -12 51
142 13 184 -21 23 -66 22 -105 -1z"/>
<path d="M1242 3967 c-27 -29 -60 -220 -46 -268 l9 -33 18 27 c23 35 45 122
53 211 7 81 -2 98 -34 63z"/>
<path d="M1525 3956 c-27 -65 -29 -118 -7 -169 24 -53 77 -91 89 -62 11 31 -4
183 -23 221 -25 51 -41 53 -59 10z"/>
<path d="M1888 3872 c-32 -37 -82 -135 -94 -184 l-6 -28 67 0 c63 0 69 2 100
33 43 43 54 104 30 164 -23 58 -55 62 -97 15z"/>
<path d="M1121 3864 c-13 -14 -38 -32 -55 -41 -17 -9 -44 -26 -61 -39 -16 -12
-60 -32 -97 -44 -38 -12 -68 -27 -68 -33 1 -29 49 -93 85 -114 56 -32 137 -31
196 1 26 14 42 29 40 37 -2 8 -11 34 -19 58 -13 38 -14 55 -3 118 7 41 11 76
9 78 -2 2 -14 -8 -27 -21z"/>
<path d="M3179 4028 c-17 -32 -26 -198 -10 -198 7 0 9 5 5 13 -4 6 2 3 14 -7
12 -11 22 -25 22 -33 0 -8 4 -12 9 -8 5 3 11 -5 13 -17 3 -16 8 -6 16 30 23
99 11 181 -32 221 l-24 23 -13 -24z"/>
<path d="M3162 3800 c0 -14 2 -19 5 -12 2 6 2 18 0 25 -3 6 -5 1 -5 -13z"/>
<path d="M3170 3697 l1 -62 23 45 c22 41 22 46 7 58 -12 10 -12 11 -1 6 8 -4
11 -3 7 1 -4 5 -14 10 -22 11 -12 2 -15 -11 -15 -59z"/>
<path d="M3108 3411 c-31 -55 -39 -149 -15 -169 11 -9 17 8 31 87 23 126 19
146 -16 82z"/>
<path d="M2732 3660 c0 -19 2 -27 5 -17 2 9 2 25 0 35 -3 9 -5 1 -5 -18z"/>
<path d="M2513 3615 c0 -33 2 -45 4 -27 2 18 2 45 0 60 -2 15 -4 0 -4 -33z"/>
<path d="M2742 3585 c0 -16 2 -22 5 -12 2 9 2 23 0 30 -3 6 -5 -1 -5 -18z"/>
<path d="M2707 3178 c-25 -24 -49 -56 -52 -71 -11 -41 20 -115 50 -123 29 -7
46 2 38 21 -3 8 -1 15 5 15 5 0 10 42 11 100 1 55 0 100 -2 100 -2 0 -25 -19
-50 -42z"/>
<path d="M4140 3481 c-6 -16 -9 -39 -5 -50 4 -12 2 -21 -4 -21 -7 0 -11 -23
-11 -56 0 -32 4 -53 9 -49 6 3 9 -11 8 -34 0 -22 -5 -37 -9 -35 -9 6 -9 -11 2
-46 7 -24 7 -23 15 12 4 20 4 41 1 47 -4 5 -2 12 3 15 5 3 12 36 16 73 4 38
13 80 21 95 18 34 17 35 -2 42 -15 6 -15 4 -3 -11 11 -15 11 -16 -1 -6 -11 10
-17 10 -29 0 -14 -10 -14 -9 0 8 27 34 31 45 16 45 -8 0 -20 -13 -27 -29z m5
-118 c-9 -15 -13 -19 -9 -8 4 11 9 34 13 50 4 25 6 26 9 8 2 -12 -4 -34 -13
-50z"/>
<path d="M3673 3435 c0 -22 2 -30 4 -17 2 12 2 30 0 40 -3 9 -5 -1 -4 -23z"/>
<path d="M3707 3146 c-5 -15 -6 -31 -3 -34 8 -8 18 25 14 45 -3 13 -6 10 -11
-11z"/>
<path d="M4211 3046 c-7 -9 -10 -16 -5 -16 4 0 0 -6 -10 -13 -25 -19 -32 -93
-13 -140 33 -78 83 -51 71 38 -3 28 -13 54 -20 58 -8 4 -14 16 -14 25 0 15 2
15 10 2 8 -12 10 -12 9 5 0 11 -4 28 -8 38 -6 17 -8 17 -20 3z"/>
<path d="M1918 3343 c7 -3 16 -2 19 1 4 3 -2 6 -13 5 -11 0 -14 -3 -6 -6z"/>
<path d="M2801 2602 c-6 -11 -16 -65 -21 -119 -5 -54 -13 -116 -16 -139 l-6
-41 61 -7 c37 -4 61 -12 61 -19 0 -7 16 -30 34 -52 l34 -40 12 30 c6 16 9 44
5 62 -7 41 -73 173 -86 173 -6 0 -7 5 -4 10 3 6 2 10 -2 10 -5 0 -14 28 -20
62 -7 33 -18 68 -26 76 -13 13 -16 12 -26 -6z"/>
<path d="M3157 2266 c-4 -10 -3 -15 3 -11 21 13 8 -13 -22 -46 -18 -20 -28
-28 -22 -20 22 31 25 45 4 19 -12 -15 -21 -31 -21 -35 -1 -16 -21 -33 -32 -26
-5 3 -7 1 -4 -5 4 -5 -6 -21 -23 -35 l-30 -25 20 -24 c11 -13 19 -17 20 -10 0
7 4 11 9 8 5 -3 11 0 14 8 4 10 -1 13 -16 10 -21 -4 -21 -4 -2 4 11 5 29 8 41
6 18 -3 27 8 53 66 18 38 30 74 27 79 -4 5 -2 12 4 16 5 3 10 11 10 16 0 6 -4
8 -9 5 -5 -4 -11 -1 -13 6 -3 7 -7 5 -11 -6z m-27 -126 c-6 -11 -13 -20 -16
-20 -2 0 0 9 6 20 6 11 13 20 16 20 2 0 0 -9 -6 -20z"/>
<path d="M2761 2236 c-6 -7 -8 -16 -4 -19 3 -4 1 -7 -5 -7 -17 0 -15 -75 2
-109 34 -65 65 -64 121 4 l36 45 -48 48 c-49 48 -83 61 -102 38z"/>
<path d="M3087 2059 c-4 -16 -3 -18 9 -8 7 6 11 15 8 20 -8 13 -11 11 -17 -12z"/>
<path d="M3032 1924 c-18 -37 -31 -69 -28 -71 3 -3 19 25 36 63 16 37 29 69
27 70 -2 2 -18 -26 -35 -62z"/>
<path d="M2998 1926 c-32 -49 -33 -56 -15 -56 11 0 57 78 57 95 0 16 -19 -1
-42 -39z"/>
<path d="M2451 2644 c0 -11 3 -14 6 -6 3 7 2 16 -1 19 -3 4 -6 -2 -5 -13z"/>
<path d="M2467 2631 c-4 -17 -3 -21 5 -13 5 5 8 16 6 23 -3 8 -7 3 -11 -10z"/>
<path d="M2482 2575 c0 -16 2 -22 5 -12 2 9 2 23 0 30 -3 6 -5 -1 -5 -18z"/>
<path d="M2472 2500 c0 -14 2 -19 5 -12 2 6 2 18 0 25 -3 6 -5 1 -5 -13z"/>
<path d="M4242 2119 c-27 -58 -38 -179 -27 -315 l9 -99 12 75 c20 121 36 291
32 340 l-4 45 -22 -46z"/>
<path d="M4146 1985 c-3 -8 -1 -15 4 -15 6 0 10 7 10 15 0 8 -2 15 -4 15 -2 0
-6 -7 -10 -15z"/>
<path d="M3780 1906 c0 -2 8 -10 18 -17 15 -13 16 -12 3 4 -13 16 -21 21 -21
13z"/>
<path d="M3849 1723 c-33 -16 -59 -78 -66 -156 l-6 -58 48 28 c54 32 85 80 85
134 0 49 -25 71 -61 52z"/>
<path d="M4120 1652 c-54 -58 -79 -131 -77 -225 3 -114 43 -147 109 -88 32 28
32 31 33 115 0 91 -4 98 -48 75 l-22 -11 21 20 c12 11 29 22 39 23 10 2 18 6
18 9 -6 59 -17 111 -25 116 -5 3 -27 -12 -48 -34z"/>
<path d="M2556 1831 c-4 -6 -9 -41 -11 -78 l-5 -68 14 75 c13 75 14 91 2 71z"/>
<path d="M1787 1792 c-3 -4 -9 -23 -15 -44 -9 -33 -8 -39 19 -64 16 -15 29
-33 29 -38 0 -6 -4 -5 -9 2 -6 10 -10 10 -21 -2 -7 -9 -16 -14 -20 -11 -17 10
-19 -14 -9 -111 8 -87 13 -102 35 -121 14 -13 29 -23 34 -23 11 0 50 122 50
154 0 12 -6 28 -12 35 -10 11 -10 13 0 7 31 -18 3 162 -31 197 -24 24 -43 31
-50 19z m13 -172 c0 -5 -8 -10 -17 -10 -15 0 -16 2 -3 10 19 12 20 12 20 0z
m48 -55 c-3 -3 -9 2 -12 12 -6 14 -5 15 5 6 7 -7 10 -15 7 -18z"/>
<path d="M1767 1655 c3 -8 9 -12 14 -9 12 7 11 11 -5 17 -10 4 -13 1 -9 -8z"/>
<path d="M1548 1627 c-50 -39 -67 -78 -67 -162 0 -56 1 -59 15 -40 18 23 124
219 124 229 0 15 -32 3 -72 -27z"/>
<path d="M2592 1630 c0 -14 2 -19 5 -12 2 6 2 18 0 25 -3 6 -5 1 -5 -13z"/>
<path d="M2581 1574 c0 -11 3 -14 6 -6 3 7 2 16 -1 19 -3 4 -6 -2 -5 -13z"/>
<path d="M2566 1509 c-8 -42 0 -50 9 -9 4 17 5 34 2 36 -2 3 -7 -10 -11 -27z"/>
<path d="M2535 1420 c-16 -31 -21 -140 -6 -140 5 0 14 30 20 68 7 37 14 75 17
85 9 28 -14 19 -31 -13z"/>
<path d="M1900 1390 c0 -5 5 -10 11 -10 5 0 7 5 4 10 -3 6 -8 10 -11 10 -2 0
-4 -4 -4 -10z"/>
<path d="M3211 1794 c0 -11 3 -14 6 -6 3 7 2 16 -1 19 -3 4 -6 -2 -5 -13z"/>
<path d="M3103 1769 c-6 -6 -9 -18 -6 -25 3 -8 -1 -14 -10 -14 -22 0 -48 -75
-54 -157 l-6 -73 32 0 c42 0 106 44 126 87 9 19 14 37 11 40 -3 3 -34 -3 -68
-15 -44 -14 -68 -17 -78 -10 -12 8 -12 8 3 4 13 -4 16 -2 10 7 -12 19 -12 36
-1 43 6 4 14 0 19 -7 7 -11 9 -10 9 5 0 12 5 16 14 13 8 -3 16 -2 18 3 2 5 19
11 38 13 43 5 49 26 18 60 -27 30 -60 41 -75 26z"/>
<path d="M3149 1664 c-8 -10 -8 -14 0 -14 6 0 11 5 11 11 0 6 7 3 16 -5 8 -9
18 -16 21 -16 4 0 3 3 0 7 -4 3 -2 12 3 18 8 9 4 13 -15 13 -13 0 -30 -7 -36
-14z"/>
</g>
</svg>
