<?xml version="1.0" encoding="UTF-8"?>
<svg version="1.1" xmlns="http://www.w3.org/2000/svg" width="512" height="512">
<path d="M0 0 C168.96 0 337.92 0 512 0 C512 168.96 512 337.92 512 512 C343.04 512 174.08 512 0 512 C0 343.04 0 174.08 0 0 Z " fill="#F1F1F4" transform="translate(0,0)"/>
<path d="M0 0 C1.73481125 0.038974 1.73481125 0.038974 3.50466919 0.07873535 C7.17254255 0.16140387 10.84016284 0.25172148 14.5078125 0.34375 C18.19688712 0.43552042 21.88594948 0.52547442 25.57522583 0.60876465 C27.86463127 0.66045463 30.1539329 0.71701869 32.44308472 0.77893066 C33.47490875 0.80225464 34.50673279 0.82557861 35.56982422 0.84960938 C36.47755585 0.87261108 37.38528748 0.89561279 38.32052612 0.91931152 C40.79377786 0.94846947 40.79377786 0.94846947 43.6328125 -0.15625 C45.30405428 0.15333006 46.97038698 0.4898711 48.6328125 0.84375 C50.54424613 0.92206674 52.45808371 0.95163625 54.37109375 0.94140625 C55.97114258 0.93657227 55.97114258 0.93657227 57.60351562 0.93164062 C58.70630859 0.92326172 59.80910156 0.91488281 60.9453125 0.90625 C62.62850586 0.89948242 62.62850586 0.89948242 64.34570312 0.89257812 C67.1081276 0.88082313 69.87044248 0.86439077 72.6328125 0.84375 C72.6328125 1.83375 72.6328125 2.82375 72.6328125 3.84375 C64.3828125 3.84375 56.1328125 3.84375 47.6328125 3.84375 C47.6328125 4.50375 47.6328125 5.16375 47.6328125 5.84375 C53.5728125 5.84375 59.5128125 5.84375 65.6328125 5.84375 C65.9628125 6.50375 66.2928125 7.16375 66.6328125 7.84375 C67.29667969 7.51632813 67.96054688 7.18890625 68.64453125 6.8515625 C72.29769162 5.61951626 75.64336292 5.62415604 79.4453125 5.71875 C80.48461914 5.73228516 80.48461914 5.73228516 81.54492188 5.74609375 C83.24103645 5.76948843 84.93697121 5.80535359 86.6328125 5.84375 C86.9628125 5.18375 87.2928125 4.52375 87.6328125 3.84375 C81.1978125 3.34875 81.1978125 3.34875 74.6328125 2.84375 C74.6328125 1.85375 74.6328125 0.86375 74.6328125 -0.15625 C77.63306197 -0.21069001 80.63230289 -0.2501336 83.6328125 -0.28125 C84.47199219 -0.29800781 85.31117188 -0.31476563 86.17578125 -0.33203125 C92.30013153 -0.37950683 98.0526471 0.0536673 103.6328125 2.84375 C103.6328125 2.18375 103.6328125 1.52375 103.6328125 0.84375 C108.89134618 0.15410624 113.74522317 -0.23293811 119.046875 0.09765625 C119.88992188 0.14728516 120.73296875 0.19691406 121.6015625 0.24804688 C123.38041585 0.35399329 125.15906634 0.46339948 126.9375 0.57617188 C127.77796875 0.62451172 128.6184375 0.67285156 129.484375 0.72265625 C130.25604004 0.7697876 131.02770508 0.81691895 131.82275391 0.86547852 C133.65516496 1.05425358 133.65516496 1.05425358 134.6328125 -0.15625 C136.5890718 -0.25552286 138.54904159 -0.28594729 140.5078125 -0.28125 C141.57773437 -0.28382813 142.64765625 -0.28640625 143.75 -0.2890625 C146.6328125 -0.15625 146.6328125 -0.15625 149.6328125 0.84375 C149.6328125 1.50375 149.6328125 2.16375 149.6328125 2.84375 C147.6528125 3.17375 145.6728125 3.50375 143.6328125 3.84375 C143.6328125 4.83375 143.6328125 5.82375 143.6328125 6.84375 C147.0978125 6.34875 147.0978125 6.34875 150.6328125 5.84375 C150.6328125 6.83375 150.6328125 7.82375 150.6328125 8.84375 C149.91738281 8.83327637 149.20195312 8.82280273 148.46484375 8.81201172 C145.18753649 8.77014444 141.91028576 8.74432671 138.6328125 8.71875 C136.94478516 8.69361328 136.94478516 8.69361328 135.22265625 8.66796875 C128.98249319 8.63147657 123.60072775 8.98609011 117.6328125 10.84375 C121.5928125 11.33875 121.5928125 11.33875 125.6328125 11.84375 C125.6328125 12.83375 125.6328125 13.82375 125.6328125 14.84375 C116.29947917 14.84375 106.96614583 14.84375 97.6328125 14.84375 C97.6328125 14.18375 97.6328125 13.52375 97.6328125 12.84375 C96.9728125 12.84375 96.3128125 12.84375 95.6328125 12.84375 C95.6328125 13.50375 95.6328125 14.16375 95.6328125 14.84375 C87.29947917 14.84375 78.96614583 14.84375 70.6328125 14.84375 C70.6328125 14.18375 70.6328125 13.52375 70.6328125 12.84375 C69.9728125 12.84375 69.3128125 12.84375 68.6328125 12.84375 C68.6328125 13.50375 68.6328125 14.16375 68.6328125 14.84375 C64.3428125 14.84375 60.0528125 14.84375 55.6328125 14.84375 C55.6328125 16.82375 55.6328125 18.80375 55.6328125 20.84375 C50.82731503 20.86843447 46.02185432 20.88660255 41.21630859 20.89868164 C39.58088539 20.90371621 37.9454667 20.91054427 36.31005859 20.91918945 C33.96190275 20.93129335 31.61380631 20.936987 29.265625 20.94140625 C28.16554611 20.94914818 28.16554611 20.94914818 27.04324341 20.95704651 C21.86055591 20.95762171 21.86055591 20.95762171 19.6328125 19.84375 C19.6328125 20.50375 19.6328125 21.16375 19.6328125 21.84375 C25.27449219 21.86845254 30.91614045 21.88661121 36.55786133 21.89868164 C38.47746326 21.90371315 40.39706136 21.91053898 42.31665039 21.91918945 C45.07439114 21.93130669 47.83208126 21.93699011 50.58984375 21.94140625 C51.87904472 21.94914818 51.87904472 21.94914818 53.19429016 21.95704651 C53.99489365 21.95712204 54.79549713 21.95719757 55.62036133 21.95727539 C56.3242952 21.959496 57.02822906 21.96171661 57.75349426 21.96400452 C59.86102906 21.90934534 59.86102906 21.90934534 62.6328125 20.84375 C60.9828125 20.84375 59.3328125 20.84375 57.6328125 20.84375 C57.6328125 19.85375 57.6328125 18.86375 57.6328125 17.84375 C62.55833441 17.75120366 67.36951296 17.74082703 72.2578125 18.40625 C75.75240234 18.84459576 78.80778547 18.65594941 82.3046875 18.1015625 C87.38342346 17.53915214 92.52998467 17.77374169 97.6328125 17.84375 C97.9628125 18.83375 98.2928125 19.82375 98.6328125 20.84375 C96.07070175 21.03944589 93.50848859 21.22555612 90.9453125 21.40625 C90.22408203 21.46232422 89.50285156 21.51839844 88.75976562 21.57617188 C84.85967186 21.84330159 81.42170222 21.85262596 77.6328125 20.84375 C77.6328125 21.50375 77.6328125 22.16375 77.6328125 22.84375 C91.1628125 22.51375 104.6928125 22.18375 118.6328125 21.84375 C117.65948989 20.65033248 117.65948989 20.65033248 115.86694336 20.73022461 C114.74364624 20.73807983 114.74364624 20.73807983 113.59765625 20.74609375 C112.78876953 20.74931641 111.97988281 20.75253906 111.14648438 20.75585938 C109.8712793 20.76842773 109.8712793 20.76842773 108.5703125 20.78125 C107.71630859 20.78576172 106.86230469 20.79027344 105.98242188 20.79492188 C103.86585587 20.80674627 101.74932565 20.82468231 99.6328125 20.84375 C99.9628125 19.85375 100.2928125 18.86375 100.6328125 17.84375 C107.8928125 17.84375 115.1528125 17.84375 122.6328125 17.84375 C122.9628125 19.16375 123.2928125 20.48375 123.6328125 21.84375 C127.2628125 21.84375 130.8928125 21.84375 134.6328125 21.84375 C134.6328125 20.85375 134.6328125 19.86375 134.6328125 18.84375 C136.06921421 18.64801392 137.50700754 18.46247184 138.9453125 18.28125 C139.74582031 18.17683594 140.54632813 18.07242188 141.37109375 17.96484375 C143.6328125 17.84375 143.6328125 17.84375 146.6328125 18.84375 C146.6328125 19.50375 146.6328125 20.16375 146.6328125 20.84375 C147.2928125 20.84375 147.9528125 20.84375 148.6328125 20.84375 C148.6328125 19.85375 148.6328125 18.86375 148.6328125 17.84375 C154.5728125 17.84375 160.5128125 17.84375 166.6328125 17.84375 C166.3028125 18.83375 165.9728125 19.82375 165.6328125 20.84375 C164.4984375 20.823125 163.3640625 20.8025 162.1953125 20.78125 C158.81705576 20.42797523 158.81705576 20.42797523 157.6328125 21.84375 C226.6028125 22.17375 295.5728125 22.50375 366.6328125 22.84375 C366.6328125 24.82375 366.6328125 26.80375 366.6328125 28.84375 C365.55442742 28.84548625 364.47604233 28.8472225 363.36497891 28.84901136 C315.86065439 28.92556084 268.3563321 29.00333828 220.85202026 29.0874176 C220.13333023 29.08868928 219.4146402 29.08996096 218.67417168 29.09127118 C203.05677582 29.11891266 187.43938037 29.14677564 171.82198531 29.17486694 C164.16371294 29.18864067 156.50544048 29.20236543 148.84716797 29.21606445 C148.08505971 29.21742854 147.32295146 29.21879262 146.53774901 29.22019804 C121.81580987 29.26442442 97.09386665 29.30541445 72.37191925 29.34473413 C46.97634981 29.38514222 21.58078799 29.42879946 -3.81476872 29.47657111 C-7.39804893 29.48331011 -10.98132921 29.49001179 -14.56460953 29.49669075 C-15.62251738 29.49866434 -15.62251738 29.49866434 -16.7017971 29.5006778 C-28.07511745 29.52179931 -39.44844069 29.53947458 -50.82176872 29.55587531 C-62.24344675 29.57241879 -73.66511256 29.59263997 -85.08677827 29.61641841 C-91.28029048 29.62920349 -97.47379456 29.64033312 -103.66731644 29.64716911 C-109.32849595 29.65345269 -114.98964748 29.66425788 -120.65081169 29.6787833 C-122.70735822 29.6832396 -124.76390927 29.68598286 -126.82046042 29.68691199 C-129.59908412 29.68840851 -132.37762541 29.6959377 -135.15623283 29.7050848 C-135.96919498 29.70406213 -136.78215713 29.70303946 -137.61975449 29.70198581 C-141.62367053 29.63200341 -141.62367053 29.63200341 -145.3671875 30.84375 C-145.3671875 25.89375 -145.3671875 20.94375 -145.3671875 15.84375 C-145.0371875 15.84375 -144.7071875 15.84375 -144.3671875 15.84375 C-144.3671875 17.49375 -144.3671875 19.14375 -144.3671875 20.84375 C-140.43396916 22.15482278 -136.68774046 21.98291522 -132.58813477 21.97314453 C-131.69013657 21.97489685 -130.79213837 21.97664917 -129.8669281 21.97845459 C-126.88913047 21.98286567 -123.91139202 21.97993548 -120.93359375 21.9765625 C-118.85912566 21.97723628 -116.78465764 21.97820693 -114.71018982 21.97946167 C-110.35309094 21.98093807 -105.99601252 21.97878789 -101.63891602 21.97412109 C-96.08111448 21.96845575 -90.52336157 21.97168278 -84.96556187 21.97769356 C-80.6750401 21.98132806 -76.38452962 21.98014682 -72.09400749 21.97756577 C-70.04689465 21.9769028 -67.99978075 21.97770266 -65.95266914 21.98004532 C-50.63352089 22.00132718 -50.63352089 22.00132718 -35.3671875 20.84375 C-35.3671875 20.18375 -35.3671875 19.52375 -35.3671875 18.84375 C-28.78869258 17.88880719 -22.94902112 17.9505993 -16.3671875 18.84375 C-16.3671875 19.50375 -16.3671875 20.16375 -16.3671875 20.84375 C-9.7671875 20.84375 -3.1671875 20.84375 3.6328125 20.84375 C-2.70052083 20.84375 -9.03385417 20.84375 -15.3671875 20.84375 C-15.0371875 19.19375 -14.7071875 17.54375 -14.3671875 15.84375 C-21.2971875 15.51375 -28.2271875 15.18375 -35.3671875 14.84375 C-35.3671875 14.18375 -35.3671875 13.52375 -35.3671875 12.84375 C-27.01455574 11.88916351 -18.76934715 11.73335666 -10.3671875 11.84375 C-10.0371875 12.50375 -9.7071875 13.16375 -9.3671875 13.84375 C-8.7071875 13.18375 -8.0471875 12.52375 -7.3671875 11.84375 C-4.109375 11.6484375 -4.109375 11.6484375 -0.2421875 11.71875 C1.67980469 11.74582031 1.67980469 11.74582031 3.640625 11.7734375 C5.12175781 11.80824219 5.12175781 11.80824219 6.6328125 11.84375 C6.6328125 12.50375 6.6328125 13.16375 6.6328125 13.84375 C7.73625 13.50601563 8.8396875 13.16828125 9.9765625 12.8203125 C15.10158184 11.53905766 19.90325414 11.83869489 25.1328125 12.21875 C26.50953125 12.30382812 26.50953125 12.30382812 27.9140625 12.390625 C30.15460062 12.53065863 32.39376292 12.6818987 34.6328125 12.84375 C34.6328125 13.50375 34.6328125 14.16375 34.6328125 14.84375 C37.10548015 14.49930119 37.10548015 14.49930119 39.6328125 13.84375 C39.9628125 13.18375 40.2928125 12.52375 40.6328125 11.84375 C48.5078125 12.71875 48.5078125 12.71875 49.6328125 13.84375 C49.9628125 13.18375 50.2928125 12.52375 50.6328125 11.84375 C53.2728125 11.84375 55.9128125 11.84375 58.6328125 11.84375 C58.9628125 11.18375 59.2928125 10.52375 59.6328125 9.84375 C54.9535255 8.92039869 50.43178228 8.71137602 45.6796875 8.74609375 C44.938255 8.7475087 44.19682251 8.74892365 43.43292236 8.75038147 C41.08284324 8.75594062 38.73286237 8.76847799 36.3828125 8.78125 C34.78906389 8.78627096 33.19531377 8.79083282 31.6015625 8.79492188 C28.69626942 8.80307204 25.79101211 8.81369834 22.88574219 8.82788086 C11.13515314 8.88520511 -0.61645917 8.84375 -12.3671875 8.84375 C-11.4921875 4.96875 -11.4921875 4.96875 -10.3671875 3.84375 C-13.9971875 3.51375 -17.6271875 3.18375 -21.3671875 2.84375 C-21.3671875 2.18375 -21.3671875 1.52375 -21.3671875 0.84375 C-14.17872362 -0.13944878 -7.24505107 -0.19810506 0 0 Z " fill="#E4E5E8" transform="translate(145.3671875,133.15625)"/>
<path d="M0 0 C0.99717041 -0.00525696 1.99434082 -0.01051392 3.02172852 -0.01593018 C6.32006465 -0.02914056 9.61791866 -0.02038751 12.91625977 -0.01025391 C15.20785108 -0.0122745 17.49944177 -0.01518581 19.79103088 -0.01895142 C24.59528725 -0.02337632 29.39937635 -0.0169388 34.20361328 -0.00292969 C40.36193139 0.01415246 46.519857 0.00432795 52.67816067 -0.01364708 C57.41106624 -0.02448853 62.14387881 -0.0210367 66.87678719 -0.0132637 C69.14739084 -0.01126221 71.41800293 -0.01371919 73.68859673 -0.02070236 C76.86293774 -0.0283215 80.03664376 -0.01670512 83.2109375 0 C84.14980301 -0.00607269 85.08866852 -0.01214539 86.0559845 -0.0184021 C90.85818666 0.02841331 94.34235034 0.12880953 98.17016602 3.38818359 C98.79516602 5.88818359 98.79516602 5.88818359 98.17016602 8.38818359 C93.62146117 12.27503927 88.77024406 11.81260034 83.10327148 11.77636719 C82.09298889 11.78162415 81.0827063 11.7868811 80.04180908 11.79229736 C76.70683272 11.80548734 73.37233462 11.79676389 70.03735352 11.78662109 C67.71997994 11.78864179 65.40260699 11.7915532 63.0852356 11.7953186 C58.23148537 11.79974034 53.37790087 11.79331438 48.52416992 11.77929688 C42.29506211 11.76218618 36.06634153 11.7720593 29.83724785 11.79001427 C25.05381334 11.80083977 20.27047109 11.79741174 15.48703384 11.78963089 C13.18965738 11.78762646 10.89227261 11.79009662 8.59490585 11.79706955 C5.38913421 11.80466567 2.18399581 11.79310609 -1.02172852 11.77636719 C-1.97556427 11.78243988 -2.92940002 11.78851257 -3.91213989 11.79476929 C-4.78411011 11.78630981 -5.65608032 11.77785034 -6.55447388 11.76913452 C-7.31214617 11.76800344 -8.06981846 11.76687237 -8.85045052 11.76570702 C-11.38315752 11.28264942 -12.27081619 10.40781357 -13.82983398 8.38818359 C-14.26733398 5.88818359 -14.26733398 5.88818359 -13.82983398 3.38818359 C-10.17650527 -0.83140496 -5.13347306 -0.03313247 0 0 Z " fill="#4C2891" transform="translate(394.829833984375,49.61181640625)"/>
<path d="M0 0 C3.58331625 -0.02907084 7.16660208 -0.04682263 10.75 -0.0625 C11.76578125 -0.07087891 12.7815625 -0.07925781 13.828125 -0.08789062 C14.8078125 -0.09111328 15.7875 -0.09433594 16.796875 -0.09765625 C17.69760742 -0.10289307 18.59833984 -0.10812988 19.52636719 -0.11352539 C22 0 22 0 24.26269531 0.56860352 C24.83600586 0.71096436 25.40931641 0.8533252 26 1 C26.33 0.67 26.66 0.34 27 0 C29.67718131 -0.10535204 32.32244554 -0.1398065 35 -0.125 C35.83869629 -0.1237915 36.67739258 -0.12258301 37.54150391 -0.12133789 C44.49685741 -0.0802306 51.42856662 0.22906262 58.375 0.5625 C67.21927812 0.98237032 75.88529013 0.89409312 84.71875 0.33618164 C91.17015586 -0.04511748 97.33431763 0.19243673 103.7734375 0.84375 C107.31393753 1.01520279 110.49996782 0.51494726 114 0 C116.49574861 0.14855646 118.90236358 0.48586841 121.375 0.84375 C124.68682136 1.04088222 127.71713369 0.47292606 131 0 C133.81426413 -0.11550835 136.62149881 -0.09599315 139.4375 -0.0625 C140.16904297 -0.05798828 140.90058594 -0.05347656 141.65429688 -0.04882812 C143.43623419 -0.03718148 145.21812863 -0.01925191 147 0 C147 0.99 147 1.98 147 3 C140.565 3.495 140.565 3.495 134 4 C134 5.65 134 7.3 134 9 C132.90042969 8.98839844 131.80085937 8.97679688 130.66796875 8.96484375 C123.11467881 8.91093446 115.73663408 9.02114189 108.21875 9.84765625 C105.37272678 10.04306982 102.79932604 9.49765796 100 9 C98.57939919 9.1289014 97.16204992 9.29791772 95.75 9.5 C92 10 92 10 90 9 C87.19269875 8.9067247 84.41038902 8.87424075 81.60302734 8.88647461 C80.73466751 8.88632858 79.86630768 8.88618256 78.97163391 8.8860321 C76.09304328 8.88673039 73.21451686 8.8945189 70.3359375 8.90234375 C68.34339432 8.90420823 66.35085069 8.90563199 64.35830688 8.90663147 C59.10740906 8.91045431 53.85653878 8.92028263 48.60565186 8.93133545 C43.25012586 8.94155457 37.89459543 8.94613017 32.5390625 8.95117188 C22.02602955 8.96190509 11.51301706 8.97897873 1 9 C1 7.68 1 6.36 1 5 C1.66 4.67 2.32 4.34 3 4 C2.01 3.67 1.02 3.34 0 3 C0 2.01 0 1.02 0 0 Z " fill="#E5E6E7" transform="translate(116,116)"/>
<path d="M0 0 C10.56 0 21.12 0 32 0 C29.70213969 4.59572062 27.07988359 6.68009647 23.19140625 9.90234375 C19.90962745 13.04372559 18.02728361 16.64802552 16.3125 20.8125 C15.879375 21.864375 15.44625 22.91625 15 24 C14.34 24 13.68 24 13 24 C12.9175 24.680625 12.835 25.36125 12.75 26.0625 C11.77667472 29.8746907 10.04192545 32.64070329 8 36 C7.34 36 6.68 36 6 36 C5.5978125 36.86625 5.5978125 36.86625 5.1875 37.75 C3.98280141 40.0325868 2.59201885 41.9737942 1 44 C0 43 0 43 -0.12025452 41.24729919 C-0.11803391 40.48562943 -0.11581329 39.72395966 -0.11352539 38.93920898 C-0.11344986 38.07839218 -0.11337433 37.21757538 -0.11329651 36.33067322 C-0.10813522 35.39526199 -0.10297394 34.45985077 -0.09765625 33.49609375 C-0.0962413 32.54307877 -0.09482635 31.59006378 -0.09336853 30.60816956 C-0.08775152 27.55124835 -0.07519616 24.49439923 -0.0625 21.4375 C-0.05748719 19.37044376 -0.05292391 17.30338638 -0.04882812 15.23632812 C-0.03862558 10.15750167 -0.01905356 5.07883194 0 0 Z " fill="#CECFD9" transform="translate(0,329)"/>
<path d="M0 0 C0.66 0.33 1.32 0.66 2 1 C1.67 1.99 1.34 2.98 1 4 C1.598125 3.649375 2.19625 3.29875 2.8125 2.9375 C5 2 5 2 8 3 C7.03960815 3.9446814 7.03960815 3.9446814 6.05981445 4.90844727 C3.66081005 7.27313363 1.26655297 9.64243373 -1.12475586 12.01489258 C-2.15580149 13.03595152 -3.18864382 14.05519981 -4.22338867 15.07250977 C-10.59248279 21.33704126 -16.47079532 27.30290559 -20.75 35.25 C-24.68585428 42.31231917 -30.30927804 48.50538562 -36.1875 54 C-40.6866802 58.36527602 -43.22664072 63.4373426 -46 69 C-49.5203681 75.70652404 -53.55632129 81.86593054 -58 88 C-58.66 87.67 -59.32 87.34 -60 87 C-59.525625 86.443125 -59.05125 85.88625 -58.5625 85.3125 C-56.87604004 82.81653926 -56.41046893 80.9553763 -56 78 C-54.515 77.505 -54.515 77.505 -53 77 C-53.33 76.01 -53.66 75.02 -54 74 C-53.5625 71.8125 -53.5625 71.8125 -53 70 C-52.34 70 -51.68 70 -51 70 C-49.92474806 67.34771188 -48.90543849 64.71631546 -48 62 C-49.32 61.67 -50.64 61.34 -52 61 C-48.81817345 57.29160356 -45.60177826 53.62247678 -42.25 50.06640625 C-23.14186319 30.36251473 -23.14186319 30.36251473 -15 5 C-13 3 -13 3 -10.6171875 2.8046875 C-9.71226562 2.82789063 -8.80734375 2.85109375 -7.875 2.875 C-6.96492188 2.89304687 -6.05484375 2.91109375 -5.1171875 2.9296875 C-4.41851562 2.95289063 -3.71984375 2.97609375 -3 3 C-3 2.34 -3 1.68 -3 1 C-2.01 0.67 -1.02 0.34 0 0 Z " fill="#D2D4DA" transform="translate(142,278)"/>
<path d="M0 0 C3.00024947 -0.05444001 5.99949039 -0.0938836 9 -0.125 C9.83917969 -0.14175781 10.67835938 -0.15851563 11.54296875 -0.17578125 C17.66731903 -0.22325683 23.4198346 0.2099173 29 3 C29 2.34 29 1.68 29 1 C34.25853368 0.31035624 39.11241067 -0.07668811 44.4140625 0.25390625 C45.67863281 0.32834961 45.67863281 0.32834961 46.96875 0.40429688 C48.74760335 0.51024329 50.52625384 0.61964948 52.3046875 0.73242188 C53.56539063 0.80493164 53.56539063 0.80493164 54.8515625 0.87890625 C56.00906006 0.94960327 56.00906006 0.94960327 57.18994141 1.02172852 C59.02235246 1.21050358 59.02235246 1.21050358 60 0 C61.9562593 -0.09927286 63.91622909 -0.12969729 65.875 -0.125 C66.94492187 -0.12757813 68.01484375 -0.13015625 69.1171875 -0.1328125 C72 0 72 0 75 1 C75 1.66 75 2.32 75 3 C73.02 3.33 71.04 3.66 69 4 C69 4.99 69 5.98 69 7 C72.465 6.505 72.465 6.505 76 6 C76 6.99 76 7.98 76 9 C75.28457031 8.98952637 74.56914062 8.97905273 73.83203125 8.96826172 C70.55472399 8.92639444 67.27747326 8.90057671 64 8.875 C62.31197266 8.84986328 62.31197266 8.84986328 60.58984375 8.82421875 C54.34968069 8.78772657 48.96791525 9.14234011 43 11 C45.64 11.33 48.28 11.66 51 12 C51 12.99 51 13.98 51 15 C41.66666667 15 32.33333333 15 23 15 C23 14.34 23 13.68 23 13 C20.69 13 18.38 13 16 13 C15.67 12.34 15.34 11.68 15 11 C17.86555821 9.38441178 20.01252154 8.73418754 23.29296875 8.62109375 C24.08767578 8.58693359 24.88238281 8.55277344 25.70117188 8.51757812 C26.52166016 8.49115234 27.34214844 8.46472656 28.1875 8.4375 C33.51413031 8.729374 33.51413031 8.729374 38 7 C36.78376953 7.01740234 36.78376953 7.01740234 35.54296875 7.03515625 C19.7532569 7.16382678 19.7532569 7.16382678 14 6 C13.67 5.34 13.34 4.68 13 4 C9.95418731 3.53045739 9.95418731 3.53045739 6.4375 3.375 C5.23996094 3.30023438 4.04242188 3.22546875 2.80859375 3.1484375 C1.88175781 3.09945312 0.95492187 3.05046875 0 3 C0 2.01 0 1.02 0 0 Z " fill="#EEEFF0" transform="translate(220,133)"/>
<path d="M0 0 C0.845625 0.33 1.69125 0.66 2.5625 1 C2.16396783 3.7897252 1.72173859 4.85103487 -0.375 6.8125 C-2.68982833 8.91333414 -2.68982833 8.91333414 -3.25 12.1875 C-5.49436422 19.3930904 -11.01069408 24.90209141 -16.4375 30 C-16.4375 29.01 -16.4375 28.02 -16.4375 27 C-15.7775 27 -15.1175 27 -14.4375 27 C-14.4375 26.01 -14.4375 25.02 -14.4375 24 C-15.4275 24 -16.4175 24 -17.4375 24 C-17.7675 23.01 -18.0975 22.02 -18.4375 21 C-19.0975 21.33 -19.7575 21.66 -20.4375 22 C-18.4774581 17.66203925 -15.59526046 14.27868045 -12.58984375 10.62109375 C-11.21802096 8.95050737 -9.87341933 7.25692087 -8.56640625 5.53515625 C-4.19859402 0 -4.19859402 0 0 0 Z " fill="#D3D4DB" transform="translate(63.4375,329)"/>
<path d="M0 0 C5.28 0 10.56 0 16 0 C16 0.99 16 1.98 16 3 C31.84 3.495 31.84 3.495 48 4 C48 4.99 48 5.98 48 7 C32.16 7 16.32 7 0 7 C0 4.69 0 2.38 0 0 Z " fill="#988DB6" transform="translate(0,56)"/>
<path d="M0 0 C1.34888732 0.00015905 2.69778075 0.00584927 4.04663086 0.01586914 C5.10991859 0.01799156 5.10991859 0.01799156 6.19468689 0.02015686 C8.46699173 0.02577096 10.73919936 0.03832576 13.01147461 0.05102539 C14.54858257 0.05603858 16.08569206 0.0606018 17.62280273 0.06469727 C21.39823103 0.07574497 25.17358632 0.09301898 28.94897461 0.11352539 C29.33116228 1.76967196 29.66292563 3.43809563 29.94897461 5.11352539 C28.94897461 6.11352539 28.94897461 6.11352539 25.89794922 6.22705078 C24.5490619 6.22689174 23.20016847 6.22120151 21.85131836 6.21118164 C20.78803062 6.20905922 20.78803062 6.20905922 19.70326233 6.20689392 C17.43095749 6.20127982 15.15874986 6.18872502 12.88647461 6.17602539 C11.34936665 6.1710122 9.81225716 6.16644898 8.27514648 6.16235352 C4.49971819 6.15130581 0.7243629 6.1340318 -3.05102539 6.11352539 C-3.43321306 4.45737882 -3.76497641 2.78895515 -4.05102539 1.11352539 C-3.05102539 0.11352539 -3.05102539 0.11352539 0 0 Z " fill="#ADAEB3" transform="translate(323.051025390625,13.886474609375)"/>
<path d="M0 0 C7.26 0 14.52 0 22 0 C22.33 1.32 22.66 2.64 23 4 C26.63 4 30.26 4 34 4 C34 3.01 34 2.02 34 1 C35.43640171 0.80426392 36.87419504 0.61872184 38.3125 0.4375 C39.11300781 0.33308594 39.91351563 0.22867188 40.73828125 0.12109375 C43 0 43 0 46 1 C46 1.66 46 2.32 46 3 C46.66 3 47.32 3 48 3 C48 2.01 48 1.02 48 0 C53.94 0 59.88 0 66 0 C65.67 0.99 65.34 1.98 65 3 C63.88625 2.95875 62.7725 2.9175 61.625 2.875 C57.95633975 2.58878141 57.95633975 2.58878141 56 5 C53.39370295 5.19975957 50.89602515 5.27983535 48.2890625 5.265625 C47.14224503 5.26849518 47.14224503 5.26849518 45.97225952 5.27142334 C44.3532478 5.2727854 42.73422516 5.2690875 41.11523438 5.26074219 C38.64167567 5.25007193 36.1688481 5.26062125 33.6953125 5.2734375 C32.12239423 5.27211533 30.54947642 5.26955176 28.9765625 5.265625 C28.23789948 5.26967346 27.49923645 5.27372192 26.7381897 5.27789307 C22.90663591 5.24308553 20.32540289 4.86842008 17 3 C14.8784414 2.72821919 14.8784414 2.72821919 12.671875 2.8046875 C11.87265625 2.81113281 11.0734375 2.81757813 10.25 2.82421875 C9.425 2.84097656 8.6 2.85773438 7.75 2.875 C6.48929688 2.88853516 6.48929688 2.88853516 5.203125 2.90234375 C3.13529396 2.92584183 1.06761005 2.96171092 -1 3 C-0.67 2.01 -0.34 1.02 0 0 Z " fill="#EDEDEF" transform="translate(246,151)"/>
<path d="M0 0 C0.66 0.33 1.32 0.66 2 1 C0.05780923 4.46125202 -1.96666141 7.20719483 -4.79296875 9.98828125 C-5.50517578 10.69404297 -6.21738281 11.39980469 -6.95117188 12.12695312 C-7.68916016 12.84818359 -8.42714844 13.56941406 -9.1875 14.3125 C-9.93708984 15.05306641 -10.68667969 15.79363281 -11.45898438 16.55664062 C-13.30153282 18.37571712 -15.14859662 20.18994389 -17 22 C-18 19 -18 19 -17.125 16.875 C-15.81626636 13.53045848 -15.58311346 10.54881273 -15.34375 6.98828125 C-15 5 -15 5 -13 3 C-10.6171875 2.8046875 -10.6171875 2.8046875 -7.875 2.875 C-6.50988281 2.90207031 -6.50988281 2.90207031 -5.1171875 2.9296875 C-4.41851562 2.95289063 -3.71984375 2.97609375 -3 3 C-3 2.34 -3 1.68 -3 1 C-2.01 0.67 -1.02 0.34 0 0 Z " fill="#CDCFD8" transform="translate(142,278)"/>
<path d="M0 0 C1.98 0 3.96 0 6 0 C6 1.32 6 2.64 6 4 C6.825 4.45375 7.65 4.9075 8.5 5.375 C9.7375 6.179375 9.7375 6.179375 11 7 C11.15625 10.1015625 11.15625 10.1015625 11 13 C8.02077407 13.02683987 5.04178705 13.04676037 2.0625 13.0625 C0.78729492 13.07506836 0.78729492 13.07506836 -0.51367188 13.08789062 C-1.32255859 13.09111328 -2.13144531 13.09433594 -2.96484375 13.09765625 C-3.7137085 13.10289307 -4.46257324 13.10812988 -5.23413086 13.11352539 C-7 13 -7 13 -8 12 C-8.04063832 10.33382885 -8.042721 8.66611905 -8 7 C-7.01 7 -6.02 7 -5 7 C-5.33 8.32 -5.66 9.64 -6 11 C-4.35 11 -2.7 11 -1 11 C-1 9.68 -1 8.36 -1 7 C-1.99 6.67 -2.98 6.34 -4 6 C-2.68 5.67 -1.36 5.34 0 5 C0 3.35 0 1.7 0 0 Z " fill="#C0D1EA" transform="translate(111,19)"/>
<path d="M0 0 C10.56 0 21.12 0 32 0 C29.70213969 4.59572062 27.07988359 6.68009647 23.19140625 9.90234375 C19.90962745 13.04372559 18.02728361 16.64802552 16.3125 20.8125 C15.879375 21.864375 15.44625 22.91625 15 24 C14.34 24 13.68 24 13 24 C12.9175 24.680625 12.835 25.36125 12.75 26.0625 C11.77667472 29.8746907 10.04192545 32.64070329 8 36 C6.6124739 33.2249478 7.36033593 31.29800481 8.15625 28.40234375 C11.0892898 20.05132766 15.88678781 13.54701174 21.94921875 7.19140625 C24.26927683 4.79172219 24.26927683 4.79172219 27 1 C13.635 1.495 13.635 1.495 0 2 C0 1.34 0 0.68 0 0 Z " fill="#D8DAE0" transform="translate(0,329)"/>
<path d="M0 0 C0.99 0.33 1.98 0.66 3 1 C2.35973877 1.6297876 1.71947754 2.2595752 1.05981445 2.90844727 C-1.33918995 5.27313363 -3.73344703 7.64243373 -6.12475586 10.01489258 C-7.15580149 11.03595152 -8.18864382 12.05519981 -9.22338867 13.07250977 C-15.59248279 19.33704126 -21.47079532 25.30290559 -25.75 33.25 C-30.57349162 41.90505552 -37.86943589 49.21916383 -45 56 C-45 52.06517853 -43.65049674 50.95078791 -41.1875 47.9375 C-40.12595703 46.62072266 -40.12595703 46.62072266 -39.04296875 45.27734375 C-37 43 -37 43 -34 41 C-32.80767387 38.94996045 -32.80767387 38.94996045 -32 37 C-31.34 37 -30.68 37 -30 37 C-29.61908203 35.92878906 -29.61908203 35.92878906 -29.23046875 34.8359375 C-26.06607329 27.5427594 -20.59440093 21.30996143 -14.859375 15.890625 C-11.66780674 12.64541694 -8.92412981 9.02784538 -6.11328125 5.453125 C-4.18035713 3.20936096 -2.56113941 1.48139224 0 0 Z " fill="#DFE0E5" transform="translate(147,280)"/>
<path d="M0 0 C0.66 0.33 1.32 0.66 2 1 C-2.76008307 6.5930976 -7.74595676 11.86877855 -13 17 C-13 14 -13 14 -11.3203125 12.09765625 C-10.59585938 11.42605469 -9.87140625 10.75445312 -9.125 10.0625 C-6.34174569 7.47377422 -4.67692852 5.37499479 -3 2 C-2.01 1.34 -1.02 0.68 0 0 Z M-22 23 C-21.34 23.33 -20.68 23.66 -20 24 C-20.58007812 24.49628906 -21.16015625 24.99257813 -21.7578125 25.50390625 C-25.50469613 28.76233476 -29.07686855 31.93043196 -32.1875 35.8125 C-34.71218811 38.91001651 -37.25827264 40.48549131 -41 42 C-39.44747 38.42170892 -37.28430104 35.8310783 -34.6875 32.9375 C-33.54861328 31.65166016 -33.54861328 31.65166016 -32.38671875 30.33984375 C-30.04654359 28.04562948 -27.85859662 26.57152865 -25 25 C-24.01 24.34 -23.02 23.68 -22 23 Z " fill="#E5E6EA" transform="translate(165,339)"/>
<path d="M0 0 C4.92552191 -0.09254634 9.73670046 -0.10292297 14.625 0.5625 C18.11958984 1.00084576 21.17497297 0.81219941 24.671875 0.2578125 C29.75061096 -0.30459786 34.89717217 -0.07000831 40 0 C40.495 1.485 40.495 1.485 41 3 C27.27882304 4.32917512 13.74508544 3.7250697 0 3 C0 2.01 0 1.02 0 0 Z " fill="#DADCDD" transform="translate(203,151)"/>
<path d="M0 0 C5.55832181 -0.1263255 5.55832181 -0.1263255 7.87109375 0.53515625 C10.50836522 1.11100085 12.63804207 0.83288868 15.3125 0.5 C19.81555054 0.0231354 23.57192778 0.11438556 28 1 C28 1.66 28 2.32 28 3 C26.865625 3.12375 25.73125 3.2475 24.5625 3.375 C22.7990625 3.684375 22.7990625 3.684375 21 4 C20.67 4.66 20.34 5.32 20 6 C16.04 6 12.08 6 8 6 C8.33 5.34 8.66 4.68 9 4 C6.03 4 3.06 4 0 4 C0 2.68 0 1.36 0 0 Z " fill="#EEEEEF" transform="translate(42,55)"/>
<path d="M0 0 C5.61 0 11.22 0 17 0 C17 0.66 17 1.32 17 2 C21.29 2 25.58 2 30 2 C30 2.66 30 3.32 30 4 C24.72 4 19.44 4 14 4 C14 3.34 14 2.68 14 2 C13.34 1.67 12.68 1.34 12 1 C12 1.99 12 2.98 12 4 C8.7 4 5.4 4 2 4 C2.33 3.01 2.66 2.02 3 1 C2.01 0.67 1.02 0.34 0 0 Z " fill="#ADAEB4" transform="translate(320,14)"/>
<path d="M0 0 C7.92 0 15.84 0 24 0 C24 0.66 24 1.32 24 2 C21.36 2 18.72 2 16 2 C16 2.99 16 3.98 16 5 C12.7 5 9.4 5 6 5 C6 4.01 6 3.02 6 2 C4.02 2 2.04 2 0 2 C0 1.34 0 0.68 0 0 Z " fill="#D1D2D4" transform="translate(18,89)"/>
<path d="M0 0 C8.58 0 17.16 0 26 0 C25.67 0.99 25.34 1.98 25 3 C16.75 3 8.5 3 0 3 C0 2.01 0 1.02 0 0 Z " fill="#D4D5D6" transform="translate(199,88)"/>
<path d="M0 0 C3.7499837 -0.02905924 7.49993837 -0.04681874 11.25 -0.0625 C12.84521484 -0.07506836 12.84521484 -0.07506836 14.47265625 -0.08789062 C15.49746094 -0.09111328 16.52226562 -0.09433594 17.578125 -0.09765625 C18.99206543 -0.10551147 18.99206543 -0.10551147 20.43457031 -0.11352539 C22.78123437 -0.00968082 24.75644478 0.33293471 27 1 C27 1.66 27 2.32 27 3 C18.09 3 9.18 3 0 3 C0 2.01 0 1.02 0 0 Z " fill="#D5D6D7" transform="translate(118,94)"/>
<path d="M0 0 C5.61 0 11.22 0 17 0 C17 1.66666667 17 3.33333333 17 5 C12.66666667 5 8.33333333 5 4 5 C3.67 4.01 3.34 3.02 3 2 C2.34 2 1.68 2 1 2 C1 2.99 1 3.98 1 5 C0.34 5 -0.32 5 -1 5 C-0.67 3.35 -0.34 1.7 0 0 Z " fill="#67696B" transform="translate(434,29)"/>
<path d="M0 0 C8.58 0 17.16 0 26 0 C25.67 0.99 25.34 1.98 25 3 C16.75 3 8.5 3 0 3 C0 2.01 0 1.02 0 0 Z " fill="#D4D5D6" transform="translate(172,88)"/>
<path d="M0 0 C9.40228594 -0.1170409 18.62895894 0.11504503 28 1 C27.67 1.99 27.34 2.98 27 4 C25.97261719 3.9278125 24.94523437 3.855625 23.88671875 3.78125 C15.91213746 3.24042068 7.99817792 2.84749237 0 3 C0 2.01 0 1.02 0 0 Z " fill="#D0D1D2" transform="translate(275,145)"/>
<path d="M0 0 C3.00024947 -0.05444001 5.99949039 -0.0938836 9 -0.125 C9.83917969 -0.14175781 10.67835938 -0.15851563 11.54296875 -0.17578125 C17.05254877 -0.21849117 21.71048292 0.44497993 27 2 C26.67 2.66 26.34 3.32 26 4 C13.13 3.505 13.13 3.505 0 3 C0 2.01 0 1.02 0 0 Z " fill="#D2D3D4" transform="translate(220,133)"/>
<path d="M0 0 C7.59 0 15.18 0 23 0 C23 0.99 23 1.98 23 3 C15.41 3 7.82 3 0 3 C0 2.01 0 1.02 0 0 Z " fill="#BDBFC4" transform="translate(385,145)"/>
<path d="M0 0 C7.26 0 14.52 0 22 0 C22.33 0.99 22.66 1.98 23 3 C15.08 3 7.16 3 -1 3 C-0.67 2.01 -0.34 1.02 0 0 Z " fill="#D6D7D8" transform="translate(246,151)"/>
<path d="M0 0 C0.33 0.66 0.66 1.32 1 2 C0.1796875 3.84765625 0.1796875 3.84765625 -1.125 6.0625 C-1.59421875 6.86945313 -2.0634375 7.67640625 -2.546875 8.5078125 C-3.02640625 9.33023437 -3.5059375 10.15265625 -4 11 C-4.79324526 12.4783207 -5.58494843 13.95747005 -6.375 15.4375 C-9.20482804 20.55469703 -12.57305702 25.26943606 -16 30 C-16.66 29.67 -17.32 29.34 -18 29 C-17.525625 28.443125 -17.05125 27.88625 -16.5625 27.3125 C-14.84061117 25.11916474 -14.84061117 25.11916474 -14.625 22.5625 C-14 20 -14 20 -11.75 17.8125 C-8.59287138 14.58361846 -7.11071142 11.42737865 -5.203125 7.3828125 C-3.79867285 4.60126766 -2.0816968 2.31299644 0 0 Z " fill="#DEE0E4" transform="translate(100,336)"/>
<path d="M0 0 C2.09821215 -0.39938767 2.09821215 -0.39938767 4 -1 C4 -0.34 4 0.32 4 1 C4.99 0.67 5.98 0.34 7 0 C8.56118428 -0.06740865 10.1250252 -0.08514456 11.6875 -0.0625 C12.89986328 -0.04896484 12.89986328 -0.04896484 14.13671875 -0.03515625 C15.05904297 -0.01775391 15.05904297 -0.01775391 16 0 C16 0.99 16 1.98 16 3 C7.75 3 -0.5 3 -9 3 C-9 2.01 -9 1.02 -9 0 C-2.25 -1.125 -2.25 -1.125 0 0 Z " fill="#91969D" transform="translate(153,71)"/>
<path d="M0 0 C7.92 0 15.84 0 24 0 C23.67 0.99 23.34 1.98 23 3 C15.41 3 7.82 3 0 3 C0 2.01 0 1.02 0 0 Z " fill="#D1D1D2" transform="translate(135,82)"/>
<path d="M0 0 C0.71929687 -0.00386719 1.43859375 -0.00773438 2.1796875 -0.01171875 C7.49647556 -0.00176222 7.49647556 -0.00176222 9.75 1.125 C9.42 2.115 9.09 3.105 8.75 4.125 C-2.635 3.63 -2.635 3.63 -14.25 3.125 C-14.25 2.465 -14.25 1.805 -14.25 1.125 C-9.44183617 0.17243924 -4.87611883 -0.02679186 0 0 Z " fill="#D1D2D3" transform="translate(124.25,144.875)"/>
<path d="M0 0 C7.59 0 15.18 0 23 0 C22.67 0.99 22.34 1.98 22 3 C15.07 3 8.14 3 1 3 C0.67 2.01 0.34 1.02 0 0 Z " fill="#D4D5D6" transform="translate(126,88)"/>
<path d="M0 0 C1.2984082 0.07831055 1.2984082 0.07831055 2.62304688 0.15820312 C4.72829032 0.2861461 6.83296828 0.42333971 8.9375 0.5625 C8.9375 1.5525 8.9375 2.5425 8.9375 3.5625 C7.41382813 3.45421875 7.41382813 3.45421875 5.859375 3.34375 C-2.46183534 2.77501231 -10.71648389 2.42023836 -19.0625 2.5625 C-19.0625 1.9025 -19.0625 1.2425 -19.0625 0.5625 C-12.57541589 -0.32120974 -6.52330235 -0.44028495 0 0 Z " fill="#CDCECF" transform="translate(143.0625,133.4375)"/>
<path d="M0 0 C7.26 0 14.52 0 22 0 C22 0.99 22 1.98 22 3 C14.46818582 3.75667376 7.49719609 4.14364008 0 3 C0 2.01 0 1.02 0 0 Z " fill="#B5BAC2" transform="translate(144,55)"/>
<path d="M0 0 C8.72630608 -0.09744014 17.33003296 -0.16711095 26 1 C26 1.66 26 2.32 26 3 C17.75 3 9.5 3 1 3 C0.67 2.01 0.34 1.02 0 0 Z " fill="#C4C5C8" transform="translate(11,36)"/>
<path d="M0 0 C0.66 0.33 1.32 0.66 2 1 C1.67 2.32 1.34 3.64 1 5 C2.65 5 4.3 5 6 5 C6.33 4.01 6.66 3.02 7 2 C7 2.99 7 3.98 7 5 C9.97 5 12.94 5 16 5 C15.67 3.35 15.34 1.7 15 0 C15.99 0.33 16.98 0.66 18 1 C18 2.98 18 4.96 18 7 C15.02077407 7.02683987 12.04178705 7.04676037 9.0625 7.0625 C7.78729492 7.07506836 7.78729492 7.07506836 6.48632812 7.08789062 C5.67744141 7.09111328 4.86855469 7.09433594 4.03515625 7.09765625 C3.2862915 7.10289307 2.53742676 7.10812988 1.76586914 7.11352539 C0 7 0 7 -1 6 C-1.125 3.5 -1.125 3.5 -1 1 C-0.67 0.67 -0.34 0.34 0 0 Z " fill="#B4B6E2" transform="translate(104,25)"/>
<path d="M0 0 C6.27 0.33 12.54 0.66 19 1 C19.33 1.99 19.66 2.98 20 4 C13.07 4 6.14 4 -1 4 C-0.67 2.68 -0.34 1.36 0 0 Z " fill="#878C92" transform="translate(106,70)"/>
<path d="M0 0 C6.6 0 13.2 0 20 0 C19.67 0.99 19.34 1.98 19 3 C12.73 3 6.46 3 0 3 C0 2.01 0 1.02 0 0 Z " fill="#BBBEC2" transform="translate(386,119)"/>
<path d="M0 0 C6.6 0 13.2 0 20 0 C20 0.99 20 1.98 20 3 C13.4 3 6.8 3 0 3 C0 2.01 0 1.02 0 0 Z " fill="#CECFD0" transform="translate(236,94)"/>
<path d="M0 0 C0 0.66 0 1.32 0 2 C-7.59 2 -15.18 2 -23 2 C-23 1.34 -23 0.68 -23 0 C-6.49411765 -2.16470588 -6.49411765 -2.16470588 0 0 Z " fill="#C2C3C5" transform="translate(37,28)"/>
<path d="M0 0 C7.92 0 15.84 0 24 0 C24 0.99 24 1.98 24 3 C21.31243045 3.02720824 18.62514202 3.0469388 15.9375 3.0625 C15.18533203 3.07087891 14.43316406 3.07925781 13.65820312 3.08789062 C8.99366882 3.10808341 4.60076827 2.77595959 0 2 C0 1.34 0 0.68 0 0 Z " fill="#CCCDCE" transform="translate(194,134)"/>
<path d="M0 0 C2.54173977 -0.02716824 5.08318415 -0.04691969 7.625 -0.0625 C8.33785156 -0.07087891 9.05070313 -0.07925781 9.78515625 -0.08789062 C13.97344438 -0.10710296 17.8728462 0.1732673 22 1 C22 1.66 22 2.32 22 3 C14.74 3 7.48 3 0 3 C0 2.01 0 1.02 0 0 Z " fill="#C5C7C8" transform="translate(209,110)"/>
<path d="M0 0 C6.93 0.495 6.93 0.495 14 1 C14 1.66 14 2.32 14 3 C11.36 3 8.72 3 6 3 C6.33 4.32 6.66 5.64 7 7 C4.69 7 2.38 7 0 7 C0 4.69 0 2.38 0 0 Z " fill="#D0D0D3" transform="translate(44,88)"/>
<path d="M0 0 C2.95887459 -0.08069658 5.9155659 -0.14034665 8.875 -0.1875 C9.71675781 -0.21263672 10.55851562 -0.23777344 11.42578125 -0.26367188 C12.23144531 -0.27333984 13.03710938 -0.28300781 13.8671875 -0.29296875 C14.98262939 -0.31653442 14.98262939 -0.31653442 16.12060547 -0.34057617 C17.05090576 -0.17199097 17.05090576 -0.17199097 18 0 C18.66 0.99 19.32 1.98 20 3 C13.4 3 6.8 3 0 3 C0 2.01 0 1.02 0 0 Z " fill="#D3D3D4" transform="translate(258,88)"/>
<path d="M0 0 C2.79224073 -0.08071788 5.58216566 -0.14035408 8.375 -0.1875 C9.1690625 -0.21263672 9.963125 -0.23777344 10.78125 -0.26367188 C12.85586148 -0.29004405 14.93100865 -0.15486462 17 0 C17.66 0.99 18.32 1.98 19 3 C12.73 3 6.46 3 0 3 C0 2.01 0 1.02 0 0 Z " fill="#D5D5D6" transform="translate(106,88)"/>
<path d="M0 0 C7.59 0 15.18 0 23 0 C23 0.99 23 1.98 23 3 C19.91722144 3.1974877 16.8337715 3.38123332 13.75 3.5625 C12.87730469 3.61857422 12.00460937 3.67464844 11.10546875 3.73242188 C10.26113281 3.78076172 9.41679687 3.82910156 8.546875 3.87890625 C7.77182617 3.9260376 6.99677734 3.97316895 6.19824219 4.02172852 C3.96887415 3.99969234 2.13101433 3.6303897 0 3 C0 2.01 0 1.02 0 0 Z " fill="#B6BBC2" transform="translate(256,55)"/>
<path d="M0 0 C8.37760553 -0.17740812 16.65080904 0.37659374 25 1 C25 1.33 25 1.66 25 2 C21.64908229 2.75363052 18.56890188 3.11979937 15.13671875 3.09765625 C13.80737305 3.09282227 13.80737305 3.09282227 12.45117188 3.08789062 C11.53916016 3.07951172 10.62714844 3.07113281 9.6875 3.0625 C8.75615234 3.05798828 7.82480469 3.05347656 6.86523438 3.04882812 C4.57675627 3.03709234 2.28841192 3.02067363 0 3 C0 2.01 0 1.02 0 0 Z " fill="#CED0D1" transform="translate(203,151)"/>
<path d="M0 0 C5.94 0 11.88 0 18 0 C18 0.99 18 1.98 18 3 C12.06 3 6.12 3 0 3 C0 2.01 0 1.02 0 0 Z " fill="#CCCCCE" transform="translate(183,82)"/>
<path d="M0 0 C3.27075883 -0.0580476 6.54138524 -0.09361165 9.8125 -0.125 C10.74126953 -0.14175781 11.67003906 -0.15851562 12.62695312 -0.17578125 C13.51962891 -0.18222656 14.41230469 -0.18867187 15.33203125 -0.1953125 C16.15421143 -0.20578613 16.9763916 -0.21625977 17.82348633 -0.22705078 C20 0 20 0 23 2 C22.67 2.66 22.34 3.32 22 4 C14.74 3.67 7.48 3.34 0 3 C0 2.01 0 1.02 0 0 Z " fill="#BEC1C8" transform="translate(231,55)"/>
<path d="M0 0 C6.27 0 12.54 0 19 0 C19 0.99 19 1.98 19 3 C12.73 3 6.46 3 0 3 C0 2.01 0 1.02 0 0 Z " fill="#D2D2D4" transform="translate(278,94)"/>
<path d="M0 0 C6.6 0 13.2 0 20 0 C20 0.99 20 1.98 20 3 C13.4 3 6.8 3 0 3 C0 2.01 0 1.02 0 0 Z " fill="#D0D1D2" transform="translate(179,94)"/>
<path d="M0 0 C5.61 0 11.22 0 17 0 C17 0.99 17 1.98 17 3 C11.39 3 5.78 3 0 3 C0 2.01 0 1.02 0 0 Z " fill="#DADCDC" transform="translate(239,88)"/>
<path d="M0 0 C5.61 0 11.22 0 17 0 C17 0.99 17 1.98 17 3 C11.39 3 5.78 3 0 3 C0 2.01 0 1.02 0 0 Z " fill="#CFD0D1" transform="translate(160,94)"/>
<path d="M0 0 C1.2065625 0.0309375 1.2065625 0.0309375 2.4375 0.0625 C1.4475 0.7225 0.4575 1.3825 -0.5625 2.0625 C-1.03706797 4.15246957 -1.03706797 4.15246957 -1.00390625 6.5625 C-1.03033203 7.449375 -1.05675781 8.33625 -1.08398438 9.25 C-1.10428711 10.6421875 -1.10428711 10.6421875 -1.125 12.0625 C-1.1593784 13.89601454 -1.20195064 15.72939934 -1.25390625 17.5625 C-1.26623291 18.3771875 -1.27855957 19.191875 -1.29125977 20.03125 C-1.5625 22.0625 -1.5625 22.0625 -3.5625 24.0625 C-3.59137236 20.25001574 -3.60925492 16.4375593 -3.625 12.625 C-3.63337891 11.53638672 -3.64175781 10.44777344 -3.65039062 9.32617188 C-3.65361328 8.29169922 -3.65683594 7.25722656 -3.66015625 6.19140625 C-3.66539307 5.23306885 -3.67062988 4.27473145 -3.67602539 3.28735352 C-3.5119814 0.07244412 -3.23898215 0.07899956 0 0 Z " fill="#DBDCE0" transform="translate(301.5625,252.9375)"/>
<path d="M0 0 C0.88945312 0.04833984 1.77890625 0.09667969 2.6953125 0.14648438 C3.61570313 0.20255859 4.53609375 0.25863281 5.484375 0.31640625 C6.42023438 0.36861328 7.35609375 0.42082031 8.3203125 0.47460938 C10.62536387 0.6039745 12.92994789 0.73892659 15.234375 0.87890625 C15.234375 1.53890625 15.234375 2.19890625 15.234375 2.87890625 C7.644375 2.87890625 0.054375 2.87890625 -7.765625 2.87890625 C-8.095625 2.21890625 -8.425625 1.55890625 -8.765625 0.87890625 C-5.71719635 -0.03011314 -3.16900864 -0.18282742 0 0 Z " fill="#C7C8C9" transform="translate(162.765625,145.12109375)"/>
<path d="M0 0 C2.0625 0.4375 2.0625 0.4375 4 1 C3.01 1.495 3.01 1.495 2 2 C1.98018066 2.59538574 1.96036133 3.19077148 1.93994141 3.80419922 C1.84483874 6.49492153 1.73510158 9.18485148 1.625 11.875 C1.5940625 12.81214844 1.563125 13.74929688 1.53125 14.71484375 C1.49257813 15.61074219 1.45390625 16.50664062 1.4140625 17.4296875 C1.3826416 18.25710449 1.3512207 19.08452148 1.31884766 19.93701172 C1 22 1 22 -1 24 C-1.02887236 20.18751574 -1.04675492 16.3750593 -1.0625 12.5625 C-1.07087891 11.47388672 -1.07925781 10.38527344 -1.08789062 9.26367188 C-1.09111328 8.22919922 -1.09433594 7.19472656 -1.09765625 6.12890625 C-1.10289307 5.17056885 -1.10812988 4.21223145 -1.11352539 3.22485352 C-1 1 -1 1 0 0 Z " fill="#DCDDE1" transform="translate(418,253)"/>
<path d="M0 0 C6.93 0 13.86 0 21 0 C21 0.66 21 1.32 21 2 C18.16615892 2.82514784 15.83064749 3.07936233 12.890625 2.87890625 C12.13652344 2.83056641 11.38242188 2.78222656 10.60546875 2.73242188 C9.82816406 2.67634766 9.05085938 2.62027344 8.25 2.5625 C7.45722656 2.51029297 6.66445312 2.45808594 5.84765625 2.40429688 C3.89806003 2.27510676 1.94897114 2.13830035 0 2 C0 1.34 0 0.68 0 0 Z " fill="#C7C7C8" transform="translate(106,82)"/>
<path d="M0 0 C5.28 0 10.56 0 16 0 C16.33 0.99 16.66 1.98 17 3 C11.39 3 5.78 3 0 3 C0 2.01 0 1.02 0 0 Z " fill="#D5D7D8" transform="translate(220,82)"/>
<path d="M0 0 C4.62 0 9.24 0 14 0 C13.67 1.32 13.34 2.64 13 4 C9.04 4 5.08 4 1 4 C0.67 2.68 0.34 1.36 0 0 Z " fill="#919295" transform="translate(133,43)"/>
<path d="M0 0 C7.26 0.33 14.52 0.66 22 1 C21.67 1.99 21.34 2.98 21 4 C20.34 3.67 19.68 3.34 19 3 C17.55151418 2.91657841 16.09929131 2.89267139 14.6484375 2.90234375 C13.37226563 2.90717773 13.37226563 2.90717773 12.0703125 2.91210938 C11.18085938 2.92048828 10.29140625 2.92886719 9.375 2.9375 C8.02921875 2.94426758 8.02921875 2.94426758 6.65625 2.95117188 C4.43743352 2.96297409 2.21874982 2.97943845 0 3 C0 2.01 0 1.02 0 0 Z " fill="#C1C2C4" transform="translate(10,18)"/>
<path d="M0 0 C1.32 0 2.64 0 4 0 C4 0.66 4 1.32 4 2 C6.97 2.33 9.94 2.66 13 3 C13 2.01 13 1.02 13 0 C13.99 0.33 14.98 0.66 16 1 C15.67 1.66 15.34 2.32 15 3 C19.62 3 24.24 3 29 3 C29 3.33 29 3.66 29 4 C19.43 4 9.86 4 0 4 C0 2.68 0 1.36 0 0 Z " fill="#93959A" transform="translate(319,15)"/>
<path d="M0 0 C2.79173055 -0.02690104 5.58320348 -0.04679053 8.375 -0.0625 C9.56609375 -0.07506836 9.56609375 -0.07506836 10.78125 -0.08789062 C16.7734375 -0.11328125 16.7734375 -0.11328125 19 1 C19 1.66 19 2.32 19 3 C12.4 3 5.8 3 -1 3 C-0.67 2.01 -0.34 1.02 0 0 Z " fill="#CDCDCE" transform="translate(191,139)"/>
<path d="M0 0 C4.95 0.33 9.9 0.66 15 1 C15.33 1.99 15.66 2.98 16 4 C13.70839681 4.02692484 11.41670454 4.04636124 9.125 4.0625 C7.84882813 4.07410156 6.57265625 4.08570312 5.2578125 4.09765625 C2 4 2 4 0 3 C0 2.01 0 1.02 0 0 Z " fill="#D6D7D8" transform="translate(202,81)"/>
<path d="M0 0 C0.33 0.66 0.66 1.32 1 2 C1.66 2 2.32 2 3 2 C3.33 1.34 3.66 0.68 4 0 C9.28 0 14.56 0 20 0 C20 0.99 20 1.98 20 3 C13.4 3.33 6.8 3.66 0 4 C0 2.68 0 1.36 0 0 Z " fill="#969BA1" transform="translate(422,15)"/>
<path d="M0 0 C0 0.66 0 1.32 0 2 C-6.27 2 -12.54 2 -19 2 C-19 1.34 -19 0.68 -19 0 C-12.86896483 -2.04367839 -6.27499197 -1.06808374 0 0 Z " fill="#D4D5D6" transform="translate(129,152)"/>
<path d="M0 0 C0.75410156 0.04833984 1.50820313 0.09667969 2.28515625 0.14648438 C3.45111328 0.2305957 3.45111328 0.2305957 4.640625 0.31640625 C5.82978516 0.3947168 5.82978516 0.3947168 7.04296875 0.47460938 C8.99256497 0.60379949 10.94165386 0.7406059 12.890625 0.87890625 C12.890625 1.53890625 12.890625 2.19890625 12.890625 2.87890625 C5.960625 2.87890625 -0.969375 2.87890625 -8.109375 2.87890625 C-8.109375 2.21890625 -8.109375 1.55890625 -8.109375 0.87890625 C-5.27553392 0.05375841 -2.94002249 -0.20045608 0 0 Z " fill="#CFCFD0" transform="translate(273.109375,81.12109375)"/>
<path d="M0 0 C6.6 0.33 13.2 0.66 20 1 C20 1.66 20 2.32 20 3 C17.41703983 3.19522373 14.83395921 3.38144403 12.25 3.5625 C11.52039062 3.61857422 10.79078125 3.67464844 10.0390625 3.73242188 C6.45046349 3.97709908 3.44972775 3.99666259 0 3 C0 2.01 0 1.02 0 0 Z " fill="#C0C1C4" transform="translate(34,18)"/>
<path d="M0 0 C5.61 0 11.22 0 17 0 C17 0.99 17 1.98 17 3 C11.39 3 5.78 3 0 3 C0 2.01 0 1.02 0 0 Z " fill="#CACBCC" transform="translate(254,145)"/>
<path d="M0 0 C0.33 0 0.66 0 1 0 C1 3.3 1 6.6 1 10 C1.66 10.33 2.32 10.66 3 11 C0.69 12.98 -1.62 14.96 -4 17 C-3.40245849 13.21557045 -2.7232801 9.44963605 -2 5.6875 C-1.835 4.82511719 -1.67 3.96273438 -1.5 3.07421875 C-1 1 -1 1 0 0 Z " fill="#C7C9D0" transform="translate(128,283)"/>
<path d="M0 0 C0.66015625 1.73046875 0.66015625 1.73046875 1 4 C-0.00390625 6.11328125 -0.00390625 6.11328125 -1.5625 8.3125 C-2.11292969 9.09109375 -2.66335937 9.8696875 -3.23046875 10.671875 C-5.69203457 13.9104914 -8.28941621 16.96672766 -11 20 C-11.33 19.01 -11.66 18.02 -12 17 C-11.34 17 -10.68 17 -10 17 C-9.75507812 16.47921875 -9.51015625 15.9584375 -9.2578125 15.421875 C-7.61938813 12.26714486 -5.75118362 9.26647897 -3.875 6.25 C-3.50246094 5.64800781 -3.12992188 5.04601562 -2.74609375 4.42578125 C-1.83225276 2.94957657 -0.91633402 1.47465846 0 0 Z " fill="#DFE1E5" transform="translate(59,339)"/>
<path d="M0 0 C2.45840605 -0.02691685 4.91651882 -0.04679802 7.375 -0.0625 C8.07367188 -0.07087891 8.77234375 -0.07925781 9.4921875 -0.08789062 C14.7734375 -0.11328125 14.7734375 -0.11328125 17 1 C17 1.66 17 2.32 17 3 C11.72 3 6.44 3 1 3 C0.67 2.01 0.34 1.02 0 0 Z " fill="#D3D4D5" transform="translate(148,151)"/>
<path d="M0 0 C5.94 0 11.88 0 18 0 C18 0.99 18 1.98 18 3 C12.06 3 6.12 3 0 3 C0 2.01 0 1.02 0 0 Z " fill="#CCCDCE" transform="translate(196,145)"/>
<path d="M0 0 C13.6332574 -0.18451025 13.6332574 -0.18451025 20 1 C20 1.66 20 2.32 20 3 C13.4 3 6.8 3 0 3 C0 2.01 0 1.02 0 0 Z " fill="#D0D3D9" transform="translate(428,68)"/>
<path d="M0 0 C2.31 0 4.62 0 7 0 C7 1.98 7 3.96 7 6 C4.69 6 2.38 6 0 6 C0 4.02 0 2.04 0 0 Z " fill="#8AA2A5" transform="translate(0,35)"/>
<path d="M0 0 C1.93742341 -0.02703381 3.87495479 -0.04641125 5.8125 -0.0625 C6.89144531 -0.07410156 7.97039062 -0.08570313 9.08203125 -0.09765625 C12 0 12 0 15 1 C15 1.66 15 2.32 15 3 C9.72 3 4.44 3 -1 3 C-0.67 2.01 -0.34 1.02 0 0 Z " fill="#D0D2D3" transform="translate(217,145)"/>
<path d="M0 0 C-0.33 0.66 -0.66 1.32 -1 2 C-5.01925024 3.22708371 -8.66465109 2.93957717 -12.8125 2.5625 C-13.97394531 2.46066406 -15.13539063 2.35882813 -16.33203125 2.25390625 C-17.21246094 2.17011719 -18.09289062 2.08632812 -19 2 C-19 1.34 -19 0.68 -19 0 C-16.39619004 -0.19476139 -13.79224467 -0.38108614 -11.1875 -0.5625 C-10.44951172 -0.61857422 -9.71152344 -0.67464844 -8.95117188 -0.73242188 C-5.63211484 -0.95769724 -3.18767436 -1.06255812 0 0 Z " fill="#CECFD0" transform="translate(209,117)"/>
<path d="M0 0 C6.27 0.33 12.54 0.66 19 1 C19 1.66 19 2.32 19 3 C12.73 3 6.46 3 0 3 C0 2.01 0 1.02 0 0 Z " fill="#C7C7C9" transform="translate(116,110)"/>
<path d="M0 0 C5.94 0 11.88 0 18 0 C18 0.99 18 1.98 18 3 C12.39 3 6.78 3 1 3 C0.67 2.01 0.34 1.02 0 0 Z " fill="#BBC0C7" transform="translate(112,55)"/>
<path d="M0 0 C0 0.99 0 1.98 0 3 C-6.27 3 -12.54 3 -19 3 C-19 2.34 -19 1.68 -19 1 C-16.39590255 0.83218705 -13.7917318 0.66570349 -11.1875 0.5 C-10.08051758 0.42845703 -10.08051758 0.42845703 -8.95117188 0.35546875 C-5.96175412 0.16609387 -2.99625426 0 0 0 Z " fill="#C4C5C7" transform="translate(177,43)"/>
<path d="M0 0 C3.125 0.375 3.125 0.375 6 1 C5.60196439 3.88575819 5.20990931 4.82189513 2.9375 6.75 C2.298125 7.1625 1.65875 7.575 1 8 C1 6.68 1 5.36 1 4 C0.01 4.33 -0.98 4.66 -2 5 C-2 2 -2 2 0 0 Z " fill="#D5D6DA" transform="translate(60,329)"/>
<path d="M0 0 C0 0.99 0 1.98 0 3 C-5.28 3 -10.56 3 -16 3 C-16 2.34 -16 1.68 -16 1 C-10.59255982 0.22750855 -5.46137814 -0.09752461 0 0 Z " fill="#D5D6D7" transform="translate(190,151)"/>
<path d="M0 0 C-0.33 0.99 -0.66 1.98 -1 3 C-6.61 3 -12.22 3 -18 3 C-18 2.34 -18 1.68 -18 1 C-15.93769732 0.8309093 -13.8751477 0.66482867 -11.8125 0.5 C-10.08966797 0.36078125 -10.08966797 0.36078125 -8.33203125 0.21875 C-5.53927574 0.0354038 -2.79680188 -0.04213637 0 0 Z " fill="#C5C7CA" transform="translate(460,108)"/>
<path d="M0 0 C1.63001953 0.01353516 1.63001953 0.01353516 3.29296875 0.02734375 C4.12441406 0.03894531 4.95585937 0.05054687 5.8125 0.0625 C5.8125 1.0525 5.8125 2.0425 5.8125 3.0625 C0.8625 3.0625 -4.0875 3.0625 -9.1875 3.0625 C-9.1875 2.4025 -9.1875 1.7425 -9.1875 1.0625 C-5.90230525 -0.03256492 -3.45086585 -0.03710608 0 0 Z " fill="#D3D3D4" transform="translate(160.1875,87.9375)"/>
<path d="M0 0 C5.28 0 10.56 0 16 0 C16 0.66 16 1.32 16 2 C14.27111445 2.16955795 12.54187557 2.33551514 10.8125 2.5 C9.84957031 2.5928125 8.88664063 2.685625 7.89453125 2.78125 C5.24812333 2.98124844 2.65239135 3.03879183 0 3 C0 2.01 0 1.02 0 0 Z " fill="#D2D3D5" transform="translate(0,49)"/>
<path d="M0 0 C0 0.99 0 1.98 0 3 C-4.01804691 3.84098656 -7.01803543 4.05404945 -11 3 C-11 2.01 -11 1.02 -11 0 C-7.18243176 -1.37432457 -3.92744671 -0.67975039 0 0 Z " fill="#86878A" transform="translate(132,43)"/>
<path d="M0 0 C3.96 0 7.92 0 12 0 C12 0.99 12 1.98 12 3 C8.04 3 4.08 3 0 3 C0 2.01 0 1.02 0 0 Z " fill="#D7D7D8" transform="translate(130,151)"/>
<path d="M0 0 C5.94 0 11.88 0 18 0 C18 0.66 18 1.32 18 2 C14.18483536 3.30062431 10.72438237 2.89369853 6.75 2.5625 C5.48671875 2.46066406 4.2234375 2.35882813 2.921875 2.25390625 C1.47554688 2.12822266 1.47554688 2.12822266 0 2 C0 1.34 0 0.68 0 0 Z " fill="#D0D2D8" transform="translate(440,134)"/>
<path d="M0 0 C6.93 0.33 13.86 0.66 21 1 C21 1.33 21 1.66 21 2 C10.605 2.495 10.605 2.495 0 3 C0 2.01 0 1.02 0 0 Z " fill="#C9C9CB" transform="translate(118,94)"/>
<path d="M0 0 C1.98 0 3.96 0 6 0 C6 1.98 6 3.96 6 6 C4.02 6 2.04 6 0 6 C0 4.02 0 2.04 0 0 Z " fill="#90959E" transform="translate(0,26)"/>
<path d="M0 0 C0.33 0.99 0.66 1.98 1 3 C-3.95 3 -8.9 3 -14 3 C-14 2.34 -14 1.68 -14 1 C-4.58997722 -0.14806378 -4.58997722 -0.14806378 0 0 Z " fill="#D2D3D4" transform="translate(180,122)"/>
<path d="M0 0 C6.27 0 12.54 0 19 0 C19 0.33 19 0.66 19 1 C15.37 1 11.74 1 8 1 C8 1.66 8 2.32 8 3 C5.36 3 2.72 3 0 3 C0 2.01 0 1.02 0 0 Z " fill="#E0E2E3" transform="translate(220,133)"/>
<path d="M0 0 C3.63 0 7.26 0 11 0 C11 0.99 11 1.98 11 3 C7.37 3 3.74 3 0 3 C0 2.01 0 1.02 0 0 Z " fill="#D5D5D6" transform="translate(311,88)"/>
<path d="M0 0 C4.51617599 -0.07654536 8.59085217 -0.10228696 13 1 C13 1.66 13 2.32 13 3 C8.71 3 4.42 3 0 3 C0 2.01 0 1.02 0 0 Z " fill="#959AA0" transform="translate(444,15)"/>
<path d="M0 0 C3.63 0 7.26 0 11 0 C11 0.99 11 1.98 11 3 C7.37 3 3.74 3 0 3 C0 2.01 0 1.02 0 0 Z " fill="#D1D2D3" transform="translate(107,100)"/>
<path d="M0 0 C0 0.99 0 1.98 0 3 C-4.95 3 -9.9 3 -15 3 C-15 2.34 -15 1.68 -15 1 C-9.91913204 0.15318867 -5.15171623 -0.09038099 0 0 Z " fill="#C8C8CA" transform="translate(296,139)"/>
<path d="M0 0 C2.64 0 5.28 0 8 0 C8 1.32 8 2.64 8 4 C5.36 4 2.72 4 0 4 C0 2.68 0 1.36 0 0 Z " fill="#F9FAFC" transform="translate(112,26)"/>
<path d="M0 0 C2.39884223 3.59826334 2.21133936 5.24059178 2.125 9.5 C2.10695312 10.6446875 2.08890625 11.789375 2.0703125 12.96875 C2.03550781 14.46921875 2.03550781 14.46921875 2 16 C2 16.99 2 17.98 2 19 C1.34 18.67 0.68 18.34 0 18 C0 12.06 0 6.12 0 0 Z " fill="#CED0D6" transform="translate(172,313)"/>
<path d="M0 0 C4.16138263 -0.08159574 7.9472484 0.01751476 12 1 C10 3 10 3 7.3984375 3.1953125 C6.40070313 3.17210937 5.40296875 3.14890625 4.375 3.125 C2.87066406 3.09792969 2.87066406 3.09792969 1.3359375 3.0703125 C0.56507813 3.04710937 -0.20578125 3.02390625 -1 3 C-0.67 2.01 -0.34 1.02 0 0 Z " fill="#CECFD0" transform="translate(246,151)"/>
<path d="M0 0 C3.5219721 -0.08004482 6.61981469 -0.04005702 10 1 C10 1.66 10 2.32 10 3 C6.52674819 4.1577506 3.63932552 4.06866652 0 4 C0 2.68 0 1.36 0 0 Z " fill="#D2D2D4" transform="translate(42,55)"/>
<path d="M0 0 C0 3.74435194 -1.02961182 4.72294339 -3.3125 7.625 C-3.92738281 8.42164063 -4.54226562 9.21828125 -5.17578125 10.0390625 C-7 12 -7 12 -10 13 C-8.48446596 9.52224821 -6.4226544 7.0442016 -3.875 4.25 C-3.15054688 3.45078125 -2.42609375 2.6515625 -1.6796875 1.828125 C-0.84824219 0.92320312 -0.84824219 0.92320312 0 0 Z " fill="#DBDDE1" transform="translate(134,368)"/>
<path d="M0 0 C0.99 0 1.98 0 3 0 C2.67 0.99 2.34 1.98 2 3 C1.85222064 4.69867188 1.75252934 6.40177489 1.68359375 8.10546875 C1.62075195 9.57983398 1.62075195 9.57983398 1.55664062 11.08398438 C1.51732422 12.10814453 1.47800781 13.13230469 1.4375 14.1875 C1.39431641 15.22326172 1.35113281 16.25902344 1.30664062 17.32617188 C1.20055634 19.8839819 1.09849854 22.44188845 1 25 C0.67 25 0.34 25 0 25 C0 16.75 0 8.5 0 0 Z " fill="#DADBDF" transform="translate(447,253)"/>
<path d="M0 0 C1.19882813 0.15275391 1.19882813 0.15275391 2.421875 0.30859375 C3.02515625 0.39238281 3.6284375 0.47617188 4.25 0.5625 C4.25 1.2225 4.25 1.8825 4.25 2.5625 C-0.04 2.5625 -4.33 2.5625 -8.75 2.5625 C-8.75 1.9025 -8.75 1.2425 -8.75 0.5625 C-5.62819599 -0.40411363 -3.22916205 -0.42738909 0 0 Z " fill="#D0D1D2" transform="translate(221.75,139.4375)"/>
<path d="M0 0 C1.22589844 0.01353516 1.22589844 0.01353516 2.4765625 0.02734375 C3.41628906 0.04474609 3.41628906 0.04474609 4.375 0.0625 C4.705 1.0525 5.035 2.0425 5.375 3.0625 C1.745 3.0625 -1.885 3.0625 -5.625 3.0625 C-5.955 2.4025 -6.285 1.7425 -6.625 1.0625 C-4.21954362 -0.14022819 -2.67503047 -0.03821472 0 0 Z " fill="#CFD0D1" transform="translate(150.625,138.9375)"/>
<path d="M0 0 C0 0.66 0 1.32 0 2 C-4.95 2 -9.9 2 -15 2 C-15 1.34 -15 0.68 -15 0 C-4.44191344 -1.33257403 -4.44191344 -1.33257403 0 0 Z " fill="#C9C9CA" transform="translate(125,140)"/>
<path d="M0 0 C3.3 0 6.6 0 10 0 C10 0.99 10 1.98 10 3 C6.7 3 3.4 3 0 3 C0 2.01 0 1.02 0 0 Z " fill="#D4D5D6" transform="translate(290,88)"/>
<path d="M0 0 C3.63 0 7.26 0 11 0 C11 0.99 11 1.98 11 3 C7.37 3 3.74 3 0 3 C0 2.01 0 1.02 0 0 Z " fill="#757679" transform="translate(109,43)"/>
<path d="M0 0 C1.65 0 3.3 0 5 0 C5 1.98 5 3.96 5 6 C3.35 6 1.7 6 0 6 C0 4.02 0 2.04 0 0 Z " fill="#A385D6" transform="translate(0,17)"/>
<path d="M0 0 C0.99 0.33 1.98 0.66 3 1 C2.67 1.66 2.34 2.32 2 3 C1.84777027 4.66565749 1.75082785 6.33656496 1.68359375 8.0078125 C1.64169922 8.99394531 1.59980469 9.98007812 1.55664062 10.99609375 C1.51732422 12.02863281 1.47800781 13.06117188 1.4375 14.125 C1.39431641 15.16527344 1.35113281 16.20554687 1.30664062 17.27734375 C1.2003712 19.85142528 1.09833417 22.42560508 1 25 C0.67 25 0.34 25 0 25 C0 16.75 0 8.5 0 0 Z " fill="#DADBDF" transform="translate(395,282)"/>
<path d="M0 0 C4.29 0 8.58 0 13 0 C13 0.66 13 1.32 13 2 C6.565 2.495 6.565 2.495 0 3 C0 2.01 0 1.02 0 0 Z " fill="#CCCDCE" transform="translate(164,117)"/>
<path d="M0 0 C2.00720923 0.28674418 4.0085944 0.61866701 6 1 C6 1.99 6 2.98 6 4 C4.02 4.33 2.04 4.66 0 5 C-0.5625 3.0625 -0.5625 3.0625 -1 1 C-0.67 0.67 -0.34 0.34 0 0 Z " fill="#AFB5BE" transform="translate(451,67)"/>
<path d="M0 0 C0.99 0.33 1.98 0.66 3 1 C2.67 1.66 2.34 2.32 2 3 C1.84824451 4.59262066 1.75099675 6.19064856 1.68359375 7.7890625 C1.64169922 8.73007812 1.59980469 9.67109375 1.55664062 10.640625 C1.51732422 11.62546875 1.47800781 12.6103125 1.4375 13.625 C1.39431641 14.61757813 1.35113281 15.61015625 1.30664062 16.6328125 C1.20038931 19.08839838 1.09835036 21.54408703 1 24 C0.67 24 0.34 24 0 24 C0 16.08 0 8.16 0 0 Z " fill="#DBDDE1" transform="translate(365,282)"/>
<path d="M0 0 C0 0.66 0 1.32 0 2 C-3.96 2 -7.92 2 -12 2 C-12 1.34 -12 0.68 -12 0 C-7.91556885 -1.53166168 -4.20544343 -0.63081652 0 0 Z " fill="#D2D2D3" transform="translate(292,152)"/>
<path d="M0 0 C0 0.66 0 1.32 0 2 C-4.29 2 -8.58 2 -13 2 C-13 1.34 -13 0.68 -13 0 C-8.37078475 -1.0161692 -4.65537393 -0.83796731 0 0 Z " fill="#CBCCCD" transform="translate(123,146)"/>
<path d="M0 0 C4.62 0 9.24 0 14 0 C13.01 1.485 13.01 1.485 12 3 C8.04 2.67 4.08 2.34 0 2 C0 1.34 0 0.68 0 0 Z " fill="#C4C5C6" transform="translate(156,111)"/>
<path d="M0 0 C2.97 0 5.94 0 9 0 C9 0.99 9 1.98 9 3 C5.7 3 2.4 3 -1 3 C-0.67 2.01 -0.34 1.02 0 0 Z " fill="#D2D2D3" transform="translate(267,94)"/>
<path d="M0 0 C1.21236328 0.01353516 1.21236328 0.01353516 2.44921875 0.02734375 C3.37154297 0.04474609 3.37154297 0.04474609 4.3125 0.0625 C4.3125 1.0525 4.3125 2.0425 4.3125 3.0625 C2.8754191 3.11672947 1.43774538 3.15539723 0 3.1875 C-0.80050781 3.21070312 -1.60101563 3.23390625 -2.42578125 3.2578125 C-4.6875 3.0625 -4.6875 3.0625 -7.6875 1.0625 C-4.80538698 0.10179566 -2.98899956 -0.04331883 0 0 Z " fill="#94989E" transform="translate(164.6875,70.9375)"/>
<path d="M0 0 C0.99 0.33 1.98 0.66 3 1 C2.67 1.66 2.34 2.32 2 3 C1.84876169 4.5195764 1.75118307 6.04472502 1.68359375 7.5703125 C1.64169922 8.46621094 1.59980469 9.36210937 1.55664062 10.28515625 C1.51732422 11.22230469 1.47800781 12.15945313 1.4375 13.125 C1.39431641 14.06988281 1.35113281 15.01476562 1.30664062 15.98828125 C1.20040928 18.32537092 1.09836824 20.6625683 1 23 C0.67 23 0.34 23 0 23 C0 15.41 0 7.82 0 0 Z " fill="#D9DADE" transform="translate(187,282)"/>
<path d="M0 0 C3.96 0.33 7.92 0.66 12 1 C12 1.66 12 2.32 12 3 C8.04 3 4.08 3 0 3 C0 2.01 0 1.02 0 0 Z " fill="#C7C8C9" transform="translate(116,116)"/>
<path d="M0 0 C2.97 0 5.94 0 9 0 C9 0.99 9 1.98 9 3 C5.7 3 2.4 3 -1 3 C-0.67 2.01 -0.34 1.02 0 0 Z " fill="#D0D1D2" transform="translate(202,94)"/>
<path d="M0 0 C4.29 0 8.58 0 13 0 C13 0.99 13 1.98 13 3 C8.71 2.67 4.42 2.34 0 2 C0 1.34 0 0.68 0 0 Z " fill="#D0D2D3" transform="translate(250,82)"/>
<path d="M0 0 C3.63 0 7.26 0 11 0 C10.67 0.99 10.34 1.98 10 3 C6.37 3 2.74 3 -1 3 C-0.67 2.01 -0.34 1.02 0 0 Z " fill="#CBCBCC" transform="translate(148,82)"/>
<path d="M0 0 C0 1.32 0 2.64 0 4 C-2.64 4 -5.28 4 -8 4 C-8.33 3.01 -8.66 2.02 -9 1 C-5.8035914 -0.06546953 -3.34252724 -0.07427838 0 0 Z " fill="#8F9399" transform="translate(137,70)"/>
<path d="M0 0 C0 0.66 0 1.32 0 2 C-3.63 2 -7.26 2 -11 2 C-11.33 1.34 -11.66 0.68 -12 0 C-7.74433453 -1.16063604 -4.3164922 -0.76173392 0 0 Z " fill="#B9BDC4" transform="translate(143,56)"/>
<path d="M0 0 C2.64 0 5.28 0 8 0 C8.33 0.99 8.66 1.98 9 3 C6.03 3 3.06 3 0 3 C0 2.01 0 1.02 0 0 Z " fill="#D8D8D9" transform="translate(270,151)"/>
<path d="M0 0 C2.64 0 5.28 0 8 0 C8 0.99 8 1.98 8 3 C5.03 3 2.06 3 -1 3 C-0.67 2.01 -0.34 1.02 0 0 Z " fill="#D0D1D2" transform="translate(213,94)"/>
<path d="M0 0 C1.65 0.33 3.3 0.66 5 1 C4.67 2.32 4.34 3.64 4 5 C2.35 4.67 0.7 4.34 -1 4 C-0.67 2.68 -0.34 1.36 0 0 Z " fill="#D1D5D8" transform="translate(223,54)"/>
<path d="M0 0 C2.31 0 4.62 0 7 0 C6.67 1.32 6.34 2.64 6 4 C4.68 4 3.36 4 2 4 C2 4.66 2 5.32 2 6 C1.34 6 0.68 6 0 6 C0 4.02 0 2.04 0 0 Z " fill="#5A5B5D" transform="translate(426,28)"/>
<path d="M0 0 C1.32 0.66 2.64 1.32 4 2 C3.34 3.65 2.68 5.3 2 7 C1.01 7 0.02 7 -1 7 C-1.04254356 5.00045254 -1.04080783 2.99958364 -1 1 C-0.67 0.67 -0.34 0.34 0 0 Z " fill="#DBDDE1" transform="translate(495,443)"/>
<path d="M0 0 C2.97 0 5.94 0 9 0 C9 0.99 9 1.98 9 3 C6.03 3 3.06 3 0 3 C0 2.01 0 1.02 0 0 Z " fill="#D2D3D4" transform="translate(192,151)"/>
<path d="M0 0 C0 0.99 0 1.98 0 3 C-3.3 3 -6.6 3 -10 3 C-10 2.34 -10 1.68 -10 1 C-6.59437148 0.22157062 -3.49234244 -0.09978121 0 0 Z " fill="#C6C6C8" transform="translate(195,110)"/>
<path d="M0 0 C0.80824219 0.10183594 1.61648437 0.20367187 2.44921875 0.30859375 C3.06410156 0.39238281 3.67898437 0.47617188 4.3125 0.5625 C2.3125 2.5625 2.3125 2.5625 -0.0703125 2.7578125 C-0.97523438 2.73460938 -1.88015625 2.71140625 -2.8125 2.6875 C-4.17761719 2.66042969 -4.17761719 2.66042969 -5.5703125 2.6328125 C-6.26898438 2.60960938 -6.96765625 2.58640625 -7.6875 2.5625 C-7.6875 1.9025 -7.6875 1.2425 -7.6875 0.5625 C-4.59271121 -0.46909626 -3.16118607 -0.41232862 0 0 Z " fill="#C6C7C8" transform="translate(178.6875,110.4375)"/>
<path d="M0 0 C1.8871875 0.0309375 1.8871875 0.0309375 3.8125 0.0625 C3.4825 1.0525 3.1525 2.0425 2.8125 3.0625 C-0.4875 3.0625 -3.7875 3.0625 -7.1875 3.0625 C-7.1875 2.4025 -7.1875 1.7425 -7.1875 1.0625 C-4.43671116 0.14557039 -2.82801087 -0.04636083 0 0 Z " fill="#D0D2D3" transform="translate(230.1875,93.9375)"/>
<path d="M0 0 C3.96 0.33 7.92 0.66 12 1 C11.67 1.66 11.34 2.32 11 3 C7.37 3 3.74 3 0 3 C0 2.01 0 1.02 0 0 Z " fill="#8974B7" transform="translate(440,54)"/>
<path d="M0 0 C-0.33 0.99 -0.66 1.98 -1 3 C-4.3 3 -7.6 3 -11 3 C-11 2.34 -11 1.68 -11 1 C-7.32589215 -0.17571451 -3.83070817 -0.07366746 0 0 Z " fill="#D4D4D5" transform="translate(312,151)"/>
<path d="M0 0 C0.33 0.99 0.66 1.98 1 3 C-2.3 3 -5.6 3 -9 3 C-9.33 2.34 -9.66 1.68 -10 1 C-6.61981469 -0.04005702 -3.5219721 -0.08004482 0 0 Z " fill="#D1D1D3" transform="translate(164,145)"/>
<path d="M0 0 C0 0.99 0 1.98 0 3 C-3.63 3 -7.26 3 -11 3 C-6.577168 -0.317124 -5.28089024 -0.30466674 0 0 Z " fill="#D4D6D7" transform="translate(256,94)"/>
<path d="M0 0 C1.65 0 3.3 0 5 0 C5 0.66 5 1.32 5 2 C6.32 2.66 7.64 3.32 9 4 C5.7 4 2.4 4 -1 4 C-0.67 2.68 -0.34 1.36 0 0 Z " fill="#91959B" transform="translate(106,70)"/>
<path d="M0 0 C4.29 0 8.58 0 13 0 C13 0.99 13 1.98 13 3 C10.69 3 8.38 3 6 3 C6 2.34 6 1.68 6 1 C4.02 1 2.04 1 0 1 C0 0.67 0 0.34 0 0 Z " fill="#C7CBD2" transform="translate(153,55)"/>
<path d="M0 0 C0 0.66 0 1.32 0 2 C-3.96 2 -7.92 2 -12 2 C-12 1.34 -12 0.68 -12 0 C-7.66726186 -0.92844389 -4.33273814 -0.92844389 0 0 Z " fill="#C5C5C8" transform="translate(70,56)"/>
<path d="M0 0 C1.77074917 -0.02705729 3.54161711 -0.04642195 5.3125 -0.0625 C6.29863281 -0.07410156 7.28476562 -0.08570312 8.30078125 -0.09765625 C11 0 11 0 14 1 C14 1.66 14 2.32 14 3 C12.02 3 10.04 3 8 3 C8 2.34 8 1.68 8 1 C5.69 1.33 3.38 1.66 1 2 C0.67 1.34 0.34 0.68 0 0 Z " fill="#D5D5D8" transform="translate(23,27)"/>
<path d="M0 0 C2.475 0.99 2.475 0.99 5 2 C5 3.32 5 4.64 5 6 C3.35 6 1.7 6 0 6 C0 4.02 0 2.04 0 0 Z " fill="#E1EEF4" transform="translate(105,24)"/>
<path d="M0 0 C0 0.99 0 1.98 0 3 C-3.3 3 -6.6 3 -10 3 C-10 2.34 -10 1.68 -10 1 C-3.375 0 -3.375 0 0 0 Z " fill="#D0D1D2" transform="translate(250,116)"/>
<path d="M0 0 C2.64 0 5.28 0 8 0 C7.67 0.99 7.34 1.98 7 3 C4.69 3 2.38 3 0 3 C0 2.01 0 1.02 0 0 Z " fill="#D5D6D7" transform="translate(280,88)"/>
<path d="M0 0 C3.3 0 6.6 0 10 0 C10 0.66 10 1.32 10 2 C6.7 2.33 3.4 2.66 0 3 C0 2.01 0 1.02 0 0 Z " fill="#CECFD0" transform="translate(302,82)"/>
<path d="M0 0 C1.98 0 3.96 0 6 0 C6 1.32 6 2.64 6 4 C4.35 4 2.7 4 1 4 C0.67 2.68 0.34 1.36 0 0 Z " fill="#C1764F" transform="translate(35,82)"/>
<path d="M0 0 C0 0.66 0 1.32 0 2 C-3.3 2 -6.6 2 -10 2 C-10 1.34 -10 0.68 -10 0 C-6.30581799 -1.231394 -3.7943739 -0.64432764 0 0 Z " fill="#CBCBCD" transform="translate(157,95)"/>
<path d="M0 0 C0 0.66 0 1.32 0 2 C-2.97 2 -5.94 2 -9 2 C-9 1.34 -9 0.68 -9 0 C-5.93109813 -1.53445094 -3.29905734 -0.54984289 0 0 Z " fill="#CFCFD1" transform="translate(116,95)"/>
<path d="M0 0 C2.31 0 4.62 0 7 0 C7.33 0.99 7.66 1.98 8 3 C5.36 3 2.72 3 0 3 C0 2.01 0 1.02 0 0 Z " fill="#D1D2D3" transform="translate(254,145)"/>
<path d="M0 0 C0 0.99 0 1.98 0 3 C-2.97 3 -5.94 3 -9 3 C-9 2.34 -9 1.68 -9 1 C-5.94152152 0.45627049 -3.11227195 0 0 0 Z " fill="#CECED0" transform="translate(271,139)"/>
<path d="M0 0 C3.3 0.33 6.6 0.66 10 1 C10 1.66 10 2.32 10 3 C6.7 3 3.4 3 0 3 C0 2.01 0 1.02 0 0 Z " fill="#C4C5C6" transform="translate(144,110)"/>
<path d="M0 0 C3.375 -0.1875 3.375 -0.1875 7 0 C7.66 0.99 8.32 1.98 9 3 C6.03 3 3.06 3 0 3 C0 2.01 0 1.02 0 0 Z " fill="#D5D6D7" transform="translate(160,94)"/>
<path d="M0 0 C0 0.66 0 1.32 0 2 C-2.97 2 -5.94 2 -9 2 C-9 1.34 -9 0.68 -9 0 C-5.52176885 -1.15941038 -3.54104422 -0.70820884 0 0 Z " fill="#979CA2" transform="translate(400,94)"/>
<path d="M0 0 C2.97 0.33 5.94 0.66 9 1 C9 1.66 9 2.32 9 3 C6.03 3 3.06 3 0 3 C0 2.01 0 1.02 0 0 Z " fill="#92979E" transform="translate(381,93)"/>
<path d="M0 0 C2.97 0 5.94 0 9 0 C9 0.66 9 1.32 9 2 C6.36 2.33 3.72 2.66 1 3 C0.67 2.01 0.34 1.02 0 0 Z " fill="#CCCDCE" transform="translate(301,88)"/>
<path d="M0 0 C2.97 0 5.94 0 9 0 C9 0.99 9 1.98 9 3 C6.03 2.67 3.06 2.34 0 2 C0 1.34 0 0.68 0 0 Z " fill="#CDCED0" transform="translate(247,88)"/>
<path d="M0 0 C0 0.99 0 1.98 0 3 C-2.64 3 -5.28 3 -8 3 C-8 2.34 -8 1.68 -8 1 C-5.10765685 0.17361624 -3.11257569 0 0 0 Z " fill="#CACBCC" transform="translate(289,133)"/>
<path d="M0 0 C2.97 0.33 5.94 0.66 9 1 C8.67 1.99 8.34 2.98 8 4 C5.36 3.67 2.72 3.34 0 3 C0 2.01 0 1.02 0 0 Z " fill="#C9C9CA" transform="translate(280,122)"/>
<path d="M0 0 C2.64 0.33 5.28 0.66 8 1 C8 1.66 8 2.32 8 3 C5.36 3 2.72 3 0 3 C0 2.01 0 1.02 0 0 Z " fill="#CFD0D1" transform="translate(230,116)"/>
<path d="M0 0 C2.97 0 5.94 0 9 0 C8.01 0.33 7.02 0.66 6 1 C6 1.66 6 2.32 6 3 C4.02 3 2.04 3 0 3 C0 2.01 0 1.02 0 0 Z " fill="#D6D8D9" transform="translate(209,110)"/>
<path d="M0 0 C5.94 0.99 5.94 0.99 12 2 C12 2.33 12 2.66 12 3 C8.04 3 4.08 3 0 3 C0 2.01 0 1.02 0 0 Z " fill="#DEDEDF" transform="translate(183,82)"/>
<path d="M0 0 C0.66 0.33 1.32 0.66 2 1 C1.67 2.32 1.34 3.64 1 5 C2.32 5.33 3.64 5.66 5 6 C3.34385343 6.38218767 1.67542976 6.71395102 0 7 C-1 6 -1 6 -1.125 3.5 C-1 1 -1 1 0 0 Z " fill="#BCCDE5" transform="translate(104,25)"/>
<path d="M0 0 C1.32 0.33 2.64 0.66 4 1 C4 2.32 4 3.64 4 5 C2.68 5 1.36 5 0 5 C0 3.35 0 1.7 0 0 Z " fill="#C7C9CC" transform="translate(8,252)"/>
<path d="M0 0 C2.64 0.33 5.28 0.66 8 1 C8 1.66 8 2.32 8 3 C5.36 3 2.72 3 0 3 C0 2.01 0 1.02 0 0 Z " fill="#C9CACB" transform="translate(186,145)"/>
<path d="M0 0 C2.31 0.33 4.62 0.66 7 1 C7 1.66 7 2.32 7 3 C4.69 3 2.38 3 0 3 C0 2.01 0 1.02 0 0 Z " fill="#C9C9CA" transform="translate(133,139)"/>
<path d="M0 0 C0 0.99 0 1.98 0 3 C-2.97 3 -5.94 3 -9 3 C-9 2.34 -9 1.68 -9 1 C-2.25 0 -2.25 0 0 0 Z " fill="#C5C6C7" transform="translate(221,122)"/>
<path d="M0 0 C2.64 0.33 5.28 0.66 8 1 C8 1.66 8 2.32 8 3 C5.36 3 2.72 3 0 3 C0 2.01 0 1.02 0 0 Z " fill="#CECECF" transform="translate(116,110)"/>
<path d="M0 0 C0 0.66 0 1.32 0 2 C-3.3 2.33 -6.6 2.66 -10 3 C-5.78492722 -0.16130459 -4.93928888 -0.3367697 0 0 Z " fill="#D5D5D6" transform="translate(127,82)"/>
<path d="M0 0 C0 0.99 0 1.98 0 3 C-2.64 3 -5.28 3 -8 3 C-8 2.34 -8 1.68 -8 1 C-5.23735711 0.40267181 -2.83967231 0 0 0 Z " fill="#856FB3" transform="translate(438,54)"/>
<path d="M0 0 C2.64 0.33 5.28 0.66 8 1 C6 3 6 3 2.375 3.125 C1.26125 3.08375 0.1475 3.0425 -1 3 C-0.67 2.01 -0.34 1.02 0 0 Z " fill="#CDCECF" transform="translate(244,145)"/>
<path d="M0 0 C2.31 0.33 4.62 0.66 7 1 C7 1.66 7 2.32 7 3 C4.36 3 1.72 3 -1 3 C-0.67 2.01 -0.34 1.02 0 0 Z " fill="#D1D2D3" transform="translate(138,145)"/>
<path d="M0 0 C2.64 0 5.28 0 8 0 C7.67 0.99 7.34 1.98 7 3 C4.69 2.67 2.38 2.34 0 2 C0 1.34 0 0.68 0 0 Z " fill="#D1D1D2" transform="translate(296,134)"/>
<path d="M0 0 C1.65 0 3.3 0 5 0 C4.67 0.99 4.34 1.98 4 3 C0.7 3 -2.6 3 -6 3 C-6 2.67 -6 2.34 -6 2 C-4.02 1.67 -2.04 1.34 0 1 C0 0.67 0 0.34 0 0 Z " fill="#DCDEE1" transform="translate(455,108)"/>
<path d="M0 0 C1.65 0 3.3 0 5 0 C4.67 1.32 4.34 2.64 4 4 C2.68 3.67 1.36 3.34 0 3 C0 2.01 0 1.02 0 0 Z " fill="#80A0DD" transform="translate(104,55)"/>
<path d="M0 0 C0.66 0 1.32 0 2 0 C2 0.66 2 1.32 2 2 C2.66 2 3.32 2 4 2 C4 1.34 4 0.68 4 0 C4.99 0.33 5.98 0.66 7 1 C7 1.66 7 2.32 7 3 C4.36 3 1.72 3 -1 3 C-0.67 2.01 -0.34 1.02 0 0 Z " fill="#BDC0C4" transform="translate(195,55)"/>
<path d="M0 0 C0.66 0.66 1.32 1.32 2 2 C-1.465 4.97 -1.465 4.97 -5 8 C-3.47524303 4.95048605 -2.07114674 2.63600494 0 0 Z " fill="#E2E4E8" transform="translate(45,361)"/>
<path d="M0 0 C0.66 0 1.32 0 2 0 C1.60196439 2.88575819 1.20990931 3.82189513 -1.0625 5.75 C-1.701875 6.1625 -2.34125 6.575 -3 7 C-2.38722388 4.03824877 -1.74627478 2.61941217 0 0 Z " fill="#E0E1E6" transform="translate(64,330)"/>
<path d="M0 0 C1.98 0 3.96 0 6 0 C6 0.99 6 1.98 6 3 C4.02 3 2.04 3 0 3 C0 2.01 0 1.02 0 0 Z " fill="#D4D4D5" transform="translate(305,94)"/>
<path d="M0 0 C2.31 0 4.62 0 7 0 C7 0.66 7 1.32 7 2 C4.69 2.33 2.38 2.66 0 3 C0 2.01 0 1.02 0 0 Z " fill="#C6C7C9" transform="translate(35,92)"/>
<path d="M0 0 C2.31 0 4.62 0 7 0 C7 0.66 7 1.32 7 2 C5.02 2.33 3.04 2.66 1 3 C0.67 2.01 0.34 1.02 0 0 Z " fill="#CACBCC" transform="translate(126,88)"/>
<path d="M0 0 C0 0.99 0 1.98 0 3 C-2.31 3.33 -4.62 3.66 -7 4 C-7 3.01 -7 2.02 -7 1 C-3.535 0.505 -3.535 0.505 0 0 Z " fill="#7B8187" transform="translate(151,70)"/>
<path d="M0 0 C1.98 0.495 1.98 0.495 4 1 C4 1.99 4 2.98 4 4 C2.35 3.67 0.7 3.34 -1 3 C-0.67 2.01 -0.34 1.02 0 0 Z " fill="#BBC0C6" transform="translate(187,55)"/>
<path d="M0 0 C2.64 0.33 5.28 0.66 8 1 C6 3 6 3 2.875 3.125 C1.451875 3.063125 1.451875 3.063125 0 3 C0 2.01 0 1.02 0 0 Z " fill="#B2B6BD" transform="translate(231,55)"/>
<path d="M0 0 C1.32 0 2.64 0 4 0 C3.67 1.32 3.34 2.64 3 4 C3 3.34 3 2.68 3 2 C2.34 2 1.68 2 1 2 C1 2.99 1 3.98 1 5 C0.34 5 -0.32 5 -1 5 C-0.67 3.35 -0.34 1.7 0 0 Z " fill="#78797A" transform="translate(434,29)"/>
<path d="M0 0 C3.63 0 7.26 0 11 0 C11 0.33 11 0.66 11 1 C8.36 1 5.72 1 3 1 C3 1.66 3 2.32 3 3 C2.01 3 1.02 3 0 3 C0 2.01 0 1.02 0 0 Z " fill="#DEE0E3" transform="translate(11,27)"/>
</svg>
