<?xml version="1.0" standalone="no"?>
<!DOCTYPE svg PUBLIC "-//W3C//DTD SVG 20010904//EN"
 "http://www.w3.org/TR/2001/REC-SVG-20010904/DTD/svg10.dtd">
<svg version="1.0" xmlns="http://www.w3.org/2000/svg"
 width="1024.000000pt" height="1024.000000pt" viewBox="0 0 1024.000000 1024.000000"
 preserveAspectRatio="xMidYMid meet">

<g transform="translate(0.000000,1024.000000) scale(0.100000,-0.100000)"
fill="#000000" stroke="none">
<path d="M5027 9304 c-5 -5 -90 -9 -190 -9 -188 -1 -387 -17 -429 -35 -19 -9
-16 -10 17 -5 110 13 213 17 229 8 17 -10 -5 -14 -136 -28 -119 -13 -166 -19
-258 -37 -128 -24 -302 -67 -434 -108 -107 -33 -136 -37 -95 -15 43 23 171 63
354 110 94 24 161 44 150 44 -42 2 -442 -106 -484 -130 -9 -5 -68 -30 -131
-55 -226 -91 -256 -103 -360 -149 -222 -99 -267 -118 -340 -144 -91 -32 -160
-71 -220 -125 -25 -23 -70 -57 -100 -75 -30 -19 -80 -56 -111 -82 -62 -53
-149 -89 -216 -89 -34 0 -50 6 -75 30 -17 17 -38 30 -47 30 -11 0 -10 -4 7
-16 18 -12 20 -19 12 -35 -12 -21 -49 -26 -51 -6 -1 6 -5 -16 -10 -49 -12 -94
-43 -155 -112 -221 -190 -181 -362 -407 -474 -621 -25 -48 -66 -121 -91 -162
-48 -78 -153 -294 -192 -395 -13 -33 -45 -111 -72 -173 -26 -62 -59 -152 -74
-200 -14 -48 -37 -125 -51 -172 -14 -47 -31 -107 -38 -135 -7 -27 -26 -97 -43
-155 -39 -135 -48 -180 -72 -375 -11 -88 -31 -203 -45 -255 -14 -52 -30 -135
-35 -185 -13 -127 11 -541 45 -769 8 -55 15 -114 15 -131 0 -17 21 -89 46
-161 25 -71 56 -172 70 -224 35 -135 52 -185 89 -265 17 -38 42 -101 55 -140
23 -72 116 -268 193 -410 24 -44 71 -132 104 -195 33 -63 74 -135 92 -160 72
-102 160 -238 178 -275 21 -43 98 -185 205 -380 37 -66 71 -139 77 -161 6 -23
33 -75 60 -116 44 -66 55 -76 93 -87 79 -22 89 -21 288 24 21 5 37 -5 97 -64
39 -39 78 -71 85 -71 8 0 31 -9 53 -20 22 -11 43 -20 47 -20 13 0 177 -110
190 -128 7 -9 33 -30 58 -46 25 -16 56 -37 70 -46 14 -9 57 -27 95 -40 39 -12
106 -38 150 -57 167 -74 483 -206 545 -230 36 -13 87 -35 114 -49 46 -24 134
-47 436 -115 148 -33 93 -32 654 -14 107 4 124 2 165 -18 44 -21 56 -22 296
-19 262 3 326 11 475 57 41 13 122 33 180 45 208 41 394 100 484 152 56 34
212 113 307 157 37 16 98 37 137 46 54 13 83 26 128 62 33 25 77 54 99 65 250
127 487 312 574 448 47 74 107 140 168 181 54 38 71 52 195 164 49 44 114 94
144 111 91 51 171 137 312 339 71 100 201 314 260 425 30 58 66 122 79 142 12
21 23 40 23 43 0 2 14 27 31 55 17 27 46 96 66 152 19 56 43 118 53 138 10 19
21 55 25 80 4 25 16 77 26 115 11 39 26 111 35 160 31 183 45 241 74 303 35
74 45 130 61 342 13 176 7 762 -10 925 -16 154 -42 325 -56 380 -8 28 -19 91
-25 140 -7 54 -29 142 -56 221 -24 72 -44 139 -44 148 0 9 -8 36 -19 59 -28
64 -57 145 -76 212 -24 86 -67 181 -150 335 -41 75 -82 158 -93 186 -39 98
-226 399 -242 389 -9 -6 -90 91 -90 108 0 6 18 -16 41 -47 23 -32 43 -55 46
-52 5 5 -23 47 -123 181 -28 39 -106 127 -171 196 -143 151 -174 204 -166 283
10 94 -30 125 -110 87 -55 -27 -120 -38 -178 -31 -47 6 -87 31 -214 136 -75
62 -111 80 -128 66 -11 -9 -28 -5 -78 19 -52 26 -131 79 -117 79 3 0 47 -18
98 -40 51 -22 96 -40 99 -40 8 0 -142 83 -279 153 -58 30 -129 71 -158 90 -30
19 -72 45 -95 56 -91 46 -489 191 -617 226 -240 64 -324 85 -344 84 -11 0 17
-9 62 -20 46 -10 123 -30 170 -45 48 -14 110 -32 137 -39 61 -17 174 -67 130
-59 -16 3 -93 24 -170 46 -248 71 -427 109 -658 138 -48 6 -97 15 -110 21 -32
14 157 3 263 -16 90 -16 106 -18 99 -11 -23 24 -472 72 -567 61 -84 -10 -139
-10 -272 0 -58 4 -109 3 -113 -1z m69 -35 c8 -14 -30 -10 -51 4 -16 13 -15 14
14 9 17 -2 34 -8 37 -13z m134 11 c12 -7 8 -10 -15 -10 -16 0 -37 5 -45 10
-12 7 -8 10 15 10 17 0 37 -5 45 -10z m150 -70 c11 -7 -1 -10 -40 -10 -35 0
-50 -3 -41 -9 10 -6 4 -12 -23 -22 -20 -7 -36 -16 -36 -20 0 -11 -93 -56 -105
-52 -6 2 -25 -10 -43 -27 -18 -16 -44 -30 -57 -30 -13 0 -27 -4 -30 -10 -3 -5
-16 -15 -28 -21 -12 -6 19 29 69 77 115 112 156 134 249 134 39 0 77 -5 85
-10z m-314 -38 c-9 -9 -37 8 -31 18 5 8 11 7 21 -1 8 -6 12 -14 10 -17z m1581
-128 c-3 -3 -12 -4 -19 -1 -8 3 -5 6 6 6 11 1 17 -2 13 -5z m245 -102 c35 -16
78 -34 96 -41 32 -13 44 -31 20 -30 -7 0 -58 22 -113 49 -106 52 -109 69 -3
22z m-3473 -6 c-16 -14 -460 -226 -484 -231 -25 -6 -20 0 29 33 32 22 77 48
100 57 22 10 70 31 105 48 126 61 277 117 250 93z m2241 -105 c0 -5 8 -12 18
-14 9 -3 -4 -5 -30 -6 -49 -1 -75 14 -36 22 40 8 48 7 48 -2z m1462 -6 c0 -5
-5 -10 -11 -11 -8 -2 -7 -1 0 3 8 4 7 8 -2 15 -11 8 -11 9 -1 6 8 -2 14 -8 14
-13z m-1040 -16 c19 -4 -6 -5 -62 -1 -111 8 -167 7 -232 -3 -26 -4 -55 -4 -65
1 -49 22 272 25 359 3z m1143 -25 c36 -20 64 -38 61 -41 -6 -6 -146 60 -146
70 0 14 19 7 85 -29z m-1054 11 c19 6 21 5 12 -5 -14 -15 -67 -5 -57 11 4 8 9
7 14 -1 5 -8 16 -9 31 -5z m49 -5 c0 -5 -5 -10 -11 -10 -5 0 -7 5 -4 10 3 6 8
10 11 10 2 0 4 -4 4 -10z m-2160 -14 c0 -3 -32 -15 -71 -27 -56 -18 -77 -30
-105 -63 -30 -34 -34 -37 -25 -14 24 64 55 83 161 101 14 2 28 5 33 6 4 0 7
-1 7 -3z m3275 -46 c3 -5 2 -10 -4 -10 -5 0 -13 5 -16 10 -3 6 -2 10 4 10 5 0
13 -4 16 -10z m-3484 -117 c-8 -15 -10 -15 -11 -2 0 17 10 32 18 25 2 -3 -1
-13 -7 -23z m3719 -17 c0 -3 -4 -8 -10 -11 -5 -3 -10 -1 -10 4 0 6 5 11 10 11
6 0 10 -2 10 -4z m-2460 -14 c0 -10 -41 -35 -48 -28 -3 3 0 6 7 6 7 0 9 5 5
12 -4 7 -3 8 4 4 7 -4 12 -2 12 3 0 6 5 11 10 11 6 0 10 -3 10 -8z m140 -32
c30 -22 69 -49 85 -60 17 -12 24 -20 15 -20 -8 -1 -2 -8 13 -16 16 -9 81 -22
145 -29 118 -14 205 -32 387 -81 128 -34 145 -43 73 -41 -31 1 -54 6 -50 11 3
5 -2 7 -11 3 -9 -3 -76 7 -149 24 -73 16 -160 34 -193 40 -33 6 -64 14 -69 20
-6 5 -20 9 -33 9 -12 0 -40 6 -60 14 -21 8 -47 17 -58 22 -11 4 -35 8 -53 9
-19 1 -38 8 -43 16 -7 11 -9 11 -9 -3 0 -10 -6 -18 -14 -18 -8 0 -22 -3 -32
-7 -11 -4 -15 -3 -11 4 4 6 0 14 -9 17 -23 9 -76 7 -70 -2 3 -5 -12 -9 -33
-10 -21 -1 -58 -9 -82 -18 -24 -9 -69 -20 -99 -25 -273 -43 -539 -99 -650
-136 -83 -28 -412 -154 -560 -215 -84 -34 88 70 197 120 153 69 552 196 698
222 263 46 278 50 349 91 38 21 76 39 85 39 9 0 23 6 30 13 11 10 12 8 6 -12
-9 -30 -36 -61 -53 -61 -16 0 -75 -30 -70 -36 6 -6 90 27 109 43 8 7 23 13 32
13 9 0 18 4 22 9 3 6 22 8 43 5 76 -10 77 -10 76 9 -2 22 1 22 24 -3 11 -11
29 -22 41 -25 17 -3 19 -1 11 13 -13 24 -53 60 -86 77 -16 8 -22 15 -14 15 8
0 40 -18 70 -40z m98 0 c37 -11 126 -26 197 -34 122 -14 193 -28 456 -90 128
-31 295 -98 534 -216 99 -49 203 -96 231 -105 58 -18 190 -107 186 -125 -1 -6
2 -9 8 -5 8 5 100 -51 100 -61 0 -10 -50 4 -64 19 -10 9 -21 17 -24 17 -4 0
-18 10 -32 23 -14 12 -43 30 -64 40 -25 12 -35 21 -28 26 7 4 0 14 -21 26
l-32 18 19 -21 c11 -12 17 -22 15 -22 -3 0 -57 23 -119 51 -212 94 -274 120
-410 174 -149 59 -313 113 -435 144 -86 22 -339 61 -394 61 -55 0 -107 20
-156 61 -26 22 -44 39 -40 39 4 0 37 -9 73 -20z m-388 -15 c0 -10 -113 -37
-270 -64 -91 -16 -216 -41 -279 -55 -62 -14 -124 -26 -136 -26 -23 0 -77 -19
-165 -58 -14 -7 -81 -34 -150 -61 -69 -27 -186 -74 -260 -105 -74 -30 -148
-58 -165 -61 l-30 -7 30 26 c61 51 308 153 710 291 146 50 292 81 510 110 103
13 205 18 205 10z m110 -19 c0 -3 -4 -8 -10 -11 -5 -3 -10 -1 -10 4 0 6 5 11
10 11 6 0 10 -2 10 -4z m3078 -111 c-2 -16 -7 -24 -15 -21 -20 8 -25 -12 -6
-23 10 -6 14 -10 8 -11 -18 0 -33 15 -36 35 -5 27 8 45 31 45 15 0 19 -6 18
-25z m-1048 -55 c-33 -42 -109 -100 -131 -100 -6 0 13 18 42 40 30 22 65 53
79 70 37 45 46 36 10 -10z m-3834 -87 c-7 -7 -26 7 -26 19 0 6 6 6 15 -2 9 -7
13 -15 11 -17z m3019 -53 c13 -6 15 -9 5 -9 -8 0 -22 4 -30 9 -18 12 -2 12 25
0z m71 -31 c8 -14 -10 -11 -32 6 -18 13 -18 14 4 8 12 -3 25 -9 28 -14z
m-2726 -143 c0 -2 -7 -7 -16 -10 -8 -3 -12 -2 -9 4 6 10 25 14 25 6z m-370
-81 c0 -8 -91 -67 -96 -62 -3 2 14 19 38 36 39 29 58 37 58 26z m-40 -70 c-45
-46 -64 -56 -54 -30 6 14 81 75 93 75 3 0 -15 -20 -39 -45z m3875 -3 c-3 -3
-11 0 -18 7 -9 10 -8 11 6 5 10 -3 15 -9 12 -12z m-1965 -134 c-35 -113 -65
-176 -169 -358 -39 -67 -68 -127 -64 -133 3 -6 1 -7 -4 -4 -6 4 -13 -2 -16
-13 -3 -11 -1 -18 4 -14 5 3 6 -2 3 -10 -3 -9 -10 -14 -14 -11 -8 5 -24 -25
-16 -32 2 -2 18 10 35 27 27 27 31 29 31 12 0 -22 -129 -287 -193 -397 -62
-106 -422 -648 -496 -747 -36 -48 -88 -120 -116 -159 -27 -40 -70 -100 -95
-134 -25 -34 -65 -90 -90 -125 -25 -34 -63 -86 -86 -114 -22 -28 -89 -116
-149 -196 -162 -216 -190 -248 -235 -261 l-39 -12 16 -31 c9 -17 30 -50 47
-72 75 -101 293 -402 359 -496 92 -132 170 -218 198 -218 9 0 19 -5 21 -12 7
-19 38 -1 33 19 -3 10 0 8 6 -5 7 -12 16 -22 22 -22 9 0 7 12 -8 55 -13 37 90
-129 150 -240 32 -60 72 -132 88 -160 66 -111 69 -118 53 -112 -10 4 -16 1
-16 -8 0 -21 -16 -18 -40 7 -16 18 -20 19 -20 5 0 -8 -5 -19 -12 -23 -7 -4 -8
-3 -4 4 5 8 2 10 -8 6 -9 -3 -13 -11 -9 -18 4 -6 33 -51 65 -100 32 -49 56
-91 53 -94 -3 -3 -7 -3 -8 -1 -2 2 -31 40 -65 84 -34 44 -75 96 -90 115 -16
19 -87 109 -158 200 -70 91 -148 190 -173 221 -26 30 -57 70 -71 89 -14 19
-56 70 -93 114 -61 73 -285 368 -460 607 l-68 92 54 56 c47 48 199 237 329
408 82 107 307 412 353 478 27 39 76 104 110 145 33 41 72 91 85 110 43 61
240 388 240 399 0 4 48 79 107 166 245 368 276 414 424 645 85 132 199 329
212 365 6 16 12 24 15 17 2 -6 -11 -58 -28 -114z m-1916 81 c-16 -17 -38 -35
-49 -41 -11 -5 -2 8 20 31 46 47 73 56 29 10z m692 -36 c-10 -10 -19 5 -10 18
6 11 8 11 12 0 2 -7 1 -15 -2 -18z m-2180 -21 c-17 -16 -18 -16 -5 5 7 12 15
20 18 17 3 -2 -3 -12 -13 -22z m4425 -58 c75 -22 270 -115 263 -125 -3 -5 0
-9 5 -9 6 0 11 -4 11 -10 0 -5 -20 0 -45 12 -25 12 -40 25 -35 28 5 3 -11 11
-35 18 -25 7 -45 16 -45 22 0 5 -7 6 -17 3 -11 -4 -14 -3 -9 5 5 8 2 10 -9 6
-8 -4 -26 1 -40 10 -13 9 -29 16 -34 16 -6 0 -25 9 -43 20 -40 24 -37 24 33 4z
m-4468 -9 c-3 -9 -8 -14 -10 -11 -3 3 -2 9 2 15 9 16 15 13 8 -4z m979 -75
c14 -13 14 -16 -3 -31 -21 -18 -69 -14 -69 6 0 7 8 16 17 19 15 6 15 8 3 17
-11 7 -9 9 11 6 14 -1 32 -9 41 -17z m-106 -35 c4 -8 17 -15 30 -15 33 0 30
-15 -7 -30 -35 -15 -49 -4 -49 38 0 25 18 30 26 7z m5144 -3 c-8 -3 -21 -12
-28 -21 -11 -15 -13 -14 -22 1 -6 10 -18 15 -28 12 -11 -4 -13 -3 -5 3 7 5 32
9 55 10 24 0 36 -2 28 -5z m-20 -103 c0 -57 24 -100 87 -155 35 -31 78 -77 95
-103 27 -40 28 -43 6 -23 -27 25 -48 31 -24 6 17 -17 21 -44 7 -44 -5 0 -26
23 -47 50 -21 28 -39 50 -41 50 -2 0 -3 -13 -3 -28 0 -16 24 -67 55 -120 30
-51 68 -125 85 -165 17 -39 38 -82 46 -95 8 -12 12 -27 9 -32 -3 -5 1 -12 9
-17 14 -8 16 -12 16 -34 0 -5 4 -7 10 -4 6 3 7 -1 4 -10 -8 -20 -7 -21 -84 84
-34 46 -67 98 -72 115 -6 17 -28 54 -48 81 -72 95 -99 151 -114 237 -20 113
-29 205 -21 217 11 18 25 12 25 -10z m-5000 -27 c0 -4 -8 -30 -18 -57 -10 -28
-20 -74 -21 -103 -1 -49 -8 -62 -82 -168 -44 -63 -100 -154 -125 -202 -25 -47
-48 -89 -53 -92 -12 -9 -99 -119 -104 -132 -2 -7 -7 -10 -11 -6 -4 3 0 20 9
38 9 17 14 37 12 43 -2 7 -10 1 -16 -14 -15 -31 -54 -59 -44 -31 4 9 9 19 13
22 3 3 16 25 28 50 31 62 162 238 162 217 0 -9 -3 -17 -7 -17 -5 0 -16 -14
-25 -30 -28 -49 -6 -33 39 29 52 71 69 108 30 67 -35 -38 -34 -28 3 28 17 25
35 59 41 75 6 17 15 31 21 31 6 0 8 7 4 15 -3 8 -1 25 4 37 5 13 9 19 9 14 1
-5 11 3 22 18 12 15 19 30 16 33 -9 9 -27 -7 -27 -24 0 -9 -3 -14 -6 -10 -11
11 -104 -98 -179 -211 -42 -62 -94 -154 -116 -205 -55 -125 -123 -261 -149
-297 -20 -29 -117 -234 -167 -355 -13 -33 -32 -78 -42 -100 -10 -22 -26 -62
-35 -90 -30 -89 -64 -151 -52 -92 39 181 89 306 250 617 25 47 55 114 69 150
14 36 51 115 84 175 33 61 62 117 65 125 3 9 35 61 71 116 47 72 90 124 154
181 48 45 102 100 118 122 27 36 55 53 55 33z m2880 -242 c12 -16 19 -30 16
-30 -2 0 -14 14 -26 30 -12 17 -19 30 -16 30 2 0 14 -13 26 -30z m3334 -32
c-9 -14 -21 0 -27 29 l-5 27 18 -24 c10 -14 16 -28 14 -32z m-3130 -203 c70
-89 113 -156 205 -323 34 -62 72 -130 83 -150 70 -123 -94 120 -274 405 -48
76 -105 158 -128 183 -22 25 -45 54 -51 65 -15 29 91 -87 165 -180z m2117 153
c11 -21 11 -22 -4 -9 -10 7 -17 17 -17 22 0 15 9 10 21 -13z m79 -90 c6 -22
20 -50 31 -61 10 -11 19 -32 19 -46 -1 -26 -1 -25 -18 6 -9 18 -27 48 -40 68
-12 20 -18 33 -12 30 13 -8 13 11 -1 37 -8 14 -8 18 0 14 6 -4 15 -25 21 -48z
m-2318 -128 c52 -69 112 -152 134 -185 23 -33 60 -89 84 -125 24 -36 48 -68
54 -72 6 -4 8 -10 5 -13 -4 -3 -19 11 -35 32 -16 21 -37 47 -47 58 -10 11 -32
38 -49 60 -20 27 -28 33 -24 18 16 -51 -36 -4 -90 82 -46 73 -154 300 -130
274 2 -2 46 -60 98 -129z m-2673 63 c-8 -10 -27 -32 -42 -49 -42 -47 -81 -113
-152 -254 -35 -70 -72 -130 -82 -134 -13 -5 -14 -9 -5 -15 9 -5 -6 -46 -56
-152 -118 -248 -158 -362 -192 -559 -17 -96 -31 -185 -31 -197 1 -13 -4 -23
-10 -23 -6 0 -8 -9 -4 -21 4 -12 3 -24 -2 -28 -14 -9 -33 -124 -22 -136 5 -5
9 0 9 14 0 12 4 20 8 17 5 -3 5 -38 1 -78 -12 -112 -18 -218 -13 -218 3 0 28
17 57 38 29 21 130 87 225 146 95 59 195 126 222 147 28 22 50 36 50 31 0 -15
-95 -85 -326 -241 l-229 -153 9 -131 c7 -99 7 -132 -2 -135 -7 -2 -12 -13 -13
-25 -2 -35 -27 128 -37 238 -14 148 4 312 83 775 43 251 60 309 146 488 32 67
59 126 59 130 0 4 27 52 60 105 33 54 60 99 60 101 0 2 30 52 66 112 66 110
152 224 168 224 5 0 2 -8 -5 -17z m4495 -223 c37 -69 85 -163 108 -210 23 -47
45 -93 50 -103 5 -11 7 -21 5 -24 -7 -7 -47 48 -42 58 3 4 -3 13 -14 18 -20
11 -71 112 -122 239 -16 41 -38 91 -49 112 -11 22 -20 43 -20 47 0 16 22 -19
84 -137z m-4482 -82 c-172 -311 -249 -479 -343 -753 -26 -77 -48 -136 -48
-132 -4 47 112 393 177 532 109 231 284 537 299 521 3 -3 -35 -79 -85 -168z
m5196 -46 c56 -114 102 -210 102 -214 0 -4 11 -32 25 -62 14 -30 25 -59 25
-65 0 -5 15 -45 34 -88 49 -113 91 -262 77 -276 -14 -14 -13 -14 -39 59 -13
34 -19 70 -15 80 5 13 3 15 -8 9 -12 -8 -12 -6 0 8 7 9 11 18 7 18 -3 1 -11 2
-16 3 -6 0 -21 30 -34 66 -40 109 -72 191 -115 289 -23 52 -41 105 -41 117 0
14 -8 24 -21 27 -15 4 -19 11 -14 25 4 14 -1 25 -16 36 -15 10 -20 21 -16 35
3 12 1 19 -3 16 -5 -3 -14 3 -19 14 -14 25 -14 34 -1 26 17 -10 11 6 -7 24
-17 15 -27 61 -14 61 3 0 52 -93 109 -208z m-5971 36 c-3 -8 -6 -5 -6 6 -1 11
2 17 5 13 3 -3 4 -12 1 -19z m2946 8 c6 -14 224 -322 306 -432 25 -33 84 -114
131 -179 130 -180 215 -295 454 -615 122 -162 225 -300 229 -307 10 -16 -102
-162 -414 -538 -114 -137 -252 -317 -357 -465 -29 -41 -105 -147 -169 -235
-63 -88 -122 -173 -130 -190 -9 -16 -29 -49 -44 -72 -26 -38 -29 -50 -31 -135
l-2 -93 -5 95 c-6 92 -7 97 -53 168 -50 76 -56 88 -36 76 7 -4 8 -3 4 5 -4 6
-11 9 -16 6 -5 -3 -38 36 -74 87 -36 51 -86 121 -111 156 -25 34 -43 67 -40
73 4 5 1 8 -6 7 -7 -2 -37 31 -66 72 -30 41 -63 86 -73 100 -79 105 -432 574
-526 698 l-116 154 24 32 c12 18 64 90 113 160 184 260 575 806 684 956 62 85
139 195 172 244 82 123 129 186 139 186 4 0 10 -6 13 -14z m637 -16 c0 -5 -4
-10 -10 -10 -5 0 -10 5 -10 10 0 6 5 10 10 10 6 0 10 -4 10 -10z m-3573 -136
c-29 -65 -76 -158 -104 -205 -28 -48 -62 -117 -76 -155 -39 -107 -49 -127 -59
-112 -6 9 -8 7 -4 -7 3 -11 -2 -31 -10 -45 -9 -14 -13 -17 -10 -7 3 9 1 17 -5
17 -27 0 36 226 76 269 8 10 21 35 29 57 9 22 15 31 15 20 1 -28 11 -15 69 90
62 113 122 207 128 201 3 -2 -19 -58 -49 -123z m5847 64 c14 -24 26 -38 26
-33 0 6 5 3 10 -5 5 -8 7 -24 4 -34 -5 -14 -2 -18 9 -13 15 6 19 -2 104 -198
37 -85 50 -153 25 -133 -7 6 -11 17 -8 25 3 8 2 12 -3 8 -5 -3 -12 8 -16 24
-3 16 -13 35 -21 42 -8 6 -14 16 -14 23 0 15 -86 208 -122 273 -15 29 -28 54
-28 57 0 14 11 3 34 -36z m-1874 -43 c13 -14 21 -25 18 -25 -2 0 -15 11 -28
25 -13 14 -21 25 -18 25 2 0 15 -11 28 -25z m69 -88 c-2 -3 -15 10 -28 27
l-24 31 28 -27 c16 -15 27 -29 24 -31z m1141 -11 c0 -12 -5 -7 -19 24 -11 24
-11 24 3 6 9 -11 16 -24 16 -30z m-998 -150 c19 -36 -10 -7 -72 72 l-61 77 61
-65 c34 -36 66 -73 72 -84z m1046 52 c22 -46 52 -112 67 -148 15 -36 36 -83
46 -105 35 -77 129 -351 149 -433 36 -150 21 -192 -19 -55 -54 180 -74 242
-103 322 -24 67 -28 85 -17 92 11 6 10 9 -2 14 -9 3 -16 18 -16 36 0 17 -4 34
-10 37 -13 9 -29 47 -32 76 0 8 -7 21 -15 28 -17 18 -96 184 -96 204 0 26 9
14 48 -68z m-5909 -19 c-22 -88 -45 -141 -35 -81 8 44 47 174 52 169 2 -2 -6
-41 -17 -88z m554 60 c-4 -15 -9 -17 -17 -9 -8 8 -7 13 4 20 8 5 16 10 17 10
0 0 -1 -9 -4 -21z m3987 -114 c35 -40 63 -86 57 -91 -5 -6 -63 74 -95 131 -13
22 -15 29 -5 15 10 -13 29 -38 43 -55z m771 -78 l-23 -22 17 28 c10 15 20 25
23 22 3 -3 -5 -16 -17 -28z m-50 -70 c-10 -9 -11 -8 -5 6 3 10 9 15 12 12 3
-3 0 -11 -7 -18z m1534 -125 c2 -9 6 -26 10 -37 l7 -20 -14 20 c-9 11 -18 36
-22 55 -5 28 -5 31 4 17 6 -9 13 -25 15 -35z m529 13 c18 -28 11 -32 -18 -10
-10 7 -15 18 -11 24 9 15 11 14 29 -14z m-6987 -57 c-3 -7 -5 -2 -5 12 0 14 2
19 5 13 2 -7 2 -19 0 -25z m56 -8 c3 13 9 22 11 19 3 -3 -1 -41 -9 -85 -8 -43
-20 -116 -26 -162 -6 -46 -17 -102 -25 -125 -13 -40 -14 -40 -9 -7 12 75 15
156 6 130 -5 -14 -10 -43 -11 -65 -1 -22 -5 -49 -10 -60 -7 -18 -8 -19 -15 -2
-4 9 -3 30 3 45 6 15 13 50 17 77 3 28 15 88 26 134 11 46 18 97 15 115 l-6
31 13 -35 c13 -33 14 -33 20 -10z m4501 -16 c3 -8 2 -12 -4 -9 -6 3 -10 10
-10 16 0 14 7 11 14 -7z m1936 -34 c5 -19 6 -29 1 -24 -10 10 -26 72 -17 63 4
-4 11 -21 16 -39z m-1890 -50 c22 -43 25 -60 10 -60 -9 0 -29 39 -45 90 -11
35 12 15 35 -30z m-4664 -68 c-12 -11 -15 5 -8 44 l7 39 3 -39 c2 -21 1 -41
-2 -44z m1664 59 c0 -6 -12 -23 -26 -38 -24 -27 -25 -27 -13 -3 20 41 39 62
39 41z m3081 -178 c12 -31 3 -113 -12 -113 -5 0 -9 10 -9 21 0 12 -6 27 -14
33 -17 13 -23 70 -12 104 8 23 8 23 22 4 7 -11 19 -33 25 -49z m1286 45 c-3
-8 -6 -5 -6 6 -1 11 2 17 5 13 3 -3 4 -12 1 -19z m-4507 8 c0 -2 -37 -25 -82
-51 -106 -61 -106 -61 -88 -42 8 8 49 34 90 56 79 43 80 43 80 37z m-190 -111
c0 -2 -10 -9 -22 -15 -22 -11 -22 -10 -4 4 21 17 26 19 26 11z m4330 -141 c47
-38 90 -74 95 -80 6 -6 47 -41 93 -78 45 -38 82 -74 82 -82 0 -7 9 -18 21 -24
11 -7 18 -14 15 -17 -17 -17 -442 357 -461 406 -3 9 11 0 32 -20 21 -19 76
-67 123 -105z m-5630 90 c0 -8 -4 -12 -10 -9 -5 3 -10 10 -10 16 0 5 5 9 10 9
6 0 10 -7 10 -16z m3 -111 c-16 -101 -35 -167 -41 -140 -2 9 -8 17 -13 17 -6
0 -7 -5 -4 -10 3 -6 -2 -18 -11 -28 -17 -16 -17 -16 -11 8 4 14 7 31 7 39 0 8
3 11 7 8 14 -15 33 18 33 59 0 24 5 44 10 44 6 0 10 10 10 23 0 30 11 67 19
67 4 0 1 -39 -6 -87z m6043 31 c-4 -14 -3 -31 2 -37 12 -15 26 -321 15 -314
-4 3 -9 -18 -9 -46 -3 -126 -5 -142 -13 -129 -4 7 -5 30 -2 50 4 20 4 58 1 84
-4 26 -5 100 -4 165 2 71 -2 123 -8 130 -7 9 -7 13 1 13 14 0 14 35 0 61 -7
15 -7 24 2 35 17 21 22 17 15 -12z m-6072 -15 c-4 -6 -13 -35 -20 -63 l-13
-51 5 50 c7 63 11 75 24 75 6 0 8 -5 4 -11z m286 -79 c0 -5 -8 -10 -17 -10
-15 0 -16 2 -3 10 19 12 20 12 20 0z m-40 -30 c-8 -5 -19 -10 -25 -10 -5 0 -3
5 5 10 8 5 20 10 25 10 6 0 3 -5 -5 -10z m-370 -130 c-8 -5 -17 -7 -19 -4 -3
3 1 9 9 14 8 5 17 7 19 4 3 -3 -1 -9 -9 -14z m6125 -68 c-3 -3 -11 0 -18 7 -9
10 -8 11 6 5 10 -3 15 -9 12 -12z m-6047 -64 c12 -18 34 -46 51 -62 25 -24 28
-31 16 -43 -10 -10 -12 -28 -8 -65 5 -37 3 -49 -5 -44 -7 4 -12 23 -12 42 0
19 -4 34 -9 34 -5 0 -16 3 -25 6 -12 5 -16 0 -16 -17 0 -31 -12 -16 -16 21 -4
36 -21 70 -34 70 -13 0 -13 46 0 71 15 28 36 23 58 -13z m694 -18 l17 -30 -29
22 c-34 25 -46 48 -22 41 10 -2 25 -17 34 -33z m5328 26 c0 -3 -4 -8 -10 -11
-5 -3 -10 -1 -10 4 0 6 5 11 10 11 6 0 10 -2 10 -4z m-66 -64 c-20 -23 -40
-39 -45 -37 -4 3 -14 -3 -21 -13 -22 -31 -310 -285 -299 -263 6 11 18 24 26
28 8 5 62 55 119 112 67 65 109 100 117 95 7 -4 9 -3 5 4 -6 10 122 127 131
119 2 -3 -13 -23 -33 -45z m-927 11 c-5 -12 -14 -23 -19 -23 -4 0 -8 -5 -8
-11 0 -6 -49 -85 -110 -175 -60 -91 -110 -169 -110 -175 0 -6 -4 -8 -9 -5 -5
4 -37 -24 -70 -60 -67 -73 -78 -74 -30 -4 16 25 48 80 69 122 22 43 48 82 59
87 10 6 24 25 32 43 7 18 20 40 29 49 8 9 28 35 44 58 17 23 37 41 46 41 20 0
74 55 67 68 -4 5 0 9 7 9 11 0 12 -5 3 -24z m-57 -33 c0 -5 -5 -10 -11 -10 -5
0 -7 5 -4 10 3 6 8 10 11 10 2 0 4 -4 4 -10z m-5002 -115 c0 -24 -3 -19 -13
20 -17 65 -17 101 0 50 8 -22 13 -53 13 -70z m6731 1 c-9 -8 -10 -7 -5 7 3 10
7 26 7 35 1 9 4 6 6 -7 3 -13 -1 -28 -8 -35z m-6669 18 c0 -8 -5 -12 -10 -9
-6 4 -8 11 -5 16 9 14 15 11 15 -7z m864 -15 c-6 -11 -24 -2 -24 11 0 5 7 7
15 4 8 -4 12 -10 9 -15z m102 -73 c25 -19 41 -37 36 -40 -5 -3 -29 13 -53 34
-54 49 -44 52 17 6z m4568 -138 c-67 -107 -129 -183 -263 -318 -87 -88 -167
-160 -176 -160 -22 0 -18 5 110 140 49 52 143 153 208 223 109 117 140 147
121 115z m1069 -69 c-6 -6 -7 3 -4 23 4 28 6 29 9 9 2 -13 0 -27 -5 -32z
m-542 -62 c-5 -17 -15 -61 -21 -97 -25 -142 -151 -479 -247 -660 -79 -149
-244 -469 -262 -507 -8 -18 -19 -33 -23 -33 -24 0 -4 73 42 154 28 49 50 91
50 92 0 2 15 27 33 56 18 29 42 73 52 98 11 25 45 91 77 148 97 174 145 295
229 585 12 42 25 77 30 77 7 0 19 42 25 87 1 11 6 32 10 45 13 37 18 -5 5 -45z
m534 -19 c-14 -132 -113 -477 -115 -400 0 12 -5 22 -11 22 -5 0 -7 5 -4 10 4
6 11 7 17 4 7 -4 8 5 3 26 -6 28 -5 32 9 27 12 -5 16 0 16 16 0 13 4 27 9 33
6 5 15 70 21 144 7 74 16 142 21 150 7 13 8 13 9 0 1 -9 5 -6 10 8 16 39 22
24 15 -40z m-4302 -232 c-3 -4 -9 -2 -14 5 -13 22 -11 31 5 17 8 -7 12 -17 9
-22z m-3146 -8 c-3 -8 -6 -5 -6 6 -1 11 2 17 5 13 3 -3 4 -12 1 -19z m6589
-177 c-46 -116 -83 -195 -151 -320 -32 -57 -62 -129 -70 -167 -19 -78 -91
-238 -104 -230 -5 4 5 43 24 94 18 48 40 111 48 139 9 29 39 88 66 130 42 66
151 281 151 299 0 14 63 154 67 150 3 -3 -11 -46 -31 -95z m-6552 24 c3 -25 3
-33 -3 -20 -12 29 -22 93 -12 75 5 -8 11 -33 15 -55z m7341 -102 c-3 -14 -9
-23 -12 -19 -3 3 -12 -2 -20 -12 -13 -15 -13 -15 -4 5 6 12 11 31 11 42 0 20
22 35 28 19 2 -5 1 -20 -3 -35z m-43 -5 c-7 -7 -12 -8 -12 -2 0 14 12 26 19
19 2 -3 -1 -11 -7 -17z m944 -95 c-13 -43 -15 -45 -15 -17 -1 38 22 107 27 82
2 -9 -4 -38 -12 -65z m-6458 30 c7 -21 14 -44 14 -50 1 -7 5 -13 10 -13 5 0
13 -12 19 -27 5 -16 19 -45 30 -66 11 -21 16 -44 13 -50 -4 -7 -4 -9 1 -5 11
10 47 -71 38 -85 -4 -6 -1 -7 7 -2 9 6 10 2 5 -15 -4 -13 -3 -20 2 -17 5 3 9
-2 9 -11 1 -9 4 -26 8 -37 3 -11 -18 29 -48 90 -30 60 -52 113 -50 117 3 5 0
8 -6 8 -7 0 -10 6 -7 14 3 8 -1 17 -10 20 -9 4 -13 14 -10 26 3 10 1 20 -5 22
-5 2 -10 10 -12 18 -2 8 -10 32 -20 52 -18 42 -19 48 -8 48 4 0 13 -17 20 -37z
m-761 -15 c-3 -8 -6 -5 -6 6 -1 11 2 17 5 13 3 -3 4 -12 1 -19z m663 -141 c0
-7 6 -19 13 -27 10 -12 9 -12 -6 0 -10 7 -31 37 -45 64 -39 74 -39 76 1 23 21
-26 37 -53 37 -60z m5480 64 c-13 -25 -13 -34 0 -26 6 3 10 1 10 -5 0 -7 -6
-10 -12 -7 -8 2 -29 -30 -55 -82 -23 -47 -42 -79 -42 -71 -1 9 5 25 13 36 8
11 23 41 32 65 19 47 53 109 60 109 3 0 0 -9 -6 -19z m1057 -13 c-3 -8 -6 -5
-6 6 -1 11 2 17 5 13 3 -3 4 -12 1 -19z m-7047 -32 c10 -24 36 -73 58 -108 22
-34 66 -117 97 -183 31 -66 83 -174 115 -240 39 -79 55 -122 47 -127 -11 -7
-36 19 -37 37 0 6 5 3 10 -5 7 -10 10 -11 10 -2 0 7 -7 15 -15 18 -8 4 -15 11
-15 17 0 6 -18 48 -40 93 -22 46 -40 88 -40 94 0 6 -4 9 -9 6 -16 -10 -33 16
-147 229 -27 49 -41 88 -38 100 4 14 3 16 -4 7 -7 -10 -12 -6 -20 15 -19 53
-21 63 -12 63 6 0 10 -10 10 -22 0 -16 3 -19 11 -11 8 8 8 17 0 31 -12 23 -14
32 -6 32 3 0 14 -20 25 -44z m3684 8 c3 -8 2 -12 -4 -9 -6 3 -10 10 -10 16 0
14 7 11 14 -7z m-7 -32 c-8 -15 -20 -48 -23 -62 -1 -8 -14 -46 -28 -84 -15
-37 -40 -123 -56 -190 -34 -134 -58 -206 -71 -206 -5 0 -10 8 -10 18 -2 22 -2
23 7 56 l7 28 -27 -17 c-15 -10 -26 -13 -26 -6 0 32 210 482 222 475 4 -3 7
-8 5 -12z m-3747 -57 c0 -8 -5 -17 -12 -21 -7 -5 -9 -2 -5 8 3 9 0 21 -6 27
-9 9 -8 11 6 6 9 -4 17 -13 17 -20z m20 -76 c0 -6 -4 -7 -10 -4 -5 3 -10 11
-10 16 0 6 5 7 10 4 6 -3 10 -11 10 -16z m63 -111 c9 -31 2 -33 -11 -3 -6 14
-8 25 -3 25 5 0 11 -10 14 -22z m775 -23 c-3 -3 -9 2 -12 12 -6 14 -5 15 5 6
7 -7 10 -15 7 -18z m1592 -20 c0 -5 -5 -3 -10 5 -5 8 -10 20 -10 25 0 6 5 3
10 -5 5 -8 10 -19 10 -25z m-2325 -41 c15 -25 25 -47 22 -50 -2 -2 -16 18 -31
46 -34 63 -27 66 9 4z m770 21 c-8 35 -4 32 20 -15 16 -31 16 -33 2 -21 -14
11 -17 11 -17 0 0 -8 -9 0 -20 16 -27 40 -26 58 1 20 l21 -30 -7 30z m1605
-61 c12 -19 20 -37 18 -39 -2 -3 -15 13 -27 35 -28 50 -21 53 9 4z m52 -99 c9
-20 9 -20 -6 -1 -9 11 -16 27 -15 35 0 14 1 14 6 1 3 -8 10 -24 15 -35z m2559
18 c-8 -15 -10 -15 -11 -2 0 17 10 32 18 25 2 -3 -1 -13 -7 -23z m-4822 -24
c15 -44 14 -45 -14 -15 -14 15 -23 32 -20 37 11 17 23 9 34 -22z m4814 -34
c-7 -21 -13 -19 -13 6 0 11 4 18 10 14 5 -3 7 -12 3 -20z m-43 -15 c0 -5 -5
-10 -11 -10 -5 0 -7 5 -4 10 3 6 8 10 11 10 2 0 4 -4 4 -10z m60 -55 c7 -9 8
-15 2 -15 -5 0 -12 7 -16 15 -3 8 -4 15 -2 15 2 0 9 -7 16 -15z m-5850 -47
c11 -23 20 -44 20 -47 -1 -8 -50 73 -50 82 0 17 11 4 30 -35z m5691 22 c-8 -4
-21 -5 -30 -2 -12 5 -10 8 9 12 29 8 40 3 21 -10z m-3808 3 c-7 -2 -19 -2 -25
0 -7 3 -2 5 12 5 14 0 19 -2 13 -5z m5685 -18 c-6 -14 -13 -23 -15 -21 -5 5
15 46 22 46 3 0 -1 -11 -7 -25z m-5518 -67 c-2 -79 1 -99 17 -139 6 -14 11
-34 10 -43 -2 -19 181 -153 338 -248 44 -26 75 -48 69 -48 -5 0 -19 7 -30 15
-27 20 -54 20 -28 -1 34 -28 -108 52 -191 108 -139 92 -175 122 -171 140 2 10
-4 18 -16 21 -17 5 -19 14 -18 104 1 97 8 163 17 163 2 0 4 -33 3 -72z m3878
32 c22 -22 37 -40 34 -40 -9 0 -82 67 -82 74 0 11 7 6 48 -34z m-2664 -26 c3
-8 2 -12 -4 -9 -6 3 -10 10 -10 16 0 14 7 11 14 -7z m4250 -36 c-30 -59 -111
-185 -124 -193 -12 -8 7 26 62 110 25 39 53 85 62 103 9 17 19 32 21 32 3 0
-7 -24 -21 -52z m-7421 -82 c21 -39 30 -61 20 -48 -10 12 -35 55 -56 95 -21
39 -30 61 -20 48 10 -14 35 -56 56 -95z m3290 -83 c54 -89 97 -165 97 -169 0
-10 -37 48 -135 211 -68 115 -89 155 -67 130 5 -6 52 -83 105 -172z m3127 83
c0 -2 -8 -10 -17 -17 -16 -13 -17 -12 -4 4 13 16 21 21 21 13z m-5389 -50 c-2
-13 -7 -10 -36 18 l-30 29 33 -20 c19 -11 33 -23 33 -27z m5313 -14 c-16 -16
-31 -27 -33 -26 -2 2 -11 -1 -20 -8 -9 -6 -5 0 9 13 22 23 58 48 69 49 2 0 -9
-13 -25 -28z m-5231 -53 c30 -30 41 -45 26 -36 -41 24 -106 87 -91 87 8 0 37
-23 65 -51z m-1044 7 c-3 -3 -11 5 -18 17 -13 21 -12 21 5 5 10 -10 16 -20 13
-22z m5638 12 c-3 -8 -6 -5 -6 6 -1 11 2 17 5 13 3 -3 4 -12 1 -19z m1583 -36
c0 -5 -8 -17 -17 -28 -10 -10 -25 -32 -33 -49 -8 -16 -18 -32 -21 -35 -3 -3
-14 -22 -24 -42 -9 -21 -35 -57 -57 -80 -39 -42 -42 -37 -8 12 10 14 30 48 45
75 26 48 103 155 111 155 2 0 4 -4 4 -8z m-7140 -95 c0 -12 0 -11 -24 28 l-17
30 20 -24 c12 -13 21 -28 21 -34z m5487 47 c-3 -3 -12 -4 -19 -1 -8 3 -5 6 6
6 11 1 17 -2 13 -5z m100 -11 c0 -8 -11 -11 -29 -9 -45 5 -52 21 -9 21 23 0
38 -5 38 -12z m-497 -37 c0 -3 -15 -15 -32 -27 -29 -20 -31 -21 -18 -4 22 29
50 46 50 31z m-1810 -81 c14 -19 14 -19 -2 -6 -10 7 -18 18 -18 24 0 6 1 8 3
6 1 -2 9 -13 17 -24z m-1045 -73 c-3 -3 -11 0 -18 7 -9 10 -8 11 6 5 10 -3 15
-9 12 -12z m50 0 c-3 -3 -11 0 -18 7 -9 10 -8 11 6 5 10 -3 15 -9 12 -12z
m1035 8 c0 -5 -2 -10 -4 -10 -3 0 -8 5 -11 10 -3 6 -1 10 4 10 6 0 11 -4 11
-10z m-985 -30 c3 -6 -1 -7 -9 -4 -18 7 -21 14 -7 14 6 0 13 -4 16 -10z m65
-36 c0 -2 -9 0 -20 6 -11 6 -20 13 -20 16 0 2 9 0 20 -6 11 -6 20 -13 20 -16z
m1213 -94 c-65 -96 -90 -122 -61 -62 14 28 118 162 125 162 2 0 -27 -45 -64
-100z m1047 70 c-20 -13 1 -13 34 0 44 16 29 3 -35 -30 -34 -17 -58 -27 -55
-21 11 18 -15 23 -33 7 -10 -9 -22 -16 -27 -16 -12 0 -187 -70 -194 -77 -3 -3
11 -3 30 1 57 10 -96 -42 -215 -73 -217 -57 -414 -80 -660 -80 -161 0 -247 10
-253 28 -2 6 -8 11 -13 11 -6 0 -7 -4 -4 -10 3 -5 5 -10 3 -10 -28 1 -250 45
-302 60 -125 37 -311 103 -326 115 -8 7 -25 16 -38 20 -12 3 -20 11 -17 16 3
5 -1 6 -9 3 -9 -3 -16 -1 -16 5 0 7 -16 19 -35 27 -56 23 -40 26 18 3 434
-172 762 -239 1116 -226 337 12 633 80 936 216 85 39 128 52 95 31z m-1210
-115 c23 -38 44 -73 47 -77 2 -5 2 -8 0 -8 -3 0 -20 24 -37 53 -18 28 -46 71
-61 94 -16 23 -29 45 -29 48 0 12 35 -36 80 -110z m-2010 70 c19 -14 29 -25
23 -25 -7 0 -18 7 -27 15 -8 8 -22 15 -31 15 -9 0 -13 5 -10 10 8 13 6 14 45
-15z m4060 -50 c0 -6 -76 -45 -87 -45 -4 1 12 12 37 25 50 27 50 27 50 20z
m-1055 -25 c-3 -5 -12 -10 -18 -10 -7 0 -6 4 3 10 19 12 23 12 15 0z m-905
-64 c0 -3 -4 -8 -10 -11 -5 -3 -10 -1 -10 4 0 6 5 11 10 11 6 0 10 -2 10 -4z
m1735 -26 c-3 -5 -14 -10 -23 -10 -15 0 -15 2 -2 10 20 13 33 13 25 0z m-3379
-26 c22 -8 86 -39 144 -69 225 -114 310 -146 680 -259 63 -19 133 -38 155 -42
51 -9 99 -29 144 -60 20 -13 45 -24 56 -25 16 -1 15 -2 -5 -8 -86 -26 -881
220 -970 300 -29 26 -114 71 -127 67 -4 -2 -35 23 -67 55 -32 31 -56 57 -53
57 2 0 22 -7 43 -16z m3339 -4 c-11 -5 -16 -9 -10 -9 15 -1 -138 -91 -156 -91
-9 0 -24 -9 -34 -20 -10 -11 -25 -20 -33 -20 -8 0 -20 -6 -26 -13 -17 -20
-185 -88 -311 -126 -38 -11 -149 -45 -245 -76 -96 -30 -220 -64 -275 -76 -55
-11 -127 -27 -160 -35 -33 -7 -76 -13 -95 -13 -29 0 -19 6 60 36 82 30 417
135 620 194 36 10 85 26 110 35 58 22 382 164 395 173 13 10 45 21 45 16 0 -2
-17 -16 -37 -30 -21 -14 -32 -25 -26 -25 19 0 64 22 116 58 27 17 56 32 66 31
12 0 12 -2 -4 -9z m35 -57 c0 -4 -12 -18 -27 -30 l-28 -23 28 10 c16 6 38 15
50 21 49 24 -30 -31 -118 -82 -169 -98 -225 -127 -262 -139 -21 -6 -54 -17
-73 -25 -85 -33 -325 -106 -425 -129 -60 -14 -171 -41 -245 -61 -74 -19 -180
-42 -234 -51 -54 -9 -119 -22 -142 -29 -24 -7 -44 -11 -44 -8 0 7 103 50 140
58 75 15 245 58 269 67 47 19 135 37 178 38 23 0 79 13 125 29 46 16 124 42
173 56 50 15 131 49 180 75 50 26 131 65 180 86 50 21 128 61 175 90 87 53
100 59 100 47z m-4874 -18 c17 -17 10 -55 -10 -55 -21 0 -47 35 -40 54 8 20
31 21 50 1z m1678 -135 c80 -41 444 -189 482 -196 11 -2 68 -19 125 -38 l104
-33 -65 2 c-78 3 -92 6 -245 56 -66 22 -142 47 -170 56 -75 24 -207 92 -233
120 -13 15 -29 22 -38 19 -8 -3 -12 -2 -9 4 3 6 1 10 -4 10 -6 0 -20 9 -31 20
-31 31 -3 24 84 -20z m3256 -30 c8 -5 11 -10 5 -10 -5 0 -21 10 -35 21 -24 20
-5 13 30 -11z m-1793 -212 c-3 -8 -6 -5 -6 6 -1 11 2 17 5 13 3 -3 4 -12 1
-19z m-744 -46 c20 -2 37 -8 37 -12 0 -13 -72 1 -95 18 l-20 14 20 -7 c11 -5
37 -10 58 -13z m-1749 -72 c22 -17 33 -30 25 -30 -16 1 -90 59 -74 59 6 0 28
-13 49 -29z m2006 20 c11 -7 4 -9 -24 -6 -21 3 -41 7 -44 10 -10 10 52 6 68
-4z m357 -36 c-7 -7 -37 7 -37 17 0 6 9 5 21 -1 11 -7 19 -14 16 -16z m-1732
-352 c-3 -3 -11 0 -18 7 -9 10 -8 11 6 5 10 -3 15 -9 12 -12z m3315 -187 c0
-5 -68 -35 -79 -35 -8 1 61 39 72 40 4 0 7 -2 7 -5z m-1495 -16 c4 -5 19 -15
33 -21 20 -8 23 -12 11 -15 -9 -2 -29 7 -44 21 -16 15 -23 26 -17 26 6 0 14
-5 17 -11z m-39 -36 c-7 -7 -26 7 -26 19 0 6 6 6 15 -2 9 -7 13 -15 11 -17z
m-1181 -13 c3 -5 2 -10 -4 -10 -5 0 -13 5 -16 10 -3 6 -2 10 4 10 5 0 13 -4
16 -10z m114 -36 c12 -12 -8 -10 -34 2 l-30 14 30 -6 c16 -3 32 -8 34 -10z
m75 -29 c4 -13 2 -14 -14 -5 -23 13 -26 20 -6 20 8 0 16 -7 20 -15z"/>
<path d="M5200 9187 c-45 -24 -81 -50 -75 -55 2 -3 22 7 43 22 21 14 48 26 59
26 12 0 25 5 28 10 9 14 -25 12 -55 -3z"/>
<path d="M4694 7033 c-43 -65 -108 -161 -144 -213 -62 -87 -116 -180 -106
-180 2 0 53 66 114 148 111 148 183 258 196 300 4 12 15 22 24 23 10 0 12 3 5
5 -7 3 -9 12 -6 20 14 38 -14 3 -83 -103z"/>
<path d="M4366 3795 c4 -8 8 -15 10 -15 2 0 4 7 4 15 0 8 -4 15 -10 15 -5 0
-7 -7 -4 -15z"/>
<path d="M5127 5743 c-19 -32 -78 -125 -132 -208 -222 -341 -275 -421 -286
-433 -16 -20 -6 -48 55 -144 46 -72 54 -91 46 -110 -7 -19 -9 -20 -9 -5 -1 24
-26 75 -52 107 -11 14 -18 19 -14 13 7 -15 -11 -18 -20 -3 -11 17 -23 1 -18
-23 4 -16 -8 -8 -47 32 -34 35 -60 54 -76 54 -13 0 -31 8 -40 18 -20 23 -39
25 -30 4 3 -8 9 -22 12 -30 4 -11 0 -15 -15 -15 -22 0 -29 -16 -10 -22 5 -2
11 -17 12 -33 2 -17 6 -36 10 -43 5 -6 6 -16 3 -21 -3 -5 5 -20 19 -32 13 -13
25 -32 25 -41 0 -10 18 -37 40 -60 38 -41 41 -42 46 -21 7 27 24 21 24 -8 0
-11 5 -17 10 -14 11 7 33 -11 43 -35 4 -8 4 -2 1 15 -3 16 -4 28 -2 25 3 -3
15 -20 28 -39 21 -30 21 -33 4 -27 -15 5 -19 0 -21 -21 0 -15 -6 -29 -12 -31
-5 -2 -7 -10 -4 -18 3 -8 0 -14 -7 -14 -10 0 -10 -3 0 -15 7 -8 10 -26 8 -39
-3 -15 -1 -24 6 -23 5 1 16 -18 24 -43 7 -25 20 -61 29 -80 9 -19 18 -42 19
-50 4 -22 27 -64 45 -80 16 -15 49 -73 49 -86 0 -7 -28 26 -80 96 -39 52 -54
64 -58 51 -2 -7 7 -29 21 -49 43 -65 93 -147 96 -157 1 -5 9 -17 17 -26 8 -9
16 -28 18 -42 1 -14 10 -32 19 -42 9 -9 20 -27 23 -41 3 -13 10 -22 14 -19 4
3 10 -4 13 -14 8 -31 81 -141 93 -141 7 0 14 -7 18 -15 8 -21 33 -19 46 5 7
12 10 78 9 166 0 95 3 150 10 157 13 13 15 31 2 23 -13 -8 -21 56 -21 169 -1
116 -23 192 -54 187 -14 -3 -17 1 -14 16 3 11 1 26 -4 33 -8 11 -9 10 -4 -3 4
-15 2 -16 -14 -6 -21 13 -43 55 -35 68 3 4 -5 7 -18 6 -16 -2 -23 2 -23 15 0
17 2 17 18 2 23 -21 23 -13 -3 34 -25 46 -14 34 75 -85 38 -51 74 -91 80 -89
11 4 92 106 258 327 130 173 119 160 112 128 -3 -16 -2 -28 4 -28 5 0 8 16 6
35 -1 19 3 41 10 48 7 6 32 41 57 76 24 35 50 71 57 81 11 15 8 24 -21 61 -34
46 -280 392 -381 536 -32 46 -61 85 -66 88 -5 3 -24 -21 -43 -52z m-365 -833
c17 -30 12 -40 -10 -18 -9 9 -12 9 -12 -2 0 -13 -2 -13 -9 -1 -6 10 -11 1 -16
-28 -4 -25 -12 -40 -18 -38 -20 6 -20 37 -2 37 13 0 15 3 7 13 -14 17 -2 35
21 31 14 -2 18 2 14 17 -8 29 6 23 25 -11z m98 -103 c0 -5 14 -26 32 -48 17
-21 29 -42 25 -45 -3 -3 -11 4 -17 16 -6 11 -23 25 -37 31 -17 6 -24 15 -21
27 3 10 -1 27 -8 37 -22 29 -16 43 6 15 11 -14 20 -29 20 -33z m-55 -7 c3 -6
-1 -7 -10 -4 -14 6 -14 3 -3 -22 7 -16 16 -31 20 -34 4 -3 9 -17 12 -32 2 -14
11 -37 20 -50 9 -14 14 -27 10 -30 -3 -3 4 -20 14 -38 13 -20 22 -27 27 -20 9
14 55 -38 55 -62 0 -9 5 -20 10 -23 13 -8 100 -141 100 -154 0 -5 4 -11 9 -13
5 -1 13 -16 17 -33 7 -28 6 -29 -11 -15 -32 26 -161 193 -193 250 -17 30 -42
66 -54 80 -37 40 -90 128 -84 139 3 5 15 7 26 4 11 -3 20 0 20 6 0 6 -7 11
-15 11 -11 0 -14 9 -12 34 2 29 5 33 19 25 9 -5 20 -14 23 -19z m-65 -31 c0
-17 -20 -29 -20 -11 0 4 -3 18 -7 32 -6 22 -5 24 10 11 9 -7 17 -22 17 -32z"/>
<path d="M4805 5380 c-4 -6 -3 -16 3 -22 13 -13 23 4 13 21 -7 10 -10 10 -16
1z"/>
<path d="M4747 5339 c-15 -18 -37 -46 -49 -63 -12 -17 -30 -37 -40 -44 -10 -7
-18 -17 -18 -22 0 -5 -20 -29 -44 -54 -34 -36 -50 -46 -76 -46 -68 0 -15 -15
68 -20 99 -6 106 -2 142 72 12 25 15 35 5 24 -8 -11 -15 -15 -15 -10 0 6 11
20 25 32 14 12 25 30 26 39 1 36 8 55 22 66 11 9 13 18 6 35 -11 29 -19 28
-52 -9z m11 -95 c-3 -14 -5 -12 -10 9 -3 19 -2 25 4 19 6 -6 8 -18 6 -28z"/>
<path d="M5661 5088 c-2 -34 9 -43 54 -43 24 1 47 4 51 8 10 10 54 9 54 -2 0
-9 -25 -44 -190 -271 -46 -63 -96 -133 -112 -156 -15 -23 -34 -47 -43 -54 -8
-7 -15 -18 -15 -25 0 -8 -3 -15 -7 -17 -16 -6 -157 -217 -151 -223 3 -3 26 24
51 60 47 65 47 65 72 49 24 -16 25 -15 25 6 0 12 13 35 29 51 16 16 31 41 33
56 4 37 28 42 28 6 0 -15 5 -35 10 -43 8 -13 12 -11 30 7 11 12 20 27 20 32 0
5 5 13 12 17 7 4 8 3 4 -4 -12 -20 16 -13 48 12 62 48 78 65 70 77 -5 9 -2 10
9 6 9 -3 20 0 24 7 5 8 53 62 108 122 139 150 176 192 215 244 19 25 40 51 47
58 7 7 13 15 13 18 0 2 -88 4 -195 4 l-195 0 -1 -22 c-1 -16 -3 -18 -6 -6 -4
17 -59 35 -70 24 -4 -3 -1 -6 6 -6 7 0 9 -4 6 -10 -10 -17 -23 -11 -28 13 -2
13 -5 15 -6 5z m-228 -633 c-3 -9 -8 -14 -10 -11 -3 3 -2 9 2 15 9 16 15 13 8
-4z"/>
<path d="M5586 4974 c-8 -22 1 -31 16 -16 9 9 9 15 1 23 -7 7 -12 5 -17 -7z"/>
<path d="M5400 4396 c0 -9 0 -19 -1 -23 0 -4 4 -9 10 -11 14 -5 14 35 1 43 -5
3 -10 -1 -10 -9z"/>
<path d="M5258 4244 c-15 -24 -24 -44 -19 -44 8 0 55 79 50 85 -2 1 -16 -17
-31 -41z"/>
<path d="M4986 3827 c3 -10 9 -15 12 -12 3 3 0 11 -7 18 -10 9 -11 8 -5 -6z"/>
<path d="M2191 3734 c0 -11 3 -14 6 -6 3 7 2 16 -1 19 -3 4 -6 -2 -5 -13z"/>
<path d="M3750 2695 c7 -9 15 -13 17 -11 7 7 -7 26 -19 26 -6 0 -6 -6 2 -15z"/>
<path d="M5910 2400 c-18 -12 -2 -12 25 0 13 6 15 9 5 9 -8 0 -22 -4 -30 -9z"/>
<path d="M4338 9243 c7 -3 16 -2 19 1 4 3 -2 6 -13 5 -11 0 -14 -3 -6 -6z"/>
<path d="M4273 9233 c9 -2 23 -2 30 0 6 3 -1 5 -18 5 -16 0 -22 -2 -12 -5z"/>
<path d="M2088 1659 c21 -22 15 -57 -10 -62 -21 -4 -20 -4 3 -6 41 -2 50 59
11 74 -14 5 -15 4 -4 -6z"/>
<path d="M7406 1434 c-7 -18 0 -34 14 -34 6 0 9 11 8 25 -3 28 -13 33 -22 9z"/>
<path d="M7452 1422 c-1 -24 0 -25 9 -9 7 11 7 23 2 28 -5 5 -9 -3 -11 -19z"/>
<path d="M2794 1425 c-9 -23 3 -45 25 -45 21 0 33 22 25 45 -4 8 -15 15 -25
15 -11 0 -22 -7 -25 -15z"/>
</g>
</svg>
